<?xml version="1.0" encoding="utf-8"?>
<!-- Generator: Adobe Illustrator 26.3.1, SVG Export Plug-In . SVG Version: 6.00 Build 0)  -->
<svg version="1.1" id="圖層_1" xmlns="http://www.w3.org/2000/svg" xmlns:xlink="http://www.w3.org/1999/xlink" x="0px" y="0px"
	 viewBox="0 0 100 150" style="enable-background:new 0 0 100 150;" xml:space="preserve">
<style type="text/css">
	.st0{fill:none;stroke:#7F7E7E;stroke-width:3.7539;stroke-linecap:round;stroke-linejoin:round;stroke-miterlimit:10;}
	.st1{fill:none;stroke:#7F7E7E;stroke-width:4.3156;stroke-linecap:round;stroke-linejoin:round;stroke-miterlimit:10;}
</style>
<g>
	<path class="st0" d="M68.2,89.7l10,1.6C86.8,92.7,95,87.6,96,80.2l0.2-1.3C96.8,74,95.3,69,91.8,65l0,0
		c-8.8-10.4-15.6-21.7-21.6-33.4c-4.1-8.1-12.7-13.7-22.5-13.7c-11,0-20.3,7-23.8,16.7c-3.7,10.4-9.1,20.4-15.2,30l-2.6,4.1
		C4,72.3,3.2,76.3,4,80.3l0,0c1.8,8.7,10.8,15,21.3,15h9.2"/>
	<path class="st1" d="M47.4,120.6c-3.2,7-8.5,11.5-14.5,11.5c-9.9,0-17.9-12.4-17.9-27.6c0-2,0.1-4,0.4-5.9"/>
	<path class="st1" d="M85.4,98.6c0.3,1.9,0.4,3.9,0.4,5.9c0,15.3-8,27.6-17.9,27.6c-6,0-11.3-4.6-14.5-11.5"/>
	<line class="st1" x1="66.3" y1="78.5" x2="71.3" y2="85.2"/>
	<line class="st1" x1="71.1" y1="73.9" x2="76.1" y2="80.6"/>
	<line class="st1" x1="42.6" y1="74.9" x2="35.9" y2="79.8"/>
	<line class="st1" x1="47.3" y1="79.7" x2="40.6" y2="84.6"/>
	<polyline class="st1" points="60.9,57.4 40,46.4 34.8,69 	"/>
	<path class="st1" d="M34.8,69"/>
	<polyline class="st1" points="56.8,74.8 60.9,57.4 73.9,46.4 73.3,66.9 	"/>
	<g>
		<path class="st1" d="M43,34.2L43,34.2c-2,2-5.4,2-7.4,0l0,0"/>
		<path class="st1" d="M60.3,34.2L60.3,34.2c-2,2-5.4,2-7.4,0l0,0"/>
	</g>
</g>
</svg>
