<?xml version="1.0" encoding="utf-8"?>
<!-- Generator: Adobe Illustrator 26.3.1, SVG Export Plug-In . SVG Version: 6.00 Build 0)  -->
<svg version="1.1" id="圖層_1" xmlns:v="https://vecta.io/nano"
	 xmlns="http://www.w3.org/2000/svg" xmlns:xlink="http://www.w3.org/1999/xlink" x="0px" y="0px" viewBox="0 0 140 40"
	 style="enable-background:new 0 0 140 40;" xml:space="preserve">
<g>
	<path d="M65.8,37c-0.6,0-1.2-0.2-1.6-0.7L39.2,11.2c-5.2-5.2-13.5-5.2-18.7,0L6.3,25.4c-0.9,0.9-2.3,0.9-3.2,0
		c-0.9-0.9-0.9-2.3,0-3.2L17.2,8c6.9-6.9,18.2-6.9,25.2,0l25.1,25.1c0.9,0.9,0.9,2.3,0,3.2C67,36.7,66.4,37,65.8,37z"/>
</g>
<g>
	<circle cx="38.6" cy="19.8" r="3.4"/>
	<circle cx="23.8" cy="19.8" r="3.4"/>
</g>
<g>
	<path d="M68.8,3.4c0-0.2,0.1-0.4,0.3-0.5c0.1-0.1,0.3-0.1,0.4-0.1h2.9c0.1,0,0.2,0,0.3,0.1c0.1,0.1,0.1,0.2,0.1,0.3l0,0.2l-2.9,14
		c0,0.2-0.2,0.4-0.4,0.6s-0.5,0.3-0.7,0.3h-1.8c-0.3,0-0.5-0.1-0.7-0.3c-0.2-0.2-0.3-0.4-0.4-0.6l-1.7-5l-1.7,5
		c-0.1,0.2-0.2,0.4-0.4,0.6c-0.2,0.2-0.4,0.3-0.7,0.3h-1.8c-0.3,0-0.5-0.1-0.7-0.3c-0.2-0.2-0.3-0.4-0.4-0.6l-2.9-14l0-0.2
		c0-0.1,0-0.2,0.1-0.3c0.1-0.1,0.2-0.1,0.3-0.1h2.9c0.2,0,0.3,0,0.4,0.1c0.1,0.1,0.2,0.2,0.3,0.5l1.4,7.5l1.3-4
		c0.1-0.4,0.4-0.6,0.8-0.6h2.1c0.4,0,0.6,0.2,0.8,0.6l1.3,4L68.8,3.4z"/>
	<path d="M79.2,14.8h7c0.2,0,0.3,0.1,0.4,0.2c0.1,0.1,0.2,0.3,0.2,0.4v2.4c0,0.2-0.1,0.3-0.2,0.4c-0.1,0.1-0.3,0.2-0.4,0.2H75.7
		c-0.2,0-0.3-0.1-0.4-0.2c-0.1-0.1-0.2-0.3-0.2-0.4V3.4c0-0.2,0.1-0.3,0.2-0.4c0.1-0.1,0.3-0.2,0.4-0.2H86c0.2,0,0.3,0.1,0.4,0.2
		c0.1,0.1,0.2,0.3,0.2,0.4v2.4c0,0.2-0.1,0.3-0.2,0.4c-0.1,0.1-0.3,0.2-0.4,0.2h-6.8v2.4h6.3c0.2,0,0.3,0.1,0.4,0.2
		c0.1,0.1,0.2,0.3,0.2,0.4v2.4c0,0.2-0.1,0.3-0.2,0.4c-0.1,0.1-0.3,0.2-0.4,0.2h-6.3V14.8z"/>
	<path d="M89.5,18.2c-0.1-0.1-0.2-0.3-0.2-0.4V3.4c0-0.2,0.1-0.3,0.2-0.4c0.1-0.1,0.3-0.2,0.4-0.2h7.1c1.3,0,2.3,0.2,3.1,0.7
		c0.8,0.4,1.4,1,1.7,1.7c0.3,0.7,0.5,1.4,0.5,2.3c0,0.7-0.1,1.3-0.4,1.8c-0.3,0.5-0.5,0.8-0.9,1c0.6,0.4,1,0.8,1.2,1.4
		c0.2,0.5,0.4,1.2,0.4,1.9c0,1.4-0.4,2.5-1.2,3.4c-0.8,0.9-2.1,1.4-3.9,1.4H90C89.8,18.3,89.7,18.3,89.5,18.2z M93.5,6.2v2.5h3.4
		c0.4,0,0.8-0.1,1-0.3c0.2-0.2,0.3-0.5,0.3-0.9c0-0.4-0.1-0.7-0.3-0.9c-0.2-0.2-0.6-0.3-1-0.3H93.5z M97.1,14.9
		c0.4,0,0.8-0.1,1.1-0.4c0.3-0.3,0.4-0.6,0.4-1c0-0.4-0.1-0.7-0.4-1c-0.3-0.3-0.6-0.4-1.1-0.4h-3.7v2.7H97.1z"/>
</g>
<g>
	<path d="M88.6,29.2c0,0.2,0,0.8,0,1.6c0,1.2-0.4,2.3-0.9,3.2c-0.6,0.9-1.4,1.7-2.4,2.2c-1,0.5-2.2,0.8-3.6,0.8h-6
		c-0.2,0-0.3-0.1-0.4-0.2c-0.1-0.1-0.2-0.3-0.2-0.4V22c0-0.2,0.1-0.3,0.2-0.4c0.1-0.1,0.3-0.2,0.4-0.2h5.9c1.3,0,2.5,0.3,3.6,0.8
		c1,0.5,1.9,1.3,2.5,2.2c0.6,0.9,0.9,2,1,3.2C88.6,28.5,88.6,29,88.6,29.2z M79.2,25v8.4h2.4c1.9,0,2.8-0.9,2.9-2.6
		c0-0.9,0-1.4,0-1.7c0-0.3,0-0.8,0-1.6c0-0.8-0.3-1.5-0.8-1.9c-0.5-0.4-1.2-0.6-2.2-0.6H79.2z"/>
	<path d="M101.2,22c1,0.5,1.8,1.3,2.4,2.2s0.9,1.9,0.9,3.1c0,0.4,0,1.1,0,2c0,0.9,0,1.6,0,2c-0.1,1.1-0.4,2.1-0.9,3.1
		c-0.6,0.9-1.3,1.6-2.4,2.2c-1,0.5-2.2,0.8-3.6,0.8s-2.6-0.3-3.6-0.8c-1-0.5-1.8-1.3-2.4-2.2c-0.6-0.9-0.9-1.9-0.9-3.1
		c0-0.8,0-1.4,0-2c0-0.5,0-1.2,0-2c0.1-1.1,0.4-2.1,0.9-3.1c0.6-0.9,1.3-1.6,2.4-2.2c1-0.5,2.2-0.8,3.6-0.8S100.2,21.5,101.2,22z
		 M99.6,25.5c-0.5-0.5-1.1-0.7-2-0.7s-1.5,0.2-2,0.7c-0.5,0.5-0.7,1.1-0.8,1.9c0,0.5-0.1,1.1-0.1,1.8c0,0.7,0,1.4,0.1,1.9
		c0.1,0.8,0.3,1.4,0.8,1.9c0.5,0.5,1.1,0.7,2,0.7s1.5-0.2,2-0.7c0.5-0.5,0.7-1.1,0.8-1.9c0-0.5,0.1-1.2,0.1-1.9c0-0.7,0-1.4-0.1-1.8
		C100.3,26.6,100,25.9,99.6,25.5z"/>
	<path d="M116.6,36.8c-0.2-0.1-0.3-0.2-0.3-0.3l-5.1-7.6v7.5c0,0.2-0.1,0.3-0.2,0.4c-0.1,0.1-0.3,0.2-0.4,0.2h-2.9
		c-0.2,0-0.3-0.1-0.4-0.2c-0.1-0.1-0.2-0.3-0.2-0.4V22c0-0.2,0.1-0.3,0.2-0.4c0.1-0.1,0.3-0.2,0.4-0.2h2.3c0.2,0,0.4,0.1,0.6,0.2
		c0.2,0.1,0.3,0.2,0.3,0.3l5.1,7.6V22c0-0.2,0.1-0.3,0.2-0.4c0.1-0.1,0.3-0.2,0.4-0.2h2.9c0.2,0,0.3,0.1,0.4,0.2
		c0.1,0.1,0.2,0.3,0.2,0.4v14.3c0,0.2-0.1,0.3-0.2,0.4c-0.1,0.1-0.3,0.2-0.4,0.2h-2.3C117,37,116.8,36.9,116.6,36.8z"/>
	<path d="M126.7,29c0,0.9,0,1.6,0.1,2c0.1,0.8,0.3,1.4,0.8,1.9c0.4,0.5,1.1,0.7,2,0.7c0.8,0,1.5-0.2,2-0.6c0.5-0.4,0.8-1,0.8-1.9
		h-1.9c-0.2,0-0.3-0.1-0.4-0.2c-0.1-0.1-0.2-0.3-0.2-0.4v-2.4c0-0.2,0.1-0.3,0.2-0.4c0.1-0.1,0.3-0.2,0.4-0.2h5.4
		c0.2,0,0.3,0.1,0.4,0.2c0.1,0.1,0.2,0.3,0.2,0.4v2.8c0,1.2-0.3,2.3-0.9,3.2c-0.6,0.9-1.4,1.6-2.5,2.1c-1,0.5-2.2,0.7-3.5,0.7
		c-1.4,0-2.6-0.3-3.6-0.8c-1-0.5-1.8-1.3-2.4-2.2c-0.6-0.9-0.9-1.9-0.9-3c0-0.7,0-1.3,0-1.8c0-0.5,0-1.3,0-2.2c0-1.1,0.3-2.1,0.9-3
		c0.6-0.9,1.4-1.6,2.4-2.2c1-0.5,2.2-0.8,3.6-0.8c1.3,0,2.5,0.2,3.5,0.7c1,0.5,1.8,1.1,2.4,1.8c0.6,0.7,0.9,1.5,0.9,2.2
		c0,0.1,0,0.2-0.1,0.3c-0.1,0.1-0.2,0.1-0.4,0.1h-3c-0.2,0-0.3,0-0.5-0.1c-0.1-0.1-0.3-0.2-0.4-0.5c-0.3-0.3-0.6-0.6-0.9-0.8
		c-0.4-0.2-0.9-0.3-1.5-0.3c-1.7,0-2.6,0.9-2.8,2.6C126.7,27.7,126.7,28.3,126.7,29z"/>
</g>
</svg>
