<?xml version="1.0" encoding="utf-8"?>
<!-- Generator: Adobe Illustrator 26.3.1, SVG Export Plug-In . SVG Version: 6.00 Build 0)  -->
<svg version="1.1" id="圖層_1" xmlns:v="https://vecta.io/nano"
	 xmlns="http://www.w3.org/2000/svg" xmlns:xlink="http://www.w3.org/1999/xlink" x="0px" y="0px" viewBox="0 0 165.4 23.7"
	 style="enable-background:new 0 0 165.4 23.7;" xml:space="preserve">
<path d="M6.6,23.4L0,0.4h5.3l3.8,15.9h0.2l4.2-15.9H18l4.2,16h0.2l3.8-16h5.3l-6.6,22.9h-4.7l-4.4-15h-0.1l-4.4,15L6.6,23.4
	L6.6,23.4z M34.1,23.4v-23h15.5v4H38.9v5.5h9.8v4h-9.8v5.5h10.7v4H34.1z M53.4,23.4v-23h9.2c1.7,0,3.1,0.2,4.2,0.8s2,1.2,2.5,2.1
	c0.6,0.9,0.9,1.9,0.9,3.1c0,0.9-0.2,1.7-0.5,2.4s-0.8,1.2-1.5,1.7c-0.6,0.4-1.3,0.7-2.1,0.9v0.2c0.9,0,1.7,0.3,2.5,0.7
	c0.8,0.5,1.4,1.1,1.9,1.9c0.5,0.8,0.7,1.8,0.7,2.9c0,1.2-0.3,2.3-0.9,3.3s-1.5,1.7-2.7,2.3s-2.6,0.8-4.3,0.8h-9.9L53.4,23.4z
	 M58.3,10h3.6c0.7,0,1.3-0.1,1.8-0.4c0.5-0.2,0.9-0.6,1.2-1s0.5-1,0.5-1.6c0-0.8-0.3-1.5-0.9-2c-0.6-0.5-1.4-0.8-2.5-0.8h-3.7
	C58.3,4.2,58.3,10,58.3,10z M58.3,19.4h4c1.4,0,2.3-0.3,3-0.8c0.6-0.5,0.9-1.2,0.9-2.1c0-0.6-0.2-1.2-0.5-1.7s-0.7-0.9-1.3-1.1
	c-0.6-0.3-1.2-0.4-2-0.4h-4.1V19.4z M82.4,23.4h-8.1v-23h8.2c2.3,0,4.3,0.5,6,1.4s2.9,2.2,3.8,3.9s1.4,3.8,1.4,6.1
	c0,2.4-0.5,4.4-1.4,6.2c-0.9,1.7-2.2,3-3.9,4C86.7,22.9,84.7,23.4,82.4,23.4z M79.1,19.2h3.1c1.4,0,2.6-0.3,3.6-0.8s1.7-1.3,2.2-2.4
	s0.7-2.5,0.7-4.2S88.5,8.7,88,7.6s-1.2-1.9-2.2-2.4s-2.2-0.8-3.6-0.8h-3.1V19.2z M118.3,11.9c0,2.5-0.5,4.6-1.4,6.4s-2.2,3.1-3.9,4
	c-1.6,0.9-3.4,1.4-5.5,1.4c-2,0-3.9-0.5-5.5-1.4s-2.9-2.3-3.8-4s-1.4-3.9-1.4-6.4s0.5-4.6,1.4-6.4s2.2-3.1,3.8-4s3.4-1.4,5.5-1.4
	c2,0,3.8,0.5,5.5,1.4s2.9,2.3,3.9,4C117.8,7.3,118.3,9.4,118.3,11.9z M113.4,11.9c0-1.6-0.2-3-0.7-4.1s-1.2-2-2-2.5
	c-0.9-0.6-1.9-0.9-3.1-0.9s-2.2,0.3-3.1,0.9s-1.6,1.4-2,2.5c-0.5,1.1-0.7,2.5-0.7,4.1c0,1.6,0.2,3,0.7,4.1s1.2,2,2,2.5
	c0.9,0.6,1.9,0.9,3.1,0.9s2.2-0.3,3.1-0.9s1.6-1.4,2-2.5S113.4,13.5,113.4,11.9z M141,0.4v22.9h-4.2l-10-14.4h-0.1v14.4h-4.9V0.4
	h4.3l9.9,14.4h0.2V0.4H141z M160.3,7.8c-0.2-0.5-0.4-1-0.7-1.5s-0.6-0.8-1-1.1s-0.9-0.5-1.4-0.7s-1.1-0.2-1.7-0.2
	c-1.2,0-2.2,0.3-3.1,0.9s-1.6,1.4-2.1,2.5s-0.7,2.5-0.7,4.1c0,1.6,0.2,3,0.7,4.1s1.2,2,2.1,2.6s1.9,0.9,3.1,0.9c1.1,0,2-0.2,2.8-0.6
	s1.4-0.9,1.8-1.7c0.4-0.8,0.6-1.6,0.6-2.5l1,0.1h-5.9V11h9.6v2.9c0,2-0.4,3.7-1.3,5.2c-0.9,1.4-2,2.6-3.5,3.3
	c-1.5,0.8-3.2,1.2-5.1,1.2c-2.2,0-4-0.5-5.7-1.4s-2.9-2.3-3.8-4.1s-1.4-3.8-1.4-6.3c0-1.9,0.3-3.5,0.8-5c0.5-1.4,1.3-2.7,2.3-3.7
	c1-1,2.1-1.8,3.4-2.3s2.7-0.8,4.2-0.8c1.3,0,2.5,0.2,3.6,0.6s2.1,0.9,3,1.6s1.6,1.5,2.1,2.4c0.6,0.9,0.9,2,1.1,3.1L160.3,7.8
	L160.3,7.8z"/>
</svg>
