<?xml version="1.0" encoding="utf-8"?>
<!-- Generator: Adobe Illustrator 26.3.1, SVG Export Plug-In . SVG Version: 6.00 Build 0)  -->
<svg version="1.1" id="圖層_1" xmlns:v="https://vecta.io/nano"
	 xmlns="http://www.w3.org/2000/svg" xmlns:xlink="http://www.w3.org/1999/xlink" x="0px" y="0px" viewBox="0 0 150 25"
	 style="enable-background:new 0 0 150 25;" xml:space="preserve">
<path d="M6,23.3L0,2.5h4.8l3.4,14.4h0.2l3.8-14.4h4.1L20.1,17h0.2l3.4-14.5h4.8l-6,20.8h-4.3l-4-13.6h-0.1l-4,13.6L6,23.3L6,23.3z
	 M30.9,23.3V2.5H45v3.6h-9.7v5h8.9v3.6h-8.9v5H45v3.6H30.9z M48.4,23.3V2.5h8.3c1.5,0,2.8,0.2,3.8,0.7c1,0.5,1.8,1.1,2.3,1.9
	c0.5,0.8,0.8,1.7,0.8,2.8c0,0.8-0.2,1.5-0.5,2.2c-0.3,0.6-0.7,1.1-1.4,1.5c-0.5,0.4-1.2,0.6-1.9,0.8v0.2c0.8,0,1.5,0.3,2.3,0.6
	c0.7,0.5,1.3,1,1.7,1.7s0.6,1.6,0.6,2.6c0,1.1-0.3,2.1-0.8,3c-0.5,0.9-1.4,1.5-2.4,2.1s-2.4,0.7-3.9,0.7L48.4,23.3L48.4,23.3z
	 M52.9,11.2h3.3c0.6,0,1.2-0.1,1.6-0.4c0.5-0.2,0.8-0.5,1.1-0.9s0.5-0.9,0.5-1.5c0-0.7-0.3-1.4-0.8-1.8c-0.5-0.5-1.3-0.7-2.3-0.7
	h-3.4C52.9,5.9,52.9,11.2,52.9,11.2z M52.9,19.7h3.6c1.3,0,2.1-0.3,2.7-0.7c0.5-0.5,0.8-1.1,0.8-1.9c0-0.5-0.2-1.1-0.5-1.5
	c-0.3-0.5-0.6-0.8-1.2-1c-0.5-0.3-1.1-0.4-1.8-0.4h-3.7C52.9,14.2,52.9,19.7,52.9,19.7z M74.7,23.3h-7.3V2.5h7.4
	c2.1,0,3.9,0.5,5.4,1.3c1.5,0.8,2.6,2,3.4,3.5c0.8,1.5,1.3,3.4,1.3,5.5c0,2.2-0.5,4-1.3,5.6c-0.8,1.5-2,2.7-3.5,3.6
	C78.6,22.9,76.8,23.3,74.7,23.3z M71.7,19.5h2.8c1.3,0,2.4-0.3,3.3-0.7c0.9-0.5,1.5-1.2,2-2.2s0.6-2.3,0.6-3.8S80.3,10,79.8,9
	s-1.1-1.7-2-2.2c-0.9-0.5-2-0.7-3.3-0.7h-2.8C71.7,6.1,71.7,19.5,71.7,19.5z M107.3,12.9c0,2.3-0.5,4.2-1.3,5.8
	c-0.8,1.6-2,2.8-3.5,3.6c-1.5,0.8-3.1,1.3-5,1.3c-1.8,0-3.5-0.5-5-1.3s-2.6-2.1-3.4-3.6c-0.8-1.5-1.3-3.5-1.3-5.8s0.5-4.2,1.3-5.8
	c0.8-1.6,2-2.8,3.4-3.6c1.5-0.8,3.1-1.3,5-1.3c1.8,0,3.4,0.5,5,1.3c1.5,0.8,2.6,2.1,3.5,3.6C106.8,8.7,107.3,10.7,107.3,12.9z
	 M102.8,12.9c0-1.5-0.2-2.7-0.6-3.7s-1.1-1.8-1.8-2.3c-0.8-0.5-1.7-0.8-2.8-0.8c-1.1,0-2,0.3-2.8,0.8C94,7.5,93.3,8.2,93,9.2
	c-0.5,1-0.6,2.3-0.6,3.7s0.2,2.7,0.6,3.7s1.1,1.8,1.8,2.3c0.8,0.5,1.7,0.8,2.8,0.8c1.1,0,2-0.3,2.8-0.8c0.8-0.5,1.5-1.3,1.8-2.3
	C102.6,15.6,102.8,14.4,102.8,12.9z M127.9,2.5v20.8h-3.8L115,10.2h-0.1v13.1h-4.4V2.5h3.9l9,13.1h0.2V2.5H127.9z M145.4,9.2
	c-0.2-0.5-0.4-0.9-0.6-1.4c-0.3-0.5-0.5-0.7-0.9-1c-0.4-0.3-0.8-0.5-1.3-0.6C142.1,6,141.6,6,141,6c-1.1,0-2,0.3-2.8,0.8
	s-1.5,1.3-1.9,2.3s-0.6,2.3-0.6,3.7s0.2,2.7,0.6,3.7s1.1,1.8,1.9,2.4c0.8,0.5,1.7,0.8,2.8,0.8c1,0,1.8-0.2,2.5-0.5
	c0.7-0.4,1.3-0.8,1.6-1.5c0.4-0.7,0.5-1.5,0.5-2.3l0.9,0.1h-5.4v-3.4h8.7v2.6c0,1.8-0.4,3.4-1.2,4.7c-0.8,1.3-1.8,2.4-3.2,3
	c-1.4,0.7-2.9,1.1-4.6,1.1c-2,0-3.6-0.5-5.2-1.3s-2.6-2.1-3.4-3.7c-0.8-1.6-1.3-3.4-1.3-5.7c0-1.7,0.3-3.2,0.7-4.5
	c0.5-1.3,1.2-2.4,2.1-3.4s1.9-1.6,3.1-2.1c1.2-0.5,2.4-0.7,3.8-0.7c1.2,0,2.3,0.2,3.3,0.5c1,0.4,1.9,0.8,2.7,1.5
	c0.8,0.6,1.5,1.4,1.9,2.2c0.5,0.8,0.8,1.8,1,2.8L145.4,9.2L145.4,9.2z"/>
</svg>
