<svg xmlns="http://www.w3.org/2000/svg" viewBox="0 0 180 64" xmlns:v="https://vecta.io/nano"><path d="M13.9 43.5l-6.6-23h5.3l3.8 15.9h.2l4.2-15.9h4.5l4.2 16h.2l3.8-16h5.3l-6.6 22.9h-4.7l-4.4-15H23l-4.4 15h-4.7zm27.5 0v-23h15.5v4H46.2V30H56v4h-9.8v5.5h10.7v4H41.4zm19.3 0v-23h9.2c1.7 0 3.1.2 4.2.8s2 1.2 2.5 2.1c.6.9.9 1.9.9 3.1 0 .9-.2 1.7-.5 2.4s-.8 1.2-1.5 1.7c-.6.4-1.3.7-2.1.9v.2c.9 0 1.7.3 2.5.7a5.75 5.75 0 0 1 1.9 1.9c.5.8.7 1.8.7 2.9 0 1.2-.3 2.3-.9 3.3s-1.5 1.7-2.7 2.3-2.6.8-4.3.8h-9.9zm4.9-13.4h3.6c.7 0 1.3-.1 1.8-.4.5-.2.9-.6 1.2-1s.5-1 .5-1.6c0-.8-.3-1.5-.9-2s-1.4-.8-2.5-.8h-3.7v5.8zm0 9.4h4c1.4 0 2.3-.3 3-.8.6-.5.9-1.2.9-2.1 0-.6-.2-1.2-.5-1.7s-.7-.9-1.3-1.1c-.6-.3-1.2-.4-2-.4h-4.1v6.1zm24.1 4h-8.1v-23h8.2c2.3 0 4.3.5 6 1.4s2.9 2.2 3.8 3.9 1.4 3.8 1.4 6.1c0 2.4-.5 4.4-1.4 6.2-.9 1.7-2.2 3-3.9 4-1.7.9-3.7 1.4-6 1.4zm-3.3-4.2h3.1c1.4 0 2.6-.3 3.6-.8s1.7-1.3 2.2-2.4.7-2.5.7-4.2-.2-3.1-.7-4.2-1.2-1.9-2.2-2.4-2.2-.8-3.6-.8h-3.1v14.8zm39.2-7.3c0 2.5-.5 4.6-1.4 6.4s-2.2 3.1-3.9 4c-1.6.9-3.4 1.4-5.5 1.4-2 0-3.9-.5-5.5-1.4s-2.9-2.3-3.8-4-1.4-3.9-1.4-6.4.5-4.6 1.4-6.4 2.2-3.1 3.8-4 3.4-1.4 5.5-1.4c2 0 3.8.5 5.5 1.4s2.9 2.3 3.9 4c.9 1.8 1.4 3.9 1.4 6.4zm-4.9 0c0-1.6-.2-3-.7-4.1s-1.2-2-2-2.5c-.9-.6-1.9-.9-3.1-.9s-2.2.3-3.1.9-1.6 1.4-2 2.5c-.5 1.1-.7 2.5-.7 4.1s.2 3 .7 4.1 1.2 2 2 2.5c.9.6 1.9.9 3.1.9s2.2-.3 3.1-.9 1.6-1.4 2-2.5.7-2.5.7-4.1zm27.6-11.5v22.9h-4.2l-10-14.4h-.1v14.4h-4.9V20.5h4.3l9.9 14.4h.2V20.5h4.8zm19.3 7.4c-.2-.5-.4-1-.7-1.5s-.6-.8-1-1.1-.9-.5-1.4-.7-1.1-.2-1.7-.2c-1.2 0-2.2.3-3.1.9s-1.6 1.4-2.1 2.5-.7 2.5-.7 4.1.2 3 .7 4.1 1.2 2 2.1 2.6 1.9.9 3.1.9c1.1 0 2-.2 2.8-.6s1.4-.9 1.8-1.7a5.42 5.42 0 0 0 .6-2.5l1 .1h-5.9v-3.7h9.6V34c0 2-.4 3.7-1.3 5.2-.9 1.4-2 2.6-3.5 3.3-1.5.8-3.2 1.2-5.1 1.2-2.2 0-4-.5-5.7-1.4s-2.9-2.3-3.8-4.1-1.4-3.8-1.4-6.3c0-1.9.3-3.5.8-5a9.31 9.31 0 0 1 2.3-3.7c1-1 2.1-1.8 3.4-2.3s2.7-.8 4.2-.8c1.3 0 2.5.2 3.6.6s2.1.9 3 1.6 1.6 1.5 2.1 2.4c.6.9.9 2 1.1 3.1h-4.8z"/></svg>