<?xml version="1.0" encoding="utf-8"?>
<!-- Generator: Adobe Illustrator 26.3.1, SVG Export Plug-In . SVG Version: 6.00 Build 0)  -->
<svg version="1.1" id="Layer" xmlns:v="https://vecta.io/nano"
	 xmlns="http://www.w3.org/2000/svg" xmlns:xlink="http://www.w3.org/1999/xlink" x="0px" y="0px" viewBox="0 0 140 40"
	 style="enable-background:new 0 0 140 40;" xml:space="preserve">
<style type="text/css">
	.st0{fill:#666666;}
	.st1{fill:url(#SVGID_1_);}
	.st2{fill:url(#SVGID_00000135661863212948211420000003137542298883245976_);}
	.st3{fill:url(#SVGID_00000041280106674580191850000007261417724816124827_);}
</style>
<g>
	<path class="st0" d="M50.1,12.8h4.1c1.8,0,3.2,0.3,4.4,1c1.1,0.7,2,1.6,2.5,2.7c0.5,1.1,0.8,2.2,0.8,3.5c0,1.3-0.3,2.5-0.9,3.5
		c-0.6,1-1.5,1.8-2.5,2.3c-1.1,0.5-2.2,0.8-3.5,0.8h-4.8V12.8z M54.5,24c1.4,0,2.5-0.4,3.4-1.1c0.8-0.7,1.2-1.8,1.2-3.1
		c0-1.1-0.2-2-0.7-2.6c-0.5-0.7-1-1.1-1.6-1.4c-0.6-0.3-1.2-0.4-1.7-0.4h-2.2V24H54.5z"/>
	<path class="st0" d="M74.1,16.3c0.6-1.1,1.5-2,2.6-2.6c1.1-0.6,2.3-1,3.5-1c1.3,0,2.4,0.3,3.5,1c1.1,0.6,2,1.5,2.6,2.6
		c0.6,1.1,1,2.3,1,3.5c0,1.3-0.3,2.5-1,3.5c-0.6,1.1-1.5,1.9-2.6,2.6c-1.1,0.6-2.3,0.9-3.5,0.9c-1.3,0-2.5-0.3-3.5-0.9
		c-1.1-0.6-1.9-1.5-2.6-2.6c-0.6-1.1-1-2.3-1-3.5C73.2,18.5,73.5,17.3,74.1,16.3z M76.6,22c0.4,0.7,0.9,1.2,1.6,1.6s1.4,0.6,2.2,0.6
		c0.8,0,1.5-0.2,2.1-0.6c0.6-0.4,1.1-0.9,1.5-1.6c0.4-0.7,0.5-1.4,0.5-2.2c0-0.8-0.2-1.6-0.6-2.3c-0.4-0.7-0.9-1.2-1.5-1.6
		c-0.6-0.4-1.4-0.6-2.2-0.6c-0.8,0-1.5,0.2-2.2,0.6c-0.6,0.4-1.2,0.9-1.5,1.6c-0.4,0.7-0.6,1.4-0.6,2.3C76,20.6,76.2,21.3,76.6,22z"
		/>
	<path class="st0" d="M112,12.8v14.4h-0.1l-9.7-8.8l0.1,8.2h-2.8V12.3h0.1l9.7,8.9l-0.1-8.3H112z"/>
	<path class="st0" d="M135,26c-0.5,0.2-1.1,0.4-1.8,0.6c-0.7,0.2-1.3,0.2-1.8,0.2c-1.5,0-2.8-0.3-3.9-0.9c-1.1-0.6-2-1.4-2.6-2.4
		c-0.6-1-0.9-2.2-0.9-3.5c0-1.6,0.3-3,1-4.1c0.6-1.1,1.5-2,2.6-2.5c1.1-0.6,2.3-0.8,3.6-0.8c0.8,0,1.6,0.1,2.4,0.3
		c0.7,0.2,1.4,0.4,2,0.7l-0.9,2.5c-0.4-0.2-0.9-0.4-1.5-0.6c-0.6-0.2-1.2-0.3-1.6-0.3c-1.5,0-2.7,0.4-3.5,1.1
		c-0.8,0.8-1.2,1.9-1.2,3.4c0,0.9,0.2,1.6,0.6,2.2c0.4,0.6,0.9,1.1,1.6,1.5c0.7,0.3,1.5,0.5,2.4,0.5c0.9,0,1.5-0.1,1.9-0.4v-1.7H131
		v-2.6h5.2v5.9C136,25.5,135.6,25.7,135,26z"/>
</g>
<g>
	<g>
		
			<linearGradient id="SVGID_1_" gradientUnits="userSpaceOnUse" x1="16.017" y1="23.2895" x2="26.188" y2="13.1184" gradientTransform="matrix(0.7071 -0.7071 0.7071 0.7071 -7.6629 27.505)">
			<stop  offset="0" style="stop-color:#FBBDB8;stop-opacity:0"/>
			<stop  offset="1" style="stop-color:#FBBDB8"/>
		</linearGradient>
		<path class="st1" d="M5.7,32.6v-6.6c0-4.3,3.5-7.8,7.8-7.8h21v14.4H5.7z"/>
	</g>
	<g>
		
			<linearGradient id="SVGID_00000177485482931261760480000003790781774522812824_" gradientUnits="userSpaceOnUse" x1="21.1025" y1="28.375" x2="41.4447" y2="8.0329" gradientTransform="matrix(0.7071 -0.7071 0.7071 0.7071 -7.6629 27.505)">
			<stop  offset="0" style="stop-color:#A7F4FF;stop-opacity:0"/>
			<stop  offset="1" style="stop-color:#A7F4FF"/>
		</linearGradient>
		<path style="fill:url(#SVGID_00000177485482931261760480000003790781774522812824_);" d="M20.1,32.6v-21c0-4.3,3.5-7.8,7.8-7.8
			h6.6v28.8H20.1z"/>
	</g>
	
		<linearGradient id="SVGID_00000000212534047211932220000009974394994553143709_" gradientUnits="userSpaceOnUse" x1="21.1025" y1="28.375" x2="31.2736" y2="18.2039" gradientTransform="matrix(0.7071 -0.7071 0.7071 0.7071 -7.6629 27.505)">
		<stop  offset="0" style="stop-color:#FFE089;stop-opacity:0"/>
		<stop  offset="1" style="stop-color:#FFE089"/>
	</linearGradient>
	<path style="fill:url(#SVGID_00000000212534047211932220000009974394994553143709_);" d="M20.1,32.6v-6.6c0-4.3,3.5-7.8,7.8-7.8
		h6.6v14.4H20.1z"/>
</g>
</svg>
