<?xml version="1.0" encoding="utf-8"?>
<!-- Generator: Adobe Illustrator 26.3.1, SVG Export Plug-In . SVG Version: 6.00 Build 0)  -->
<svg version="1.1" id="Layer" xmlns:v="https://vecta.io/nano"
	 xmlns="http://www.w3.org/2000/svg" xmlns:xlink="http://www.w3.org/1999/xlink" x="0px" y="0px" viewBox="0 0 140 40"
	 style="enable-background:new 0 0 140 40;" xml:space="preserve">
<style type="text/css">
	.st0{fill:#D1D1D1;}
	.st1{fill:url(#SVGID_1_);}
	.st2{fill:url(#SVGID_00000083777464305801244170000010267285321583396249_);}
	.st3{fill:url(#SVGID_00000115512146425833258250000017207227667468049841_);}
	.st4{fill:url(#SVGID_00000131334881734005363560000015421175237456778377_);}
	.st5{fill:url(#SVGID_00000060734607000303848580000003833822951800165551_);}
	.st6{fill:url(#SVGID_00000115483894824567844870000006658345341703936395_);}
</style>
<g>
	<path class="st0" d="M46.8-53.2h4c1.7,0,3.1,0.3,4.2,1c1.1,0.7,1.9,1.5,2.4,2.6c0.5,1.1,0.8,2.2,0.8,3.4c0,1.3-0.3,2.4-0.9,3.4
		c-0.6,1-1.4,1.7-2.5,2.3c-1,0.5-2.2,0.8-3.4,0.8h-4.7v-13.5H46.8z M51-42.4c1.4,0,2.5-0.4,3.3-1.1s1.2-1.7,1.2-3
		c0-1.1-0.2-1.9-0.7-2.6c-0.4-0.6-1-1.1-1.6-1.3s-1.1-0.4-1.7-0.4h-2.2v8.3L51-42.4L51-42.4z"/>
	<path class="st0" d="M70.1-49.9c0.6-1.1,1.4-1.9,2.5-2.5c1.1-0.6,2.2-0.9,3.4-0.9c1.2,0,2.4,0.3,3.4,0.9c1.1,0.6,1.9,1.5,2.5,2.5
		c0.6,1.1,0.9,2.2,0.9,3.4s-0.3,2.4-0.9,3.4s-1.5,1.9-2.5,2.5c-1.1,0.6-2.2,0.9-3.4,0.9c-1.2,0-2.4-0.3-3.4-0.9
		c-1-0.6-1.9-1.4-2.5-2.5c-0.6-1-0.9-2.2-0.9-3.4C69.2-47.7,69.5-48.9,70.1-49.9z M72.5-44.4c0.4,0.7,0.9,1.2,1.5,1.6
		c0.6,0.4,1.3,0.6,2.1,0.6c0.8,0,1.4-0.2,2.1-0.6c0.6-0.4,1.1-0.9,1.5-1.6s0.5-1.4,0.5-2.2c0-0.8-0.2-1.5-0.5-2.2
		c-0.4-0.7-0.9-1.2-1.5-1.6c-0.6-0.4-1.3-0.6-2.1-0.6c-0.8,0-1.5,0.2-2.1,0.6c-0.6,0.4-1.1,0.9-1.5,1.6S72-47.4,72-46.6
		C72-45.7,72.1-45,72.5-44.4z"/>
	<path class="st0" d="M106.8-53.2v14h-0.1l-9.4-8.5l0.1,7.9h-2.7v-14h0.1l9.4,8.6l-0.1-8.1L106.8-53.2L106.8-53.2z"/>
	<path class="st0" d="M129.2-40.5c-0.5,0.2-1.1,0.4-1.8,0.6c-0.6,0.2-1.2,0.2-1.7,0.2c-1.4,0-2.7-0.3-3.8-0.8
		c-1.1-0.6-1.9-1.3-2.5-2.3s-0.9-2.1-0.9-3.4c0-1.6,0.3-2.9,0.9-4c0.6-1.1,1.5-1.9,2.5-2.4s2.2-0.8,3.5-0.8c0.8,0,1.6,0.1,2.3,0.3
		c0.7,0.2,1.4,0.4,1.9,0.7l-0.9,2.5c-0.4-0.2-0.8-0.4-1.5-0.5c-0.7-0.1-1.1-0.2-1.5-0.2c-1.5,0-2.6,0.4-3.4,1.1s-1.2,1.8-1.2,3.2
		c0,0.8,0.2,1.5,0.6,2.2c0.4,0.6,0.9,1.1,1.6,1.4s1.4,0.5,2.3,0.5c0.8,0,1.4-0.1,1.8-0.3v-1.6h-2.3v-2.6h5v5.7
		C130.1-40.9,129.7-40.7,129.2-40.5z"/>
</g>
<g>
	
		<linearGradient id="SVGID_1_" gradientUnits="userSpaceOnUse" x1="21.55" y1="89.5795" x2="21.55" y2="104.9947" gradientTransform="matrix(1 0 0 -1 0 41)">
		<stop  offset="0" style="stop-color:#B16B89;stop-opacity:0"/>
		<stop  offset="1" style="stop-color:#B16B89"/>
	</linearGradient>
	<path class="st1" d="M37-48.5H6.1c0-0.8,0.3-1.5,0.9-2.1l12.4-12.5c1.2-1.2,3.1-1.2,4.2,0l12.5,12.5C36.7-50,37-49.3,37-48.5z"/>
	
		<linearGradient id="SVGID_00000056421407264299398650000002666793178835254682_" gradientUnits="userSpaceOnUse" x1="21.55" y1="80.2449" x2="21.55" y2="95.6601" gradientTransform="matrix(1 0 0 -1 0 41)">
		<stop  offset="0" style="stop-color:#A35038;stop-opacity:0"/>
		<stop  offset="1" style="stop-color:#A35038"/>
	</linearGradient>
	<path style="fill:url(#SVGID_00000056421407264299398650000002666793178835254682_);" d="M37-39.2H6.1c0-0.8,0.3-1.5,0.9-2.1
		l12.5-12.5c1.2-1.2,3.1-1.2,4.2,0l12.5,12.5C36.7-40.7,37-40,37-39.2z"/>
	
		<linearGradient id="SVGID_00000155136419945270432700000006587754661499414660_" gradientUnits="userSpaceOnUse" x1="21.55" y1="70.8951" x2="21.55" y2="86.3103" gradientTransform="matrix(1 0 0 -1 0 41)">
		<stop  offset="0" style="stop-color:#398A92;stop-opacity:0"/>
		<stop  offset="1" style="stop-color:#398A92"/>
	</linearGradient>
	<path style="fill:url(#SVGID_00000155136419945270432700000006587754661499414660_);" d="M37-29.9H6.1c0-0.8,0.3-1.5,0.9-2.1
		l12.5-12.5c1.2-1.2,3.1-1.2,4.2,0l12.4,12.6C36.7-31.4,37-30.6,37-29.9z"/>
</g>
<g>
	<path class="st0" d="M50.1,12.8h4.1c1.8,0,3.2,0.3,4.4,1c1.1,0.7,2,1.6,2.5,2.7c0.5,1.1,0.8,2.2,0.8,3.5c0,1.3-0.3,2.5-0.9,3.5
		c-0.6,1-1.5,1.8-2.5,2.3c-1.1,0.5-2.2,0.8-3.5,0.8h-4.8V12.8z M54.5,24c1.4,0,2.5-0.4,3.4-1.1c0.8-0.7,1.2-1.8,1.2-3.1
		c0-1.1-0.2-2-0.7-2.6c-0.5-0.7-1-1.1-1.6-1.4c-0.6-0.3-1.2-0.4-1.7-0.4h-2.2V24H54.5z"/>
	<path class="st0" d="M74.1,16.3c0.6-1.1,1.5-2,2.6-2.6c1.1-0.6,2.3-1,3.5-1c1.3,0,2.4,0.3,3.5,1c1.1,0.6,2,1.5,2.6,2.6
		c0.6,1.1,1,2.3,1,3.5c0,1.3-0.3,2.5-1,3.5c-0.6,1.1-1.5,1.9-2.6,2.6c-1.1,0.6-2.3,0.9-3.5,0.9c-1.3,0-2.5-0.3-3.5-0.9
		c-1.1-0.6-1.9-1.5-2.6-2.6c-0.6-1.1-1-2.3-1-3.5C73.2,18.5,73.5,17.3,74.1,16.3z M76.6,22c0.4,0.7,0.9,1.2,1.6,1.6s1.4,0.6,2.2,0.6
		c0.8,0,1.5-0.2,2.1-0.6c0.6-0.4,1.1-0.9,1.5-1.6c0.4-0.7,0.5-1.4,0.5-2.2c0-0.8-0.2-1.6-0.6-2.3c-0.4-0.7-0.9-1.2-1.5-1.6
		c-0.6-0.4-1.4-0.6-2.2-0.6c-0.8,0-1.5,0.2-2.2,0.6c-0.6,0.4-1.2,0.9-1.5,1.6c-0.4,0.7-0.6,1.4-0.6,2.3C76,20.6,76.2,21.3,76.6,22z"
		/>
	<path class="st0" d="M112,12.8v14.4h-0.1l-9.7-8.8l0.1,8.2h-2.8V12.3h0.1l9.7,8.9l-0.1-8.3H112z"/>
	<path class="st0" d="M135,26c-0.5,0.2-1.1,0.4-1.8,0.6c-0.7,0.2-1.3,0.2-1.8,0.2c-1.5,0-2.8-0.3-3.9-0.9c-1.1-0.6-2-1.4-2.6-2.4
		c-0.6-1-0.9-2.2-0.9-3.5c0-1.6,0.3-3,1-4.1c0.6-1.1,1.5-2,2.6-2.5c1.1-0.6,2.3-0.8,3.6-0.8c0.8,0,1.6,0.1,2.4,0.3
		c0.7,0.2,1.4,0.4,2,0.7l-0.9,2.5c-0.4-0.2-0.9-0.4-1.5-0.6c-0.6-0.2-1.2-0.3-1.6-0.3c-1.5,0-2.7,0.4-3.5,1.1
		c-0.8,0.8-1.2,1.9-1.2,3.4c0,0.9,0.2,1.6,0.6,2.2c0.4,0.6,0.9,1.1,1.6,1.5c0.7,0.3,1.5,0.5,2.4,0.5c0.9,0,1.5-0.1,1.9-0.4v-1.7H131
		v-2.6h5.2v5.9C136,25.5,135.6,25.7,135,26z"/>
</g>
<g>
	
		<linearGradient id="SVGID_00000061446241041381798570000017928545732922747046_" gradientUnits="userSpaceOnUse" x1="16.017" y1="23.2895" x2="26.188" y2="13.1184" gradientTransform="matrix(0.7071 -0.7071 0.7071 0.7071 -7.6629 27.505)">
		<stop  offset="0" style="stop-color:#B16B89;stop-opacity:0"/>
		<stop  offset="1" style="stop-color:#B16B89"/>
	</linearGradient>
	<path style="fill:url(#SVGID_00000061446241041381798570000017928545732922747046_);" d="M5.7,32.6v-6.6c0-4.3,3.5-7.8,7.8-7.8h21
		v14.4H5.7z"/>
	
		<linearGradient id="SVGID_00000056412338879104028340000004301783010181275831_" gradientUnits="userSpaceOnUse" x1="21.1025" y1="28.375" x2="41.4447" y2="8.0329" gradientTransform="matrix(0.7071 -0.7071 0.7071 0.7071 -7.6629 27.505)">
		<stop  offset="0" style="stop-color:#398A92;stop-opacity:0"/>
		<stop  offset="1" style="stop-color:#398A92"/>
	</linearGradient>
	<path style="fill:url(#SVGID_00000056412338879104028340000004301783010181275831_);" d="M20.1,32.6v-21c0-4.3,3.5-7.8,7.8-7.8h6.6
		v28.8H20.1z"/>
	
		<linearGradient id="SVGID_00000055692455206848995980000011231968554576512648_" gradientUnits="userSpaceOnUse" x1="21.1025" y1="28.375" x2="31.2736" y2="18.2039" gradientTransform="matrix(0.7071 -0.7071 0.7071 0.7071 -7.6629 27.505)">
		<stop  offset="0" style="stop-color:#EFD935;stop-opacity:0"/>
		<stop  offset="1" style="stop-color:#EFD935"/>
	</linearGradient>
	<path style="fill:url(#SVGID_00000055692455206848995980000011231968554576512648_);" d="M20.1,32.6v-6.6c0-4.3,3.5-7.8,7.8-7.8
		h6.6v14.4H20.1z"/>
</g>
</svg>
