<?xml version="1.0" encoding="utf-8"?>
<!-- Generator: Adobe Illustrator 26.3.1, SVG Export Plug-In . SVG Version: 6.00 Build 0)  -->
<svg version="1.1" id="圖層_1" xmlns:v="https://vecta.io/nano"
	 xmlns="http://www.w3.org/2000/svg" xmlns:xlink="http://www.w3.org/1999/xlink" x="0px" y="0px" viewBox="0 0 110 30"
	 style="enable-background:new 0 0 110 30;" xml:space="preserve">
<style type="text/css">
	.st0{fill:none;stroke:#000000;stroke-width:2.8346;stroke-linecap:round;stroke-miterlimit:10;}
</style>
<path class="st0" d="M3.5,26L19,10.5c3.7-3.7,9.8-3.7,13.6,0L48.1,26"/>
<g>
	<circle cx="30.4" cy="17.1" r="2.1"/>
	<circle cx="21.2" cy="17.1" r="2.1"/>
</g>
<g>
	<path d="M52.4,2.4c0-0.2,0.1-0.3,0.2-0.3C52.7,2,52.8,2,52.9,2h2.2c0.1,0,0.2,0,0.3,0.1c0.1,0.1,0.1,0.2,0.1,0.3l0,0.1l-2.2,10.6
		c0,0.2-0.1,0.3-0.3,0.4c-0.2,0.1-0.4,0.2-0.6,0.2h-1.4c-0.2,0-0.4-0.1-0.5-0.2s-0.2-0.3-0.3-0.4L49,9.3l-1.3,3.8
		c-0.1,0.2-0.2,0.3-0.3,0.4s-0.3,0.2-0.5,0.2h-1.4c-0.2,0-0.4-0.1-0.6-0.2c-0.2-0.1-0.3-0.3-0.3-0.4L42.5,2.5l0-0.1
		c0-0.1,0-0.2,0.1-0.3C42.7,2,42.7,2,42.8,2H45c0.1,0,0.2,0,0.3,0.1c0.1,0.1,0.2,0.2,0.2,0.3l1.1,5.7l1-3c0.1-0.3,0.3-0.5,0.6-0.5
		h1.6c0.3,0,0.5,0.2,0.6,0.5l1,3L52.4,2.4z"/>
	<path d="M60.3,11.1h5.3c0.1,0,0.2,0,0.3,0.1c0.1,0.1,0.1,0.2,0.1,0.3v1.8c0,0.1,0,0.2-0.1,0.3c-0.1,0.1-0.2,0.1-0.3,0.1h-8
		c-0.1,0-0.2,0-0.3-0.1c-0.1-0.1-0.1-0.2-0.1-0.3V2.4c0-0.1,0-0.2,0.1-0.3C57.4,2,57.5,2,57.6,2h7.8c0.1,0,0.2,0,0.3,0.1
		s0.1,0.2,0.1,0.3v1.8c0,0.1,0,0.2-0.1,0.3c-0.1,0.1-0.2,0.1-0.3,0.1h-5.2v1.8h4.8c0.1,0,0.2,0,0.3,0.1s0.1,0.2,0.1,0.3v1.8
		c0,0.1,0,0.2-0.1,0.3c-0.1,0.1-0.2,0.1-0.3,0.1h-4.8V11.1z"/>
	<path d="M68.1,13.6C68,13.5,68,13.4,68,13.3V2.4c0-0.1,0-0.2,0.1-0.3S68.3,2,68.4,2h5.4c1,0,1.7,0.2,2.3,0.5c0.6,0.3,1,0.8,1.3,1.3
		c0.3,0.5,0.4,1.1,0.4,1.7c0,0.6-0.1,1-0.3,1.4c-0.2,0.3-0.4,0.6-0.6,0.8c0.4,0.3,0.7,0.6,0.9,1c0.2,0.4,0.3,0.9,0.3,1.5
		c0,1-0.3,1.9-0.9,2.6c-0.6,0.7-1.6,1-2.9,1h-5.8C68.3,13.7,68.2,13.7,68.1,13.6z M71.1,4.6v1.9h2.6c0.3,0,0.6-0.1,0.8-0.3
		c0.2-0.2,0.3-0.4,0.3-0.7c0-0.3-0.1-0.5-0.3-0.7c-0.2-0.2-0.4-0.3-0.8-0.3H71.1z M73.9,11.1c0.3,0,0.6-0.1,0.8-0.3
		c0.2-0.2,0.3-0.4,0.3-0.7c0-0.3-0.1-0.5-0.3-0.7c-0.2-0.2-0.5-0.3-0.8-0.3h-2.8v2.1H73.9z"/>
</g>
<g>
	<path d="M69.1,22c0,0.2,0,0.6,0,1.2c0,0.9-0.3,1.7-0.7,2.4c-0.4,0.7-1.1,1.3-1.8,1.7c-0.8,0.4-1.7,0.6-2.7,0.6h-4.5
		c-0.1,0-0.2,0-0.3-0.1c-0.1-0.1-0.1-0.2-0.1-0.3V16.5c0-0.1,0-0.2,0.1-0.3c0.1-0.1,0.2-0.1,0.3-0.1h4.5c1,0,1.9,0.2,2.7,0.6
		c0.8,0.4,1.4,1,1.9,1.7c0.5,0.7,0.7,1.5,0.7,2.4C69.1,21.4,69.1,21.8,69.1,22z M61.9,18.8v6.4h1.8c1.4,0,2.1-0.6,2.2-1.9
		c0-0.7,0-1.1,0-1.3c0-0.2,0-0.6,0-1.2c0-0.6-0.2-1.1-0.6-1.4c-0.4-0.3-0.9-0.5-1.7-0.5H61.9z"/>
	<path d="M78.6,16.5c0.8,0.4,1.4,0.9,1.8,1.6c0.4,0.7,0.7,1.5,0.7,2.3c0,0.3,0,0.8,0,1.5c0,0.7,0,1.2,0,1.5c0,0.9-0.3,1.6-0.7,2.3
		c-0.4,0.7-1,1.2-1.8,1.6c-0.8,0.4-1.7,0.6-2.8,0.6c-1.1,0-2-0.2-2.8-0.6c-0.8-0.4-1.4-1-1.8-1.6c-0.4-0.7-0.7-1.5-0.7-2.3
		c0-0.6,0-1.1,0-1.5c0-0.4,0-0.9,0-1.5c0-0.9,0.3-1.6,0.7-2.3c0.4-0.7,1-1.2,1.8-1.6c0.8-0.4,1.7-0.6,2.8-0.6
		C76.9,15.9,77.8,16.1,78.6,16.5z M77.4,19.1c-0.4-0.4-0.9-0.5-1.5-0.5s-1.2,0.2-1.5,0.5c-0.4,0.4-0.6,0.8-0.6,1.4
		c0,0.4-0.1,0.8-0.1,1.4c0,0.5,0,1,0.1,1.4c0.1,0.6,0.3,1.1,0.6,1.4c0.4,0.4,0.9,0.5,1.5,0.5s1.2-0.2,1.5-0.5s0.6-0.8,0.6-1.4
		C78,23,78,22.5,78,22c0-0.6,0-1-0.1-1.4C77.9,20,77.7,19.5,77.4,19.1z"/>
	<path d="M90.3,27.7c-0.1-0.1-0.2-0.2-0.3-0.3l-3.9-5.8v5.7c0,0.1,0,0.2-0.1,0.3c-0.1,0.1-0.2,0.1-0.3,0.1h-2.2
		c-0.1,0-0.2,0-0.3-0.1c-0.1-0.1-0.1-0.2-0.1-0.3V16.5c0-0.1,0-0.2,0.1-0.3c0.1-0.1,0.2-0.1,0.3-0.1h1.7c0.2,0,0.3,0,0.4,0.1
		c0.1,0.1,0.2,0.2,0.3,0.3l3.9,5.8v-5.7c0-0.1,0-0.2,0.1-0.3c0.1-0.1,0.2-0.1,0.3-0.1h2.2c0.1,0,0.2,0,0.3,0.1
		c0.1,0.1,0.1,0.2,0.1,0.3v10.9c0,0.1,0,0.2-0.1,0.3c-0.1,0.1-0.2,0.1-0.3,0.1h-1.7C90.5,27.9,90.4,27.8,90.3,27.7z"/>
	<path d="M97.9,21.9c0,0.7,0,1.2,0.1,1.5c0,0.6,0.2,1,0.6,1.4c0.3,0.4,0.9,0.5,1.5,0.5c0.6,0,1.2-0.1,1.5-0.4s0.6-0.8,0.6-1.4h-1.4
		c-0.1,0-0.2,0-0.3-0.1c-0.1-0.1-0.1-0.2-0.1-0.3v-1.8c0-0.1,0-0.2,0.1-0.3c0.1-0.1,0.2-0.1,0.3-0.1h4.1c0.1,0,0.2,0,0.3,0.1
		c0.1,0.1,0.1,0.2,0.1,0.3v2.2c0,0.9-0.2,1.7-0.7,2.4c-0.5,0.7-1.1,1.2-1.9,1.6c-0.8,0.4-1.7,0.6-2.7,0.6c-1,0-1.9-0.2-2.7-0.6
		c-0.8-0.4-1.4-1-1.8-1.6c-0.4-0.7-0.7-1.5-0.7-2.3c0-0.5,0-1,0-1.3c0-0.4,0-1,0-1.7c0-0.8,0.3-1.6,0.7-2.3c0.4-0.7,1-1.2,1.8-1.6
		c0.8-0.4,1.7-0.6,2.7-0.6c1,0,1.9,0.2,2.6,0.6c0.8,0.4,1.4,0.8,1.8,1.4s0.7,1.1,0.7,1.6c0,0.1,0,0.2-0.1,0.3
		c-0.1,0.1-0.2,0.1-0.3,0.1h-2.2c-0.1,0-0.3,0-0.3-0.1c-0.1-0.1-0.2-0.2-0.3-0.3c-0.2-0.2-0.4-0.4-0.7-0.6c-0.3-0.1-0.7-0.2-1.2-0.2
		c-1.3,0-2,0.7-2.1,2C97.9,20.8,97.9,21.3,97.9,21.9z"/>
</g>
</svg>
