<svg xmlns="http://www.w3.org/2000/svg" viewBox="0 0 1005 1005" xmlns:v="https://vecta.io/nano"><path d="M502.5 85.4c-236.2 0-427.7 191.5-427.7 427.7 0 188.9 122.5 349.3 292.5 405.8 21.4 3.9 29.2-9.3 29.2-20.6l-.6-72.7c-119 25.8-144.1-57.3-144.1-57.3-19.4-49.4-47.5-62.6-47.5-62.6-38.8-26.5 2.9-26 2.9-26 42.9 3 65.5 44.1 65.5 44.1 38.2 65.4 100.1 46.5 124.5 35.5 3.9-27.6 14.9-46.5 27.2-57.2-95-10.8-194.8-47.5-194.8-211.4 0-46.7 16.7-84.9 44-114.8-4.4-10.8-19.1-54.3 4.2-113.2 0 0 35.9-11.5 117.6 43.8 34.1-9.5 70.7-14.2 107.1-14.4 36.3.2 72.9 4.9 107.1 14.4 81.7-55.3 117.5-43.8 117.5-43.8 23.3 58.9 8.7 102.4 4.3 113.2 27.4 29.9 44 68.1 44 114.8 0 164.3-100 200.5-195.3 211 15.4 13.2 29 39.3 29 79.2l-.5 117.3c0 11.4 7.7 24.7 29.4 20.6C807.8 862.2 930.2 702 930.2 513.1c0-236.3-191.5-427.7-427.7-427.7z" fill-rule="evenodd"/></svg>