<?xml version="1.0" encoding="utf-8"?>
<!-- Generator: Adobe Illustrator 26.3.1, SVG Export Plug-In . SVG Version: 6.00 Build 0)  -->
<svg version="1.1" id="Layer_1" xmlns="http://www.w3.org/2000/svg" xmlns:xlink="http://www.w3.org/1999/xlink" x="0px" y="0px"
	 viewBox="0 0 1005 1005" style="enable-background:new 0 0 1005 1005;" xml:space="preserve">
<g>
	<defs>
		<path id="SVGID_1_" d="M295.4,6c-53.2,2.5-89.5,11-121.3,23.5c-32.9,12.8-60.7,30-88.5,57.8c-27.8,27.8-44.8,55.8-57.5,88.7
			c-12.3,31.8-20.7,68.2-23,121.4c-2.3,53.3-2.9,70.3-2.6,206.1C2.8,639.2,3.4,656.3,6,709.6c2.5,53.2,11,89.5,23.5,121.3
			c12.8,32.9,30,60.7,57.8,88.5c27.8,27.7,55.8,44.8,88.7,57.5c31.8,12.3,68.2,20.7,121.4,23c53.3,2.3,70.4,2.9,206.1,2.6
			c135.8-0.3,152.8-0.9,206.2-3.4c53.2-2.5,89.5-11.1,121.3-23.5c32.9-12.9,60.7-30,88.5-57.8c27.7-27.8,44.8-55.8,57.5-88.7
			c12.3-31.8,20.7-68.2,23-121.4c2.3-53.4,2.9-70.4,2.6-206.2c-0.3-135.8-0.9-152.8-3.4-206.1c-2.5-53.2-11-89.5-23.5-121.3
			c-12.8-32.9-30-60.7-57.8-88.5c-27.8-27.7-55.8-44.8-88.7-57.5c-31.8-12.3-68.2-20.7-121.4-23c-53.3-2.4-70.4-2.9-206.1-2.6
			C365.8,2.8,348.8,3.4,295.4,6 M301.3,909.8c-48.7-2.1-75.2-10.2-92.9-17c-23.4-9-40-19.9-57.6-37.3
			c-17.5-17.5-28.4-34.1-37.5-57.4c-6.9-17.6-15.1-44.1-17.4-92.8c-2.5-52.7-3-68.5-3.3-202c-0.3-133.5,0.2-149.3,2.5-202
			c2.1-48.7,10.2-75.2,17-92.8c9-23.4,19.8-40,37.3-57.6c17.5-17.5,34.1-28.4,57.4-37.5c17.6-6.9,44.1-15.1,92.8-17.4
			c52.7-2.5,68.5-3,202-3.3c133.5-0.3,149.3,0.2,202.1,2.5c48.7,2.1,75.2,10.2,92.8,17c23.4,9,40,19.8,57.6,37.3
			c17.5,17.5,28.4,34.1,37.5,57.4c6.9,17.6,15.1,44,17.4,92.8c2.5,52.7,3.1,68.5,3.3,202c0.3,133.5-0.2,149.3-2.5,202
			c-2.1,48.7-10.2,75.2-17,92.9c-9,23.3-19.8,40-37.3,57.6c-17.5,17.5-34.1,28.4-57.4,37.5c-17.6,6.9-44.1,15.1-92.8,17.4
			c-52.7,2.5-68.5,3-202,3.3C369.8,912.6,354,912.1,301.3,909.8 M708.9,235.2c0.1,33.1,27,59.9,60.1,59.9
			c33.1-0.1,59.9-27,59.9-60.1c-0.1-33.1-27-59.9-60.1-59.9C735.6,175.2,708.8,202.1,708.9,235.2 M245.8,503
			C246,644.8,361.2,759.5,503,759.2c141.8-0.3,256.5-115.4,256.3-257.2C759,360.2,643.8,245.5,502,245.8
			C360.2,246,245.5,361.2,245.8,503 M335.8,502.8c-0.2-92,74.3-166.8,166.3-167c92-0.2,166.8,74.3,167,166.3
			c0.2,92-74.3,166.8-166.4,167C410.8,669.3,336,594.9,335.8,502.8"/>
	</defs>
	<use xlink:href="#SVGID_1_"  style="overflow:visible;"/>
	<clipPath id="SVGID_00000003067467933661197010000017955421230943352737_">
		<use xlink:href="#SVGID_1_"  style="overflow:visible;"/>
	</clipPath>
</g>
</svg>
