<svg xmlns="http://www.w3.org/2000/svg" xmlns:xlink="http://www.w3.org/1999/xlink" viewBox="0 0 1005 1005" xmlns:v="https://vecta.io/nano"><defs><path id="A" d="M295.4 6c-53.2 2.5-89.5 11-121.3 23.5-32.9 12.8-60.7 30-88.5 57.8S40.8 143.1 28.1 176c-12.3 31.8-20.7 68.2-23 121.4-2.3 53.3-2.9 70.3-2.6 206.1L6 709.6c2.5 53.2 11 89.5 23.5 121.3 12.8 32.9 30 60.7 57.8 88.5 27.8 27.7 55.8 44.8 88.7 57.5 31.8 12.3 68.2 20.7 121.4 23 53.3 2.3 70.4 2.9 206.1 2.6l206.2-3.4c53.2-2.5 89.5-11.1 121.3-23.5 32.9-12.9 60.7-30 88.5-57.8 27.7-27.8 44.8-55.8 57.5-88.7 12.3-31.8 20.7-68.2 23-121.4 2.3-53.4 2.9-70.4 2.6-206.2l-3.4-206.1c-2.5-53.2-11-89.5-23.5-121.3-12.8-32.9-30-60.7-57.8-88.5-27.8-27.7-55.8-44.8-88.7-57.5-31.8-12.3-68.2-20.7-121.4-23-53.3-2.4-70.4-2.9-206.1-2.6L295.4 6m5.9 903.8c-48.7-2.1-75.2-10.2-92.9-17-23.4-9-40-19.9-57.6-37.3-17.5-17.5-28.4-34.1-37.5-57.4-6.9-17.6-15.1-44.1-17.4-92.8-2.5-52.7-3-68.5-3.3-202l2.5-202c2.1-48.7 10.2-75.2 17-92.8 9-23.4 19.8-40 37.3-57.6 17.5-17.5 34.1-28.4 57.4-37.5 17.6-6.9 44.1-15.1 92.8-17.4 52.7-2.5 68.5-3 202-3.3l202.1 2.5c48.7 2.1 75.2 10.2 92.8 17 23.4 9 40 19.8 57.6 37.3 17.5 17.5 28.4 34.1 37.5 57.4 6.9 17.6 15.1 44 17.4 92.8 2.5 52.7 3.1 68.5 3.3 202l-2.5 202c-2.1 48.7-10.2 75.2-17 92.9-9 23.3-19.8 40-37.3 57.6-17.5 17.5-34.1 28.4-57.4 37.5-17.6 6.9-44.1 15.1-92.8 17.4-52.7 2.5-68.5 3-202 3.3-133.5.2-149.3-.3-202-2.6m407.6-674.6c.1 33.1 27 59.9 60.1 59.9 33.1-.1 59.9-27 59.9-60.1-.1-33.1-27-59.9-60.1-59.9-33.2.1-60 27-59.9 60.1M245.8 503C246 644.8 361.2 759.5 503 759.2S759.5 643.8 759.3 502C759 360.2 643.8 245.5 502 245.8 360.2 246 245.5 361.2 245.8 503m90-.2c-.2-92 74.3-166.8 166.3-167s166.8 74.3 167 166.3-74.3 166.8-166.4 167c-91.9.2-166.7-74.2-166.9-166.3"/></defs><use xlink:href="#A"/></svg>