<svg xmlns="http://www.w3.org/2000/svg" viewBox="0 0 1005 1005" xmlns:v="https://vecta.io/nano"><path d="M502.5 274.1c-126.1 0-228.4 102.3-228.4 228.4s102.3 228.4 228.4 228.4 228.4-102.3 228.4-228.4-102.3-228.4-228.4-228.4h0zM45.7 548.2H137c25.1 0 45.7-20.6 45.7-45.7s-20.6-45.7-45.7-45.7H45.7C20.6 456.8 0 477.4 0 502.5s20.6 45.7 45.7 45.7zm822.3 0h91.4c25.1 0 45.7-20.6 45.7-45.7s-20.6-45.7-45.7-45.7H868c-25.1 0-45.7 20.6-45.7 45.7s20.5 45.7 45.7 45.7zM456.8 45.7V137c0 25.1 20.6 45.7 45.7 45.7s45.7-20.6 45.7-45.7V45.7c0-25.1-20.6-45.7-45.7-45.7s-45.7 20.6-45.7 45.7zm0 822.3v91.4c0 25.1 20.6 45.7 45.7 45.7s45.7-20.6 45.7-45.7V868c0-25.1-20.6-45.7-45.7-45.7s-45.7 20.5-45.7 45.7zM228 163.5c-17.8-17.8-47.1-17.8-64.4 0-17.8 17.8-17.8 47.1 0 64.4l48.4 48.4c17.8 17.8 47.1 17.8 64.4 0 17.4-17.8 17.8-47.1 0-64.4L228 163.5zm565 565.1c-17.8-17.8-47.1-17.8-64.4 0-17.8 17.8-17.8 47.1 0 64.4l48.4 48.4c17.8 17.8 47.1 17.8 64.4 0 17.8-17.8 17.8-47.1 0-64.4L793 728.6zM841.5 228c17.8-17.8 17.8-47.1 0-64.4-17.8-17.8-47.1-17.8-64.4 0L728.6 212c-17.8 17.8-17.8 47.1 0 64.4 17.8 17.4 47.1 17.8 64.4 0l48.5-48.4zM276.4 793c17.8-17.8 17.8-47.1 0-64.4-17.8-17.8-47.1-17.8-64.4 0L163.5 777c-17.8 17.8-17.8 47.1 0 64.4s47.1 17.8 64.4 0l48.5-48.4z"/></svg>