<?xml version="1.0" encoding="utf-8"?>
<!-- Generator: Adobe Illustrator 26.3.1, SVG Export Plug-In . SVG Version: 6.00 Build 0)  -->
<svg version="1.1" id="圖層_1" xmlns:v="https://vecta.io/nano"
	 xmlns="http://www.w3.org/2000/svg" xmlns:xlink="http://www.w3.org/1999/xlink" x="0px" y="0px" viewBox="0 0 1005 1005"
	 style="enable-background:new 0 0 1005 1005;" xml:space="preserve">
<g>
	<path d="M740.9,847.8c-36.8,0-68.1-12.9-93.8-38.6s-38.6-57-38.6-93.8c0-5.9,0.4-11.2,1.1-16c0.7-4.8,1.8-10.1,3.3-16L350.2,523.3
		C339.1,535,326,543.5,311,548.6s-30.7,7.7-46.9,7.7c-36.8,0-68.1-12.9-93.8-38.6c-25.8-25.8-38.6-57-38.6-93.8s12.9-68.1,38.6-93.8
		s57-38.6,93.8-38.6c16.2,0,31.8,2.8,46.9,8.3c15.1,5.5,28.2,13.8,39.2,24.9l262.7-160.1c-1.4-5.9-2.5-11.2-3.3-16
		c-0.7-4.8-1.1-10.1-1.1-16c0-36.8,12.9-68.1,38.6-93.8S704.1,0,740.9,0c36.8,0,68.1,12.9,93.8,38.6s38.6,57,38.6,93.8
		s-12.9,68.1-38.6,93.8s-57,38.6-93.8,38.6c-16.2,0-31.8-2.6-46.9-7.7c-15.1-5.2-28.2-13.6-39.2-25.4L392.1,391.9
		c1.4,5.9,2.5,11.2,3.3,16c0.7,4.8,1.1,10.1,1.1,16c0,5.9-0.4,11.2-1.1,16c-0.7,4.8-1.8,10.1-3.3,16L654.8,616
		c11.1-12.5,24.1-21.2,39.2-26c15.1-4.8,30.7-7.2,46.9-7.2c36.8,0,68.1,12.9,93.8,38.6s38.6,57,38.6,93.8s-12.9,68.1-38.6,93.8
		S777.8,847.8,740.9,847.8z M740.9,185.5c14.7,0,27.2-5.2,37.5-15.5c10.3-10.3,15.5-22.8,15.5-37.5s-5.2-27.2-15.5-37.5
		c-10.3-10.3-22.8-15.5-37.5-15.5c-14.7,0-27.2,5.2-37.5,15.5c-10.3,10.3-15.5,22.8-15.5,37.5s5.2,27.2,15.5,37.5
		C713.7,180.3,726.2,185.5,740.9,185.5z M264.1,476.9c14.7,0,27.2-5.2,37.5-15.5c10.3-10.3,15.5-22.8,15.5-37.5s-5.2-27.2-15.5-37.5
		c-10.3-10.3-22.8-15.5-37.5-15.5s-27.2,5.2-37.5,15.5c-10.3,10.3-15.5,22.8-15.5,37.5s5.2,27.2,15.5,37.5
		C236.8,471.7,249.3,476.9,264.1,476.9z M740.9,768.3c14.7,0,27.2-5.2,37.5-15.5c10.3-10.3,15.5-22.8,15.5-37.5
		c0-14.7-5.2-27.2-15.5-37.5c-10.3-10.3-22.8-15.5-37.5-15.5c-14.7,0-27.2,5.2-37.5,15.5c-10.3,10.3-15.5,22.8-15.5,37.5
		c0,14.7,5.2,27.2,15.5,37.5C713.7,763.2,726.2,768.3,740.9,768.3z"/>
</g>
</svg>
