<svg xmlns="http://www.w3.org/2000/svg" viewBox="0 0 1005 1005" xmlns:v="https://vecta.io/nano"><path d="M981.5 261.2c-11.5-43.1-45.5-77.1-88.6-88.6-78.2-20.9-391.6-20.9-391.6-20.9s-313.5 0-391.6 20.9c-43.1 11.5-77.1 45.5-88.6 88.6C0 339.4 0 502.5 0 502.5s0 163.1 20.9 241.3c11.5 43.1 45.5 77.1 88.6 88.6 78.2 20.9 391.6 20.9 391.6 20.9s313.5 0 391.6-20.9c43.1-11.5 77.1-45.5 88.6-88.6 20.9-78.2 20.9-241.3 20.9-241.3s.2-163.1-20.7-241.3z"/><path d="M401 652.9l260.4-150.4L401 352.1z" fill="#fff"/></svg>