<?xml version="1.0" encoding="utf-8"?>
<!-- Generator: Adobe Illustrator 26.3.1, SVG Export Plug-In . SVG Version: 6.00 Build 0)  -->
<svg version="1.1" id="Layer_1" xmlns="http://www.w3.org/2000/svg" xmlns:xlink="http://www.w3.org/1999/xlink" x="0px" y="0px"
	 viewBox="0 0 1005 1005" style="enable-background:new 0 0 1005 1005;" xml:space="preserve">
<style type="text/css">
	.st0{fill:#FFFFFF;}
</style>
<g>
	<path d="M981.5,261.2c-11.5-43.1-45.5-77.1-88.6-88.6c-78.2-20.9-391.6-20.9-391.6-20.9s-313.5,0-391.6,20.9
		c-43.1,11.5-77.1,45.5-88.6,88.6C0,339.4,0,502.5,0,502.5s0,163.1,20.9,241.3c11.5,43.1,45.5,77.1,88.6,88.6
		c78.2,20.9,391.6,20.9,391.6,20.9s313.5,0,391.6-20.9c43.1-11.5,77.1-45.5,88.6-88.6c20.9-78.2,20.9-241.3,20.9-241.3
		S1002.4,339.4,981.5,261.2z"/>
	<polygon class="st0" points="401,652.9 661.4,502.5 401,352.1 	"/>
</g>
</svg>
