<?xml version="1.0" encoding="utf-8"?>
<!-- Generator: Adobe Illustrator 26.3.1, SVG Export Plug-In . SVG Version: 6.00 Build 0)  -->
<svg version="1.1" id="圖層_1" xmlns="http://www.w3.org/2000/svg" xmlns:xlink="http://www.w3.org/1999/xlink" x="0px" y="0px"
	 viewBox="0 0 600 600" style="enable-background:new 0 0 600 600;" xml:space="preserve">
<style type="text/css">
	.st0{fill:url(#SVGID_1_);}
	.st1{fill:#231815;stroke:#FFFFFF;stroke-miterlimit:10;}
	.st2{fill:#FFFFFF;}
	.st3{font-family:'AdobeMingStd-Light-B5pc-H';}
	.st4{font-size:22.4201px;}
</style>
<radialGradient id="SVGID_1_" cx="300" cy="300" r="230.9091" gradientUnits="userSpaceOnUse">
	<stop  offset="0" style="stop-color:#FFFFFF"/>
	<stop  offset="1" style="stop-color:#000000"/>
</radialGradient>
<rect x="69.1" y="69.1" class="st0" width="461.8" height="461.8"/>
<path class="st1" d="M324.1,261.7h-48.3c-7.8,0-14.1,6.3-14.1,14.1v48.3c0,7.8,6.3,14.1,14.1,14.1h48.3c7.8,0,14.1-6.3,14.1-14.1
	v-48.3C338.3,268.1,331.9,261.7,324.1,261.7z"/>
<text transform="matrix(1 0 0 1 278.3672 308.3467)" class="st2 st3 st4">CSS</text>
<path class="st1" d="M480.5,172.6h-48.3c-7.8,0-14.1,6.3-14.1,14.1V235c0,7.8,6.3,14.1,14.1,14.1h48.3c7.8,0,14.1-6.3,14.1-14.1
	v-48.3C494.7,178.9,488.3,172.6,480.5,172.6z"/>
<text transform="matrix(1 0 0 1 434.7484 219.2327)" class="st2 st3 st4">CSS</text>
<path class="st1" d="M204.8,134.3h-48.3c-7.8,0-14.1,6.3-14.1,14.1v48.3c0,7.8,6.3,14.1,14.1,14.1h48.3c7.8,0,14.1-6.3,14.1-14.1
	v-48.3C218.9,140.7,212.6,134.3,204.8,134.3z"/>
<text transform="matrix(1 0 0 1 159.0209 180.96)" class="st2 st3 st4">CSS</text>
<path class="st1" d="M124.4,331.2H76.1c-7.8,0-14.1,6.3-14.1,14.1v48.3c0,7.8,6.3,14.1,14.1,14.1h48.3c7.8,0,14.1-6.3,14.1-14.1
	v-48.3C138.5,337.6,132.2,331.2,124.4,331.2z"/>
<text transform="matrix(1 0 0 1 78.6375 377.8475)" class="st2 st3 st4">CSS</text>
<path class="st1" d="M493.4,407.8h-48.3c-7.8,0-14.1,6.3-14.1,14.1v48.3c0,7.8,6.3,14.1,14.1,14.1h48.3c7.8,0,14.1-6.3,14.1-14.1
	v-48.3C507.5,414.1,501.2,407.8,493.4,407.8z"/>
<text transform="matrix(1 0 0 1 447.6374 454.3929)" class="st2 st3 st4">CSS</text>
</svg>
