<?xml version="1.0" encoding="utf-8"?>
<!-- Generator: Adobe Illustrator 26.3.1, SVG Export Plug-In . SVG Version: 6.00 Build 0)  -->
<svg version="1.1" id="圖層_1" fill="#000" xmlns="http://www.w3.org/2000/svg" xmlns:xlink="http://www.w3.org/1999/xlink" x="0px" y="0px"
	 viewBox="0 0 600 600" style="enable-background:new 0 0 600 600;" xml:space="preserve">
	 	<style>
    @media (prefers-color-scheme:dark){:root{filter:invert(100%)}}
  	</style>
<path d="M456.5,231.2c-0.1-1.4-0.2-2.8-0.4-4.2c-0.4-2.6-1.8-5.4-1.2-7.8c1.6-6-1.3-9.5-4.9-13.7c-9.9-11.5-8.9-23,1.8-33.7
	c1.5-1.5,2.6-4.2,2.7-6.3c0.6-9.9,2.8-19.2,10.6-26.1c7.6-6.6,16.2-9.4,25.7-4.1c4.5,2.5,8.3,2.7,13,0.5c3-1.4,6.8-1.9,10.2-1.7
	c8.3,0.5,14.7,4.5,17.6,12.5c3.6,9.9,8.8,18.8,14.9,27.4c5.8,8.2,8.5,18.2,2.6,27.2c-4,6.1-8.6,11-9,19.1c-0.2,3-5.9,6-9.4,8.5
	c-2.4,1.7-5.7,2-8.1,3.8c-8.2,6.2-16.5,7.7-25.1,1.3c-16.4,11.8-23.1,11.5-39.3-1.4c-7.1,7.6-5.8,14.8,2.6,22.1
	c-2.1,3.3-4.2,6.7-6.3,10.1c-0.8-0.6-1.6-1.1-2.4-1.7c1.4-2.7,2.9-5.5,4.5-8.6c-4.9-4.9-6.1-10.9-4.1-17.9c1.1-4-5.3-9.8-9.5-9.2
	c-2.6,0.3-5.2,0.4-7.8,0.6c-0.1-0.8-0.2-1.6-0.4-2.4c2.8-0.8,5.5-1.5,9.1-2.5c-5.5-7.4-10.5-14.8-18.8-18.8
	c-5.9-2.8-12.8,0.2-14.2,6.7c-1,4.8-0.2,10-0.2,16.3c3.8-2.6,6.2-4.3,8.5-5.9c0.4,0.5,0.9,0.9,1.3,1.4c-1.5,1.7-2.9,3.5-4.6,4.9
	c-2.3,1.8-2.9,3.6-1.8,6.4c8.2,20.5,16.4,41,24.3,61.7c1.2,3.2,0.9,7,1,10.6c0,2.4-0.6,4.8-1,7.7c3.4-1,6.2-1.9,9-2.7
	c0.3,0.5,0.7,1,1,1.5c-1.5,1.2-2.8,2.9-4.5,3.5c-4,1.5-7,3-6.8,8.2c0.2,5.6,1.2,10.6,6.8,12.7c4.4,1.6,9.2,2.2,14.8,3.4
	c-1.8-8.3-3.4-15.3-5-22.4c-1.7-7.8-3.5-15.6-5-23.4c-0.7-3.8-1.8-6.9-6.3-7.6c-0.9-0.1-1.7-1.1-2.6-1.6c0.1-0.4,0.2-0.8,0.3-1.2
	c1.8,0.2,3.6,0.3,5.8,0.6c-0.1-7.3,4.7-9.6,11.1-10.6c5.6-0.9,11-2.2,16.8-3.5c-0.8-2.3-1.5-4.1-2.6-7.1c1.8,0.8,2.9,0.9,3.1,1.3
	c1.9,5.3,5.6,4.9,10,3.7c4.1-1.2,8.4-1.9,13.8-3c-2.7-2-4.6-3.4-6.4-4.7c-2.3,1-4.3,1.9-6.3,2.8c-0.5-0.3-1-0.7-1.6-1
	c5.6-5.5,10.9-11.1,7.3-20c5.7,2.4,6.2,7.3,2.7,15.6c4,2.8,7.4,6.6,13.3,6.4c2.1-0.1,4.5,3.2,6.3,5.3c1.9,2.2,2.9,5.1,5,7.1
	c9,8.3,17.8,16.7,22.4,28.3c4.5,11.5,4.4,22.4-5.3,31.7c-0.9,0.9-1,3.3-0.6,4.7c7,22.2,14.5,44.2,21.1,66.5c2.2,7.5,3.1,15.7,3,23.6
	c-0.1,5.2-3.2,10.3-4.7,15.5c-0.6,2.1-1.4,4.4-0.9,6.4c2.6,10.8,4,21.6,1.3,32.6c-0.9,3.6-1.2,8.9-5.9,8.4c-2.4-0.2-5.2-4.7-6.3-7.8
	c-2.7-7.6-4.5-15.5-6.8-23.6c-15.4,5.1-21.5-4.5-26.2-16.2c-9.4,9.5-11.1,10.5-26,14.9c0.2,1,0.2,2.2,0.6,3.2
	c1.9,5,0.2,8.7-3.9,11.7c-3.8,2.7-7.6,5.4-11.3,8.3c-1.9,1.5-3.6,3.2-5.3,4.8c0.2,0.5,0.5,0.9,0.7,1.4c2.5-0.3,5.2-0.1,7.6-0.8
	c7.1-2.2,14.4-4.1,21.2-7.2c6.7-3.1,7.6-6.3,5.7-13.4c-0.9-3.4-2-6.8-3.3-10.8c1.7,0.3,2.4,0.2,2.8,0.5c7.1,5.9,6.9,20.3-0.5,25.6
	c-9.4,6.6-20.3,9.1-31.5,9.9c-1.9,0.1-5-1.4-5.7-2.9c-0.6-1.5,0.7-4.6,2.1-5.9c4.6-4.3,10-7.8,14.6-12.1c1.8-1.7,3.1-4.6,3.4-7.1
	c0.4-3.4-1.5-5.3-5.6-4.9c-3.1,0.3-6.3-0.2-9.4-1c-5-1.3-8.1-4.8-8.7-9.8c-4.6-33.4-9-66.8-13.4-100.2c-0.2-1.3-0.4-2.6-0.5-3.9
	c-0.3-3.6-1.5-6.4-4.9-8.6c-5.3-3.3-6.2-8.9-5.7-14.5c0.7-7.4,2.2-14.8,3.1-22.2c0.2-1.8-0.2-3.9-0.9-5.7
	c-8.5-21.8-17.3-43.6-25.6-65.5c-1.9-5-2.1-10.7-3-16.1c-0.2-1.1-0.2-2.3-0.7-3.3c-2.7-5.9-5.6-11.6-8-17.6c-1-2.5-2.1-3.4-4.6-3.3
	c-5.5,0.2-11,0-16.5,0.1c-4.2,0.1-6.2-2.2-6.3-6.1c-0.7-20.6,3.1-40.4,13-58.7c0.7-1.4,2.1-2.4,3.1-3.6c0.4,0.2,0.9,0.4,1.3,0.6
	c-0.5,1.9-0.8,3.9-1.7,5.7c-8.4,16.8-11.8,34.8-12.5,53.5c-0.2,4.2,1.2,6.1,5.7,5.9c7.4-0.3,14.9-0.1,23-0.1
	c-0.9-5.5-1.6-10-2.4-14.9c-2,0-3.8,0.2-5.6-0.1c-2-0.3-3.9-1.2-5.8-1.8c1.8-0.6,3.7-1.3,5.5-1.7c1.6-0.3,3.3-0.2,5.2-0.4
	c0-2,0-3.7,0-5.8c-3.1-0.2-6-0.4-9-0.6c0-0.7-0.1-1.4-0.1-2.2c5.4-0.5,10.9-1,17-1.6c0.5-0.8,1.4-2.4,1.8-3
	c5.6,1.7,10.5,3.2,16.8,5.2c-2.9,1.1-4.7,1.8-7.3,2.8c0.4,2.4,0.9,5.3,1.4,8.3c0.3,0,0.7,0.1,1,0.1c0.5-1.5,0.8-3.1,1.6-4.3
	c1.2-1.8,2.8-3.3,4.2-5c0.9,1.9,2.5,3.9,2.6,5.8c0.1,5.8-0.4,11.6-0.7,17.3c7.1,2.1,8,1.5,7.9-5.3c-0.4-19.2,3.2-37.6,11.5-56.4
	c-19.9,0-39,0-58.1,0c-0.1-0.6-0.1-1.3-0.2-1.9c1.4-0.4,2.8-1.1,4.2-1.1c17.3-0.1,34.7-0.2,52-0.2c4.2,0,6.5,3.2,4.9,7.1
	c-7.3,17.8-10.8,36.3-10.4,55.5c0.1,4.2-2.1,6.5-6.5,6.4c-1.6,0-3.3,0-4.8,0c-2.4,7.9-1.4,8.9,3.8,14.1c6.9,6.9,12.8,14.8,19.1,22.3
	c1.3,1.6,2.6,3.2,3.9,4.9C455.6,231.5,456.1,231.3,456.5,231.2z M473.2,340.3l-0.1-0.1c6.4,5.5,22.6,4.8,28.5-0.2
	c-2.8-4.8-6.2-9.4-8.3-14.4c-3-7-4.1-7.9-12.9-6.5c2.6,1,4.6,1.6,6.5,2.6c1.2,0.6,2,1.8,3,2.7c-1.3,0.8-2.5,2-3.8,2.2
	c-2.3,0.3-4.6,0.1-6.9-0.2c-3.6-0.5-7.2-1.2-10.8-1.8c-0.1,0.3-0.2,0.7-0.3,1c5.1,2.1,10.3,4.2,15.7,6.4c-1.3,0.9-2.1,1.5-3.1,2.3
	c1.7,0.6,3,1,4.9,1.7c-6.3,1.9-16.4-1.4-20.1-6.4c4.7,1.6,9.1,3.2,13.5,4.7c-3.1-2.5-6.7-3.8-10-5.5c-5.7-2.9-5.8-4.6-1.1-8.5
	c-1.4-7.8-2.9-15.7-4-23.6c-0.2-1.6,1-3.8,2.3-5c1.9-1.6,4.4-2.7,6.8-3.6c1.6-0.6,3.7-1.1,5.2-0.6c3.8,1.3,6.5,0.7,9.2-2.5
	c3.3-3.9,13-1.9,14.5,2.6l0,0c-1.6,1.1-3.2,2.2-4.8,3.4c-1.5,1.1-2.8,2.3-4.2,3.5c-0.3-0.4-0.6-0.8-1-1.2c0.5-0.6,1.1-1.2,1.4-1.9
	c0.6-1.4,1.2-2.9,1.2-4.4c0-0.6-2.1-1.9-2.6-1.6c-1.3,0.7-2.3,2.1-3.4,3.2c-0.7,0.8-1.3,2.2-2.1,2.3c-3.1,0.5-5.1,1.9-6.3,4.8
	c-0.3,0.7-1.7,0.9-3.5,1.7c1-2,1.9-3.1,1.9-4.1c0-1.1-0.5-2.8-1.3-3.2c-0.8-0.4-2.5,0.2-3.4,0.9c-2.1,1.6-3.9,3.4-6.5,5.9
	c1,5.2,2.1,11.6,3.4,17.9c1.7,8.6,1.7,8.6,10.1,8.5c-1.2-1.5-2.7-3.3-4.2-5c3-1.3,6-2.6,9.5-4.1c-0.3-1.3-0.7-3.5-1.2-5.5
	c-1.6,0.5-2.8,0.9-4,1.1c-0.1,0-0.8-1.4-0.7-1.6c1.5-1.4,3-3,4.9-3.8c0.5-0.2,2.6,2.1,3.1,3.5c1,2.6,1.3,5.4,1.9,8.5
	c1.4-0.8,2.4-1.4,4-2.4c1.3,3.8,2.2,7.1,3.5,10.3c3.3,8.1,7.9,14.7,17.7,15.3c3.6,0.3,5.6-0.7,5.5-4.8c-0.1-3.3,0.5-6.7,0.8-10
	c0.6,0,1.1,0,1.7-0.1c3.6,3.8,0.2,9.1,1.9,13.4c10.6-2.9,16.2-11.7,14.5-23c-2.3-14.9-12.2-24.8-23.9-35.3
	c1.5,7.2,2.7,12.9,3.8,18.5c3.1-0.4,5.2-0.7,7.4-1c0.2,0.5,0.4,1.1,0.6,1.6c-2.2,1.2-4.5,2.4-6.8,3.7c-0.6,2,2.2,6.2-3.6,5.3
	c-2.1-11.3-4.4-22.5-6.2-33.8c-0.8-4.6-2.6-6.2-7.4-5.2c-15.6,3.3-31.3,6.3-47,9.6c-5.9,1.2-6.9,2.9-5.6,8.7
	c3.4,14.4,6.8,28.8,10.2,43.2C463.5,339.7,463.4,339.7,473.2,340.3z M505.3,209.5c0.5-11.3-2.6-18-11.3-25.1c0.9,2.2,1.6,4.1,2.4,6
	c-0.6,0.3-1.1,0.5-1.7,0.8c-2.7-4.8-5.5-9.7-8.6-15.3c-4.1,2.6-8.8,5.5-14,8.7c2.1,1.3,3.5,1.8,4.1,2.7c0.9,1.4,1.1,3.1,1.6,4.7
	c-1.7,0.2-4.2,1.1-4.9,0.3c-3.1-3.6-7.2-1.8-10.6-3c-6.2,9.5-5.4,17,2.1,19.2c0.5-4.7,2.9-5.5,6.5-2.7c2-2.2,3.8-4.2,5.7-6.2
	c0,6.1-2,12.4,5.6,15.8c2.4-3,5.1-5.6,8.1,1c3-4.5,5.5-8.1,7.9-11.7C500.5,206.3,502.6,207.7,505.3,209.5z M468.2,212.3
	c-2.8-0.3-5.8-0.7-8.8-1c-4.6,14.4,4.5,27.4,19,26.9c7.7-0.3,13.4-4.8,18.6-10.1c1.4-1.4,3.8-2.9,5.5-2.7c5.8,0.6,9.4-1.1,12.4-7.1
	c-5.1-2.6-10.2-5.1-15.4-7.8c-2.8,5.1-6.3,9.2-12.2,9.4c-5.6,0.2-10-2.6-12.4-7.1c-2.1,1.3-3.9,2.5-5.7,3.7
	C468.8,215.1,468.5,213.7,468.2,212.3z M406.2,208.4c3.1-2.9,5.2-5.7,8-7.1c2.7-1.4,6.2-1.5,9.4-2.2c0.8-10.2,1.5-20.5,2.3-30.8
	c-0.5-0.1-0.9-0.2-1.4-0.3c-1.5,4.7-2.9,9.3-4.4,14c-0.6,0-1.1,0-1.7,0c-1.5-6.8-3.1-13.5-4.6-20.3c-0.2,0.1-0.4,0.1-0.6,0.2
	c0.6,6.5,1.3,13.1,1.9,19.6c-0.8,0.1-1.7,0.2-2.5,0.3c-0.8-6-1.6-12.1-2.4-18.1c-0.4,0-0.8,0.1-1.2,0.1c0,6,0,12,0,17.9
	c-0.5,0.1-1,0.1-1.5,0.2c-1.5-5.4-3.1-10.8-5-17.6c-1.6,11.3,3.5,20.7,3.2,30.4c-0.6,0.1-1.1,0.3-1.7,0.4c-1.3-1.2-2.5-2.4-3.8-3.5
	c-0.3,0.2-0.5,0.4-0.8,0.6C401.6,197.5,403.9,202.8,406.2,208.4z M547.4,491.2c0.6-0.1,1.1-0.2,1.7-0.3c4.6-12,2.8-24,0.1-36.3
	c-11,6.2-11,6.2-8,17c0.7,2.7,1.3,5.5,2.2,8.2C544.6,483.6,546.1,487.4,547.4,491.2z"/>
<path d="M106,276.3c0.8-0.5,1.8-0.8,2.5-1.4c4.6-4,9.2-8.1,13.8-12.2c-0.4-0.5-0.8-1-1.2-1.5c-2.7,0-5.4,0-8.1,0
	c0.2,0.3,0.5,0.6,0.7,0.9c-1.4,1.3-2.6,3.1-4.3,3.9c-11.2,5.8-22.5,11.4-34.6,17.4c3.2,6.2,5.7,12,9.1,17.2c3,4.6,3.5,8.1-0.3,12.5
	c-3.8,4.4-6.9,9.4-10.6,13.9c-1.3,1.6-3.6,2.4-5.4,3.6c-0.4-2.1-0.8-4.2-1.1-6.3c-0.1-0.8,0.2-1.6,0.4-2.9c-5,1.7-9.7,3.3-14.3,4.9
	c-2.9-5.3,2.3-6.2,4.2-9.4c-3.1,0-5.5,0-8.6,0c0.9-1.6,1.5-2.6,2-3.6c-1.5-0.5-3.2-0.9-4.8-1.4c0-0.5-0.1-1.1-0.1-1.6
	c5.8-1.2,11.7-2.4,17.5-3.6c0-0.2,0-0.3,0-0.5c-4.7-0.3-9.4-0.4-14-1.1c-1.6-0.2-3.1-1.8-4.6-2.7c1.3-1.1,2.5-2.9,4-3.2
	c7-1.6,14-2.8,21.1-4.1c1.8-0.3,3.5-0.7,5.2-1c0.1-0.6,0.3-1,0.3-1.2c-3.6-10.6-3.7-10.8,6.3-16.4c9.4-5.2,19.2-10,29-15
	c-2.8-1.6-5.6-3.2-8.4-4.8c-7.4-4.3-8.9-11.2-8.3-18.9c0.8-10.3,4.9-19.4,11.3-27.2c7-8.6,11.1-18.5,15.2-28.4
	c8.7-20.9,16-25.7,39-25.5c1.9-4.3,3.5-8.6,5.8-12.6c2.7-4.6,9.9-7.5,14.2-6.5c5.3,1.3,9.3,5.9,10.2,11.7c0.7,4.9-0.8,8.9-4.8,11.8
	c-1.9,1.3-4,2.4-6.4,3.8c5.8,4.1,11.3,8.1,16.4,11.7c-0.8,6.8-1.6,13.4-2.3,19.9c-1,8.3-2.8,16.1-9.8,21.7c-1.6,1.3-3.7,2-5.6,3
	c-0.4-0.5-0.7-1-1.1-1.5c2.3-2.9,4.8-5.8,7-8.8c1.4-1.9,2.5-4.1,3.6-6.2c2.2-4.3,1-7.5-5.2-9.8c3-0.8,4.6-1.2,6.7-1.7
	c0.7-4.1,1.6-9.1,2.7-14.7c-7.6-5.3-15.6-10.8-24.7-17.2c0.4,5.5,0.6,9.4,0.9,13.5c2.1-1.2,3.7-2.5,5.5-3.1c1.4-0.5,4.1-0.7,4.6,0
	c1.2,1.8,1.6,4.2,2.1,6.4c0,0.2-2.4,1.5-3.2,1.2c-1.2-0.5-2-2.1-3.2-3.4c-3.2,1.8-5,4-5.2,8.4c-0.4,11.6-3.6,22.8-7.6,33.8
	c-0.5,1.4-1.7,2.6-2.8,4.2c9.1-0.9,18.1-4.8,24.9,6c12.7-11.7,25.3-23.2,37.6-34.9c1.5-1.4,1.9-4.1,3-6.6c-1.8-0.4-3.1-0.8-4.3-1
	c-3.7-0.6-5.6-2.6-5.2-6.5c1.8-18.7,0.8-37.2-4-55.4c-0.1-0.6,0.2-1.2,0.2-1.9c0.4-0.2,0.9-0.4,1.3-0.5c0.9,2,2,4,2.6,6.1
	c4,15.4,5,31.1,3.9,47c-0.2,2.6-2.4,6.4,1.9,7.7c4.4,1.3,5-2.6,6.3-5.4c0.6-1.2,1.2-2.4,1.9-3.5c2-3.2,4-4.1,5.6,0.6
	c2.2-1.9,4.2-3.6,7.1-6.1c-4.5,0-8,0-11.6,0c-0.1-0.5-0.2-1.1-0.2-1.6c1.2-0.3,2.3-0.7,3.5-0.8c6.4-0.8,12.8-1.5,19.2-2.1
	c1.2-0.1,2.6,0.1,3.7,0.6c0.4,0.2,0.5,2.1,0.1,2.6c-5.8,5.8-11.8,11.4-18.7,18c1.5-7.4,7.1-10.5,10.2-15.3
	c-6.8,3.4-12.9,8-16.1,14.9c-6.2,13.5-17.2,22.6-28,31.9c-11.3,9.8-22.7,19.4-34.3,29.3c-1.4-4.1-1.4-4.1,10.2-15
	c-6.1-9.8-15.3-2.1-23.1-4c-0.8,1.4-1.8,3-2.9,5c4.7-0.3,8.8-0.7,12.9-0.8c1,0,2.2,1.2,2.9,2.1c0.3,0.4-0.3,1.9-0.8,2.5
	c-2.5,2.5-15.1,3.2-17.5,1.7c-17.2,19.3-34.3,38.5-51.7,58c27.5,6.7,50.7,21.6,73.8,36.5c1.2,0.8,2.4,3.3,2.1,4.7
	c-2.6,13.7-5.8,27.3-8.4,41c-5.3,27.7-10.5,55.5-15.4,83.3c-1.3,7.2-3.8,12.7-12,14.5c3.7,1.1,7.4,2.1,11.1,3.3
	c3.8,1.2,7.7,2.3,11.2,4c1.7,0.8,3.9,3.3,3.7,4.6c-0.4,1.8-2.5,3.9-4.4,4.8c-2.5,1.2-5.5,2-8.2,1.8c-10.9-0.6-21.9-1.2-32.7-2.7
	c-3.1-0.4-6-3.3-8.5-5.6c-1.3-1.2-1.4-3.6-2.4-6.5c2.2,0.7,3.3,0.7,3.6,1.2c3.6,5.7,9.2,7.4,15.4,7.6c9.4,0.3,18.9,0.4,28.3,0.5
	c1.1,0,2.1-0.7,3.4-2.2c-3.7-1.2-7.4-2.4-11-3.6c-5.3-1.7-11.2-1.8-15.1-7c-0.6-0.8-3-0.6-4.6-0.5c-10.9,0.6-21.9,1.2-34,1.9
	c5.9-27.1,11.6-53.1,17.4-79.8c-5.2,7.6-9.8,15-15,21.9c-6.8,9-14,17.7-21.3,26.4c-4.5,5.3-8.1,5.7-13.9,2.1c-1.5-1-2.9-2.2-4.4-3.3
	c-1.4-1.1-2.7-2.3-4.2-3.6c-3.8,5.3-4,10.8-3.3,16.5c1.1,8.1,2.6,16.1,3.6,24.2c0.2,1.5-0.7,3.7-1.9,4.6c-0.8,0.6-3.2,0-4.5-0.7
	C33.5,476.4,25,451.5,30,438.2c0.9-2.4,2.6-4.6,3.9-6.9c0.5,0.2,1,0.4,1.5,0.6c-1.2,5.6-3.4,11.2-3.2,16.8
	c0.2,5.6,2.2,11.4,4.6,16.6c2.4,5.3,6.2,9.9,9.4,14.9c0.6-0.2,1.1-0.5,1.7-0.7c-1.1-6.2-2.1-12.5-3.2-18.7
	c-1.4-7.7-1.4-15.2,2.3-22.4c0.5-1-0.3-3.5-1.2-4.4c-5.1-5.2-10.5-10.1-15.9-15.1c28.9-32.8,52.3-68,70.7-106.6
	c-2.6-2.3-5.4-4.5-7.8-6.9c-3.1-3.2-4-7-1.1-10.8c3.9-5,8.1-9.6,12.1-14.5c0.9-1.1,1.5-2.5,2.2-3.8L106,276.3z M83.6,307.5
	c-2.7-3.7-5.1-7-7.6-10.3c-8.1,1.3-16.2,2.6-24.3,3.9c3.5,0.8,7,0.2,10.2,1c2.2,0.6,3.7,3.3,5.6,5.1c-1.4,1.3-2.9,2.6-4,3.6
	c1.4,0.2,3.4,0.5,6,1c-1.3,1.1-2,1.8-2.9,2.6c3.5,1.8,5,1,4.8-3.1c-0.1-4,0.6-7.4,4.3-10c-0.7,5.2-1.5,10.2-2.1,15.2
	c-0.1,0.5,0.4,1.6,0.6,1.6c0.7,0,1.7-0.2,2-0.7C78.8,314.2,81.2,310.8,83.6,307.5z"/>
<path d="M346.3,480.2c-15.6-1.2-30.9-2.5-46.1-3.7c-5.6-0.4-7-1.8-7.1-7.3c-0.5-28.8-0.1-57.5,3.6-86.1c0.2-1.5,0.2-3,0.2-4.5
	c0.2-5.8,0.1-5.9-5.6-4.3c-3.4,0.9-4.9-1.2-5.2-3.7c-0.5-4.1-2.7-5-6.3-5.1c-3.1,0-6.3-0.7-9.4-1.3c-3.8-0.7-5.9-3-5.5-7
	c1.8-17.9,3.4-35.7,5.5-53.6c0.7-6.1,4.5-8.7,10.6-7.5c3.8,0.8,4.7-0.6,5.9-3.8c5.5-14.8,11.5-29.3,17.1-44.1
	c0.9-2.3,0.8-5.2,0.7-7.7c-0.4-14.8,13.9-25.6,28.2-21.1c0.4,0.1,0.8,0.6,1.9,1.5c-1.8,0.5-3,0.8-4.1,1.1c-4.7,1.2-9.4,2.3-14.1,3.7
	c-1.2,0.4-2.2,1.6-2.8,3.5c-0.9-0.2-1.8-0.4-3.1-0.7c-0.5,2.8-1,5.5-1.5,8.2c2.8,0,5.7,0,9.2,0c-4.4,6.7-13.3,9.2-11.2,18.8
	c-0.5,0-1.4-0.1-2.7-0.3c-1.5,3.8-3.1,8-5.4,13.7c-2.2,1.3-3.3,4.6-1.3,8.6c-4,2.1-5.4,6.1-3.2,9.7c-4.1,2-5.4,6.3-4.2,8.3
	c-1.1,4.2-2.9,7.3-2.4,9.9c0.6,2.7-6.6,5.4,0.3,7.4c-5.4,4.7-5.4,17.3-0.2,19.8c-3.4,4.1-0.2,5.8,2.6,7.7c1.1-0.7,2.1-1.4,3.2-2.1
	c0.1,1.1,0.2,2.2,0.4,3.8c3.6,0,7.5,0,11.6,0c-0.2-1.4-0.4-2.2-0.5-2.9c0.2-0.1,0.3-0.2,0.5-0.3c9.7-4,10.9-5.9,13.1-18.8
	c0.6-3.6,2.3-7.1,3.2-10.7c0.8-3,1.5-6.2,1.7-9.3c0.1-1.1-1.2-2.2-1.8-3.3c3.9-2.1,5.8-12.1,3.4-15.8c1.3-2.2,2.6-4.3,4.2-7.2
	c2.2,7.6,0.2,14.6-0.7,22.5c1.6-1,2.6-1.6,3.1-1.9c7.1-0.7,14.1-1.3,21.6-2c-1.6-5.5-3-10.1-5-16.6c1-3,0-5.9-3.9-7.5
	c2-4,0.7-8.3-3-10.2c2.5-3.6,0.7-8.6-3.4-9.6c2.2-3.9,0.6-8.5-3.4-9.8c1.2-1.9,2.5-3.9,4.3-6.7c4.7,4.1,9.4,8,14,12.2
	c10.9,10.1,21.1,20.8,27.6,34.4c8.7,18.2,0.2,31.6-13.3,41.8c-0.9,0.6-2.1,0.8-3.2,1.1c1.7,15.7,3.7,31.3,4.9,47
	c2.4,32.6,4.4,65.3,6.5,98c0.5,7.4,0.1,7.4-7.7,8.5c-1,5.8,1.5,13.4-5.5,16.8c-3.5,1.7-8.1,1.1-13.8,1.7c-2.2,3.1-7.2,4.2-12.8,4.1
	c-11.3-0.2-22.6-0.3-34-0.6c-1.6,0-3.5-0.3-4.8-1.1c-1.6-0.9-3.5-2.4-3.8-3.9c-0.3-1.2,1.2-3.7,2.5-4.3c4-1.8,8.3-3.3,12.6-4.4
	c4-1.1,8.2-1.6,12.3-2.1c1-0.1,2.2,0.7,3.3,1.1c-0.9,0.7-1.7,1.8-2.7,2.1c-5.4,1.1-10.8,1.8-16.2,3c-2.8,0.6-5.4,2.1-8.1,3.2
	c0,0.5,0.1,1,0.1,1.5c3,0.4,6,1.2,9,1.2c9.8,0.2,19.6,0.3,29.5,0.1C345.2,493.4,347.7,490,346.3,480.2z M375.2,303.5
	c0.9-1.1,1.7-2,2.5-2.9c2.1-2.4,1.6-4.6,0.6-7.6c-0.8-2.4,0.3-9.6-0.5-11.1c-3.3-5.6-6.5-11.3-10.3-16.6c-3-4.2-6.5-8-10.1-11.6
	c-4.4-4.4-9.1-8.5-14.4-13.4c2.5,7.2,4.8,13.2,6.8,19.2c2.1,6.1,3.9,12.3,5.9,18.5c0.6,1.3,0.2,3,0.6,4.4c1.1,4.1,3.7,8.1,3.6,12.1
	c-0.1,4.1,0.2,7,3.9,8.9c-0.9,1.1-2.4,2.2-2.3,3c0.6,4.1,1.7,8.2,2.8,13.1C367.2,313.2,376,311.4,375.2,303.5z M327.5,306.2
	c-1.1,14-10.1,26.7-6.4,40.8c-3.7,0-7.6,0-11.1,0c0,6.9,0,12.6,0,18.6c4.9,0.6,9.4,0.9,13.8,1.7c4.4,0.8,6-1,6.4-5.1
	c1.5-16.2,3.3-32.4,4.9-48.6C335.7,307.3,335.1,306.7,327.5,306.2z M283.9,301.1c-7.4-2.5-9.5-1.2-10.1,6.2c-0.2,2-0.4,4-0.6,6
	c-1.5,14.2-3,28.4-4.6,42.6c-0.4,3.3,0.5,5.1,4.1,5.3c3.9,0.2,7.8,0.8,11.9,1.2c1.1-6.9,2.2-13.4,3.3-19.9c-0.5,0-0.9-0.1-1.4-0.1
	c-1.2,3.2-4.8,3.6-9.7,0.6c6.2-1.7,6.3-5.7,5-10.8c-0.9-3.5-1.1-7.3-0.7-10.9C281.6,314.4,282.9,307.8,283.9,301.1z M292.9,367.1
	c5.3,3.5,12.4,3.5,15.6,0.4c-6.2-5.9,0.1-14.4-4.4-20.7c-1.4,0-2.9,0.1-4.4,0c-9-0.4-9-0.4-10.3,8.6c-0.2,1.3-0.5,2.6-0.5,3.9
	c0,3.7,0.2,7.5,0.4,11.2c0.4,0,0.9,0,1.3,0C291.4,369.3,292.2,368.1,292.9,367.1z M359.4,474c-2.7,2.6-4.9,4.6-7.6,7.2
	c-0.2,2.2-0.6,5.4-1,9c3.9-1.5,8.4-2,10.5-4.5c2.1-2.5,1.8-7,2.6-11C361.6,474.3,360,474.1,359.4,474z"/>
<path d="M333.4,134.1c7.2-3.2,11.5-2.5,17.7,4.4c7.8,8.6,12.6,19.4,11,30.4c-2.2,15-11.3,27.1-22.8,36.9c-3.2,2.8-7.2,3-11.2,0.7
	c-3.8-2.3-5.3-5.8-4.5-9.7c0.5-2.4,2.9-4.4,4.5-6.5c1.8-2.4,4.5-4.5,5.5-7.2c1.5-4.1-0.4-5.5-4.6-4.3c-0.8,0.2-1.6,0.6-2.4,0.8
	c-3.6,0.9-5.6-1-4.5-4.5c0.7-2.3,2-4.5,2.9-6.3c-4.9-4.8-10.2-9.1-14.5-14.2c-5.3-6.3-7.6-13.6-3.9-21.7c3.8-8.4,12.5-10.6,19.7-4.9
	C328.8,129.6,330.8,131.8,333.4,134.1z"/>
<path d="M236.2,208.5c6.6-8.7,13-16.9,19.2-25.2c2.8-3.7,5.7-6.6,10.8-6.4c3.4,0.2,6.1-1.2,6.5-4.8c2.2-18.3,2.1-36.4-1.9-55.1
	c-7.3,0.6-14.4,1.1-21.5,1.7c-10.8,0.9-21.6,1.8-32.4,2.5c-1.5,0.1-3.1-1-4.7-1.5c1.5-0.8,3-2.3,4.6-2.5c17.1-1.7,34.2-3,51.2-4.6
	c4.3-0.4,6.6,1.2,7.4,5.4c3.7,18.6,4.4,37.3,1.7,56.1c-0.7,4.7-3.3,6.6-7.7,6.9c-1,0.1-2,0.1-3,0.1c-4.7-0.2-7.6,1.8-10.2,6.1
	c-4.6,7.4-10.4,14.2-15.8,21.1C239.1,209.9,237.1,211.3,236.2,208.5z"/>
<path d="M221.8,200.1c7.7,4.2,13.8,19.9,9.4,27.1c-6.1,9.8-13,19.2-20.2,28.3c-7.9,9.9-14.4,20.4-17.1,32.8
	c-2.7,12.5-4.8,25.1-7.2,37.6c-0.5,2.8-1.3,5.5-2,8.2c-0.5-0.1-1-0.1-1.5-0.2c-0.2-1.9-0.9-3.8-0.7-5.6c2-14.1,3.6-28.3,6.5-42.2
	c3.3-15.7,12.8-28.2,23.2-40.1c4.9-5.6,9.1-11.8,13.4-17.9c4.4-6.3,3-12.5-0.6-18.7c-1.7-2.8-3.2-5.7-4.8-8.6
	C220.8,200.6,221.3,200.3,221.8,200.1z"/>
<path d="M111.4,289.7c4.9-0.3,10-0.6,15.1-0.8c15.4-0.5,30.9-0.9,46.3-1.3c0.8,0,1.8-0.2,2.5,0.1c2,0.9,5.5,1.8,5.6,3
	c0.5,3.8-2.9,4.1-5.9,4.2c-19.4,0.3-38.7,0.6-58.1,0.9C113.2,295.9,110.6,294.8,111.4,289.7z"/>
<path d="M147,255.7c-0.7-0.2-1.9-0.4-2.8-1c-1.2-0.8-2.2-2-3.3-3c1.3-0.8,2.5-2.2,3.9-2.4c9.2-1.5,18.4-2.7,27.5-3.9
	c8.2-1.1,16.4-2.3,24.6-3.4c2-0.3,4.1-0.6,5.9,0c1.4,0.4,2.5,2.1,3.7,3.2c-1.2,1.1-2.3,2.8-3.7,3.1c-8.8,1.7-17.6,3.2-26.4,4.3
	C166.8,253.9,157.1,254.7,147,255.7z"/>
<path d="M179.7,264.6c2.9,0,5.5-0.3,7.9,0.1c1.4,0.2,2.7,1.4,4,2.2c-1.2,1.4-2.2,3.6-3.6,3.9c-3.7,0.9-7.6,1-11.4,1.2
	c-15.7,1.2-31.3,2.4-47,3.4c-1.5,0.1-4.1-0.7-4.6-1.8c-1.6-3.5,0.7-4.5,3.9-4.8c10.9-0.8,21.9-1.8,32.8-2.7
	C167.9,265.7,174,265.1,179.7,264.6z"/>
<path d="M319.5,172.1c-1.8-3.2-3.6-6.4-5.4-9.5c-1.1,0.5-2.1,0.9-3.2,1.4c-5.1,8.9-10.2,17.9-15.9,27.8c3.1,0.2,4.4,0.3,5.9,0.4
	c-0.1,0.7,0,1.4-0.3,1.6c-1.9,1.8-5.5,3.7-5.4,5.3c0.3,4.2,1.5,8.9,3.8,12.4c2.2,3.2,6.5,5,9.8,7.4c0.6,0.4,1.2,0.9,2.2,1.6
	c-16.4,2-24-16.1-16.7-34.8c-1.5-4.7-4.1-8.4-3.2-10.9c1.9-5.1,7-7.4,12.7-7.9c-2.9,2.1-6,3.9-8.6,6.3c-3,2.7-2.3,5.1,1.6,6.8
	c3.5-5.1,6.8-10,10.3-14.8c4-5.5,7.3-5.5,11.6,0c1.3,1.6,1.8,3.8,2.7,5.7C320.8,171.1,320.2,171.6,319.5,172.1z"/>
<path d="M226.3,132.8c1.2-0.4,2.4-1.1,3.7-1.2c9.3-0.5,18.6-0.8,27.9-1.5c3.1-0.2,4.4,0.8,5.1,3.9c2.2,10.8,2.3,21.7,0.7,32.5
	c-2.6,0-4.7,0-6.4,0c7.4-10.6,3.5-21.8,2.9-32.3c-9.9,0-19.2,0.1-28.5-0.1c-1.9,0-3.7-0.9-5.5-1.4L226.3,132.8z"/>
<path d="M165.8,308c2.3,0,4.7-0.4,6.9,0.1c1.4,0.3,3.1,1.9,3.4,3.2c0.2,1-1.6,3.5-2.6,3.5c-6.2,0.1-12.5-0.2-18.7-0.8
	c-1.1-0.1-2-1.8-3-2.8c1.2-0.9,2.3-2.3,3.6-2.5c3.4-0.6,6.9-0.7,10.3-1C165.8,307.8,165.8,307.9,165.8,308z"/>
<path d="M194.3,227.1c7.2-0.4,14.5-1,21.8-1.2c1.1,0,2.2,1.5,3.3,2.2c-0.9,1-1.7,2.9-2.7,3c-6.4,0.8-12.8,1.4-19.2,1.4
	c-1.3,0-2.7-2.6-4-4C193.7,228,194,227.6,194.3,227.1z"/>
<path d="M394.9,139.4c12.8-0.5,25.7,0.1,39.4-0.1c-1.1,1.4-1.6,2.6-2.1,2.6c-12.4,0.1-24.7,0.1-37.1,0.1
	C395.1,141.1,395,140.2,394.9,139.4z"/>
<path d="M256.1,140.4c-5,6.4-9.9,12.8-15.4,19.9c-3.4-3.6-6.5-6.8-9.5-10c0.5-0.5,1-1,1.5-1.5c2.6,2.1,5.1,4.3,8.2,6.8
	c4.4-5.5,8.8-11.1,13.2-16.7C254.8,139.4,255.5,139.9,256.1,140.4z"/>
<path d="M250.4,178.4c1.7-1.1,3.5-2.2,5.2-3.4c1.2-0.8,2.4-1.5,3.6-2.3c0.4,0.4,0.8,0.9,1.3,1.3c-5,6.2-10,12.5-15.2,18.9
	c-0.8-1.3-1.5-2.5-1.7-2.8c2.6-4.3,4.8-8.2,7.1-12C250.5,178.2,250.4,178.4,250.4,178.4z"/>
<path d="M250.5,178.2c-3.2,3.2-6.4,6.4-9.7,9.6c0.3-6.8,11.5-18.6,17.1-18.7c-2.8,3.4-5.2,6.3-7.6,9.3
	C250.4,178.4,250.5,178.2,250.5,178.2z"/>
<path d="M226.2,132.7c3.2,10.1,4.2,20.5,3.4,30.9c-0.5,0.1-1,0.2-1.6,0.3c-0.3-1.1-0.8-2.2-0.9-3.3c-0.8-8.1-1.6-16.2-2.2-24.2
	c-0.1-1.2,0.9-2.4,1.4-3.6C226.3,132.8,226.2,132.7,226.2,132.7z"/>
<path d="M210.3,210.3c3,0,6.2-0.3,9.1,0.2c1.2,0.2,2.9,2,2.9,3.2c0,1-1.7,2.7-2.9,3.1C213.7,218.4,210.2,216.2,210.3,210.3z"/>
<path d="M97.7,282.4c-3.3,4.9-10.5,6.6-13.6,4.3c-0.7-0.5-1.2-1.6-1.2-2.4c0-0.8,0.9-2.2,1.3-2.2C88.4,282.1,92.5,282.3,97.7,282.4z
	"/>
<path d="M413.7,150.5c-2.1,2.4-16,3-22.1,0.9C394.1,149,408.7,148.4,413.7,150.5z"/>
<path d="M432.9,259.8c-3.2-5.5,0.1-9.9,0.8-14.8C436.9,247.4,436.4,254,432.9,259.8z"/>
<path d="M488.1,249.5c-3.5,3.3-8.5,2.2-11.8-2.5C480.3,247.8,484.2,248.6,488.1,249.5z"/>
<path d="M106.1,276.2c-2.6-0.7-7.5,2.3-6.6-4.9c2.9,0.4,5.6,0.7,8.3,1c-0.6,1.3-1.3,2.6-1.9,3.9C106,276.3,106.1,276.2,106.1,276.2z
	"/>
<path d="M308.2,174.1c1-1.7,1.9-3.6,3.2-5.1c0.3-0.3,2,0.6,3.1,1c-1.2,1.9-2.4,3.7-3.6,5.6C310,175.1,309.1,174.6,308.2,174.1z"/>
<path d="M501.7,287.4c1.7,6.7,3.5,13.5,5,20.2c0.2,1.1-0.7,2.4-1.1,3.5c-0.5-0.1-1-0.2-1.5-0.2c-1-4.3-1.9-8.6-3-13.5
	c-10.5,2-20.6,4-30.8,6c-0.2-0.7-0.3-1.3-0.5-2c10.1-2.4,20.2-4.7,29.5-6.9C500.3,291.8,501,289.6,501.7,287.4
	C501.7,287.5,501.7,287.4,501.7,287.4z"/>
<path d="M473.2,340.3c-2-1.5-3.9-3.1-7-5.5c7.7,2,14.1,3.7,20.4,5.4c-0.1,0.5-0.1,1.1-0.2,1.6c-2.8-0.4-5.5-0.8-8.3-1.1
	c-1.7-0.2-3.4-0.4-5-0.5C473.1,340.2,473.2,340.3,473.2,340.3z"/>
<path d="M489.6,191.1c2.6,2.6,4.6,4.6,6.6,6.6c-0.9,0.7-2.2,2.2-2.6,2c-2.6-1.2-5.1-2.8-7.6-4.3
	C486.9,194.2,487.9,193.1,489.6,191.1z"/>
</svg>
