<?xml version="1.0" encoding="utf-8"?>
<!-- Generator: Adobe Illustrator 26.3.1, SVG Export Plug-In . SVG Version: 6.00 Build 0)  -->
<svg version="1.1" id="圖層_1" xmlns="http://www.w3.org/2000/svg" xmlns:xlink="http://www.w3.org/1999/xlink" x="0px" y="0px"
	 viewBox="0 0 1200 600" style="enable-background:new 0 0 1200 600;" xml:space="preserve">
<g>
	<path d="M247.7,163.8V69.2h-29.4V47.7H301v21.5h-29.4v94.7L247.7,163.8L247.7,163.8z"/>
	<path d="M317.8,163.8V47.7h23.9v28.6L340.9,93h0.5c1.1-5.6,3.6-10.1,7.6-13.4s9.2-4.9,15.4-4.9c8.5,0,15.3,3,20.4,8.9
		s7.7,13.8,7.7,23.7v56.5h-23.9v-54.1c0-4.6-1.2-8.1-3.6-10.6s-5.7-3.7-9.9-3.7c-4.2,0-7.6,1.2-9.9,3.7c-2.4,2.5-3.6,6-3.6,10.6
		v54.1H317.8z"/>
	<path d="M413.9,163.8v-21.5h29V97.8h-25.8V76.3h49.6v66h25.1v21.5H413.9z M453.7,62.5c-4.4,0-7.8-1.1-10.4-3.3s-3.9-5.3-3.9-9.1
		s1.3-6.8,3.9-9.1c2.6-2.2,6.1-3.3,10.4-3.3s7.8,1.1,10.4,3.3s3.9,5.3,3.9,9.1s-1.3,6.8-3.9,9.1C461.5,61.4,458,62.5,453.7,62.5z"/>
	<path d="M508.7,163.8V76.3h23.1V93h0.5c1.1-5.6,3.6-10.1,7.6-13.4s9.2-4.9,15.4-4.9c8.5,0,15.3,3,20.4,8.9
		c5.1,5.9,7.7,13.8,7.7,23.7v56.5h-23.9v-54.1c0-4.6-1.2-8.1-3.6-10.6c-2.4-2.5-5.7-3.7-9.9-3.7s-7.6,1.2-9.9,3.7
		c-2.4,2.5-3.6,6-3.6,10.6v54.1H508.7z"/>
	<path d="M604.7,163.8V47.7h23.9v61.7h12.1L659,76.3h26.3L661,119.1l24.8,44.7h-26.7l-18.5-34.4h-11.9v34.4L604.7,163.8L604.7,163.8
		z"/>
</g>
<g>
	<path d="M297.2,354.7V238.6h37.4c7.7,0,14.5,1.2,20.3,3.7s10.3,6,13.5,10.4c3.2,4.5,4.9,9.7,4.9,15.6c0,6.6-1.8,12.1-5.3,16.5
		c-3.6,4.4-8.4,7.2-14.4,8.4c6.8,1.2,12.2,4.2,16.2,9.2s6,11.2,6,18.8c0,6.7-1.7,12.5-5,17.6c-3.3,5-8,9-13.9,11.8
		s-12.9,4.2-20.8,4.2L297.2,354.7L297.2,354.7z M320.3,285.4h14c4.7,0,8.3-1.2,11-3.7c2.6-2.5,4-5.9,4-10.1c0-4.3-1.3-7.7-4-10.1
		s-6.3-3.6-11-3.6h-14V285.4z M320.3,335.5h14.8c5.2,0,9.3-1.4,12.3-4.1c3-2.8,4.5-6.6,4.5-11.5s-1.5-8.7-4.5-11.5
		s-7.1-4.2-12.3-4.2h-14.8V335.5z"/>
	<path d="M429.9,356.3c-11.8,0-21-3.2-27.6-9.5c-6.6-6.4-9.9-15.1-9.9-26.1v-53.5h23.9v53.3c0,10.1,4.6,15.1,13.7,15.1
		c4.3,0,7.7-1.3,10.1-3.9s3.6-6.3,3.6-11.2v-53.3h23.9v53.5c0,11.1-3.3,19.9-10,26.2C450.8,353.2,441.6,356.3,429.9,356.3z"/>
	<path d="M488.8,354.7v-21.5h29v-44.5H492v-21.5h49.6v66h25.1v21.5H488.8z M528.6,253.4c-4.4,0-7.8-1.1-10.4-3.3
		c-2.6-2.2-3.9-5.3-3.9-9.1s1.3-6.8,3.9-9.1c2.6-2.2,6.1-3.3,10.4-3.3c4.3,0,7.8,1.1,10.4,3.3c2.6,2.2,3.9,5.3,3.9,9.1
		s-1.3,6.8-3.9,9.1C536.4,252.3,532.9,253.4,528.6,253.4z"/>
	<path d="M625.6,354.7c-6.2,0-11.6-1.3-16.2-3.9c-4.7-2.6-8.3-6.2-10.9-10.9c-2.6-4.7-3.9-10.1-3.9-16.2v-63.6h-27.8v-21.5h51.7
		v84.3c0,3.1,0.9,5.6,2.6,7.5s4.1,2.9,6.9,2.9h24.7v21.5h-27.1V354.7z"/>
	<path d="M696.1,356.3c-8.4,0-15.2-3.1-20.4-9.3c-5.2-6.2-7.9-14.5-7.9-24.9v-22.3c0-10.4,2.6-18.7,7.9-24.9
		c5.3-6.2,12.1-9.3,20.4-9.3c5.7,0,10.6,1.5,14.6,4.4s7,7,8.9,12.3h0.5l-0.8-19.9v-23.9h23.9v116.1h-23.1v-15.1h-0.5
		c-1.9,5.3-4.9,9.4-8.9,12.3C706.7,354.9,701.8,356.3,696.1,356.3z M705.3,335.7c4.6,0,8-1.3,10.4-3.9s3.6-6.3,3.6-11.2v-19.1
		c0-4.9-1.2-8.6-3.6-11.2c-2.4-2.6-5.9-3.9-10.4-3.9c-4.4,0-7.7,1.2-10.1,3.7c-2.4,2.4-3.6,6-3.6,10.7v20.7c0,4.6,1.2,8.1,3.6,10.6
		C697.6,334.4,700.9,335.7,705.3,335.7z"/>
</g>
<g>
	<path d="M408.4,537.7V421.6h37.7c8.1,0,15.1,1.5,21.1,4.6s10.7,7.4,14,13s5,12.1,5,19.6v41.5c0,7.4-1.7,13.9-5,19.6
		c-3.3,5.6-8,10-14,13.1s-13,4.7-21.1,4.7H408.4z M432.3,516.2h13.8c4.8,0,8.7-1.5,11.7-4.5s4.5-6.8,4.5-11.5v-41.5
		c0-4.7-1.5-8.5-4.5-11.4s-6.9-4.4-11.7-4.4h-13.8V516.2z"/>
	<path d="M541.8,539.3c-7.7,0-14.5-1.5-20.3-4.4s-10.2-7-13.4-12.3c-3.1-5.3-4.7-11.4-4.7-18.4v-20.7c0-7,1.6-13.1,4.7-18.4
		s7.6-9.3,13.4-12.3c5.8-2.9,12.5-4.4,20.3-4.4c7.7,0,14.5,1.5,20.1,4.4c5.7,2.9,10.1,7,13.2,12.3c3.1,5.2,4.7,11.4,4.7,18.4v15.9
		h-53.6v4.8c0,11.1,5.3,16.7,15.9,16.7c7.5,0,12-2.4,13.5-7.2H579c-1.9,7.6-6.2,13.8-13,18.5C559.3,537,551.2,539.3,541.8,539.3z
		 M526.2,483.6v2.4l30.9-0.3v-2.4c0-11.1-5.1-16.7-15.3-16.7c-5.2,0-9.1,1.5-11.7,4.5C527.5,474,526.2,478.2,526.2,483.6z"/>
	<path d="M599.8,566.4V450.2h23.1v15.1h0.5c1.9-5.3,4.9-9.4,8.9-12.3s8.9-4.4,14.6-4.4c8.5,0,15.3,3.1,20.5,9.3
		c5.2,6.2,7.8,14.5,7.8,24.9v22.3c0,10.4-2.6,18.7-7.8,24.9s-12,9.3-20.5,9.3c-5.7,0-10.6-1.5-14.6-4.4s-7-7-8.9-12.3h-0.5l0.8,19.9
		v23.9H599.8z M637.7,518.6c4.3,0,7.7-1.2,10.1-3.7c2.4-2.5,3.6-6,3.6-10.6v-20.7c0-4.7-1.2-8.2-3.6-10.7c-2.4-2.4-5.8-3.7-10.1-3.7
		c-4.6,0-8,1.3-10.4,3.9s-3.6,6.3-3.6,11.2v19.1c0,4.9,1.2,8.6,3.6,11.2C629.7,517.3,633.1,518.6,637.7,518.6z"/>
	<path d="M736.9,537.7c-6.2,0-11.6-1.3-16.2-3.9c-4.7-2.6-8.3-6.2-10.9-10.9c-2.6-4.7-3.9-10.1-3.9-16.2V443h-27.8v-21.5h51.7v84.3
		c0,3.1,0.9,5.6,2.6,7.5c1.7,1.9,4.1,2.9,6.9,2.9H764v21.5H736.9z"/>
	<path d="M817.3,539.3c-7.7,0-14.5-1.5-20.2-4.4s-10.2-7-13.3-12.3s-4.7-11.4-4.7-18.4v-20.7c0-7,1.6-13.1,4.7-18.4
		c3.1-5.3,7.6-9.3,13.3-12.3c5.7-2.9,12.5-4.4,20.2-4.4c7.8,0,14.6,1.5,20.3,4.4s10.1,7,13.2,12.3c3.1,5.2,4.7,11.4,4.7,18.4v20.7
		c0,7-1.6,13.1-4.7,18.4c-3.1,5.2-7.5,9.3-13.2,12.3C831.9,537.8,825.1,539.3,817.3,539.3z M817.3,518.6c4.7,0,8.2-1.2,10.7-3.7
		c2.4-2.5,3.7-6,3.7-10.6v-20.7c0-4.7-1.2-8.2-3.7-10.7c-2.4-2.4-6-3.7-10.7-3.7c-4.6,0-8.1,1.2-10.6,3.7c-2.5,2.4-3.7,6-3.7,10.7
		v20.7c0,4.6,1.2,8.1,3.7,10.6C809.2,517.4,812.7,518.6,817.3,518.6z"/>
	<path d="M890,566.4l11.9-32.9L868,450.2h26l14.3,38.2c1.1,2.9,2.1,6.3,3,10.4c1,4.1,1.7,7.4,2.2,9.9c0.5-2.5,1.3-5.9,2.2-9.9
		c1-4.1,2-7.6,3-10.4l13.8-38.2h24.8L915,566.4H890z"/>
</g>
</svg>
