<?xml version="1.0" encoding="utf-8"?>
<!-- Generator: Adobe Illustrator 26.3.1, SVG Export Plug-In . SVG Version: 6.00 Build 0)  -->
<svg version="1.1" id="圖層_1" xmlns="http://www.w3.org/2000/svg" xmlns:xlink="http://www.w3.org/1999/xlink" x="0px" y="0px"
	 viewBox="0 0 800 600" style="enable-background:new 0 0 800 600;" xml:space="preserve">
<style type="text/css">
	.st0{fill:none;stroke:#0000A2;stroke-width:0.8913;stroke-miterlimit:10;}
	.st1{fill:#0000A2;}
	.st2{font-family:'creamfont-2.1-Regular-B5pc-H';}
	.st3{font-size:49.674px;}
</style>
<path class="st0" d="M481.4,457.3H369.4c-20.2,0-36.6-16.4-36.6-36.6v0c0-20.2,16.4-36.6,36.6-36.6h111.9
	c20.2,0,36.6,16.4,36.6,36.6v0C518,440.9,501.6,457.3,481.4,457.3z"/>
<path class="st0" d="M277.7,457.3H95.7c-20.2,0-36.6-16.4-36.6-36.6v0c0-20.2,16.4-36.6,36.6-36.6h181.9c20.2,0,36.6,16.4,36.6,36.6
	v0C314.3,440.9,297.9,457.3,277.7,457.3z"/>
<path class="st0" d="M427.1,351.8H322.2c-20.2,0-36.6-16.4-36.6-36.6v0c0-20.2,16.4-36.6,36.6-36.6h104.8
	c20.2,0,36.6,16.4,36.6,36.6v0C463.7,335.4,447.3,351.8,427.1,351.8z"/>
<path class="st0" d="M355.1,248.7H250.3c-20.2,0-36.6-16.4-36.6-36.6v0c0-20.2,16.4-36.6,36.6-36.6h104.8
	c20.2,0,36.6,16.4,36.6,36.6v0C391.8,232.3,375.4,248.7,355.1,248.7z"/>
<path class="st0" d="M240,357.8H57.8c-20.2,0-36.6-16.4-36.6-36.6v0c0-20.2,16.4-36.6,36.6-36.6H240c20.2,0,36.6,16.4,36.6,36.6v0
	C276.7,341.4,260.3,357.8,240,357.8z"/>
<text transform="matrix(1 0 0 1 315.7142 329.2129)" class="st1 st2 st3">React</text>
<path class="st0" d="M629.6,351.8H524.7c-20.2,0-36.6-16.4-36.6-36.6v0c0-20.2,16.4-36.6,36.6-36.6h104.8
	c20.2,0,36.6,16.4,36.6,36.6v0C666.2,335.4,649.8,351.8,629.6,351.8z"/>
<text transform="matrix(1 0 0 1 518.1986 329.2129)" class="st1 st2 st3">React</text>
<text transform="matrix(1 0 0 1 260.3109 229.2422)" class="st1 st2 st3">Vue</text>
<path class="st0" d="M548.1,248.7H443.3c-20.2,0-36.6-16.4-36.6-36.6v0c0-20.2,16.4-36.6,36.6-36.6h104.8
	c20.2,0,36.6,16.4,36.6,36.6v0C584.8,232.3,568.4,248.7,548.1,248.7z"/>
<text transform="matrix(1 0 0 1 453.3246 229.2422)" class="st1 st2 st3">Vue</text>
<path class="st0" d="M169.4,248.7H64.6c-20.2,0-36.6-16.4-36.6-36.6v0c0-20.2,16.4-36.6,36.6-36.6h104.8c20.2,0,36.6,16.4,36.6,36.6
	v0C206.1,232.3,189.7,248.7,169.4,248.7z"/>
<text transform="matrix(1 0 0 1 74.5902 229.2422)" class="st1 st2 st3">Vite</text>
<text transform="matrix(1 0 0 1 369.4212 436.001)" class="st1 st2 st3">Astro</text>
<path class="st0" d="M722.2,457.3H610.2c-20.2,0-36.6-16.4-36.6-36.6v0c0-20.2,16.4-36.6,36.6-36.6h111.9
	c20.2,0,36.6,16.4,36.6,36.6v0C758.8,440.9,742.4,457.3,722.2,457.3z"/>
<text transform="matrix(1 0 0 1 610.2289 436.001)" class="st1 st2 st3">Astro</text>
<text transform="matrix(1 0 0 1 95.7162 440.6318)" class="st1 st2 st3">Webpack</text>
<text transform="matrix(1 0 0 1 43.8744 338.9297)" class="st1 st2 st3">Front-End</text>
</svg>
