<?xml version="1.0" encoding="utf-8"?>
<!-- Generator: Adobe Illustrator 26.3.1, SVG Export Plug-In . SVG Version: 6.00 Build 0)  -->
<svg version="1.1" id="圖層_1" xmlns="http://www.w3.org/2000/svg" xmlns:xlink="http://www.w3.org/1999/xlink" x="0px" y="0px"
	 viewBox="0 0 800 600" style="enable-background:new 0 0 800 600;" xml:space="preserve">
<style type="text/css">
	.st0{fill:#D9A78F;}
	.st1{fill:#945A48;}
	.st2{fill:#FFE9DE;}
	.st3{fill:#48607A;}
	.st4{fill:#1F2F44;}
	.st5{fill:#F0C9B6;}
	.st6{fill:#E25E44;}
	.st7{fill:#FD9C55;}
	.st8{fill:#C77438;}
</style>
<g>
	<path class="st0" d="M467.4,369.6c-2.7,5.2-182.2-12.9-185.9-9.8c-8.2,21.6-38.9,103.1-38.8,103.1c27.1,0.4,200.8-0.4,203.7-0.4
		c0.1,0,0.1,0,0.1-0.1c1.8-6.2,28.2-91.5,27.3-91.6C471.2,370.3,467.6,369.6,467.4,369.6z"/>
	<path class="st1" d="M659.8,369.7c-2.3,5.2-189-12.9-192.4-9.8c-6.3,21.5-30,102.7-29.9,102.7c27,0.4,206.4-0.3,209.3-0.3
		c0.1,0,0.1,0,0.1-0.1c1.3-6.2,20.4-91.1,19.5-91.3C663.6,370.5,660,369.7,659.8,369.7z"/>
	<path class="st2" d="M648,456.9c0,0.1-0.1,0.1-0.1,0.1c-2.8,0-164,0.7-199.8,0.4c-1.3,0-2.5,0-3.5,0c0,0,3-10.3,7.1-24.5
		c7.5-25.7,18.8-64.3,22.9-78.2c3.4-3.1,184.1,14.9,186.3,9.8c0.2,0,3.9,0.7,6.5,1.2C668.4,365.8,649.3,450.7,648,456.9z"/>
	<path class="st3" d="M634,211.4c-1.5-2.8-4.2-4.7-7.3-5.4c-3.3-0.7-6.8-0.3-10.1,0.5c-3.4,0.8-6.7,2-9.9,3.2
		c-6.5,2.6-12.7,6.1-18.5,10.1c-5.9,4.1-11.4,8.7-16.5,13.7c-3.1,3-6,6-8.8,9.2c0.2-2,0.4-4,0.7-6.1c0-0.1-0.2-0.1-0.2,0
		c-0.2,2.1-0.5,4.2-0.7,6.3c-1.9,2.1-3.7,4.2-5.5,6.4c-1.1,1.3-2.2,2.7-3.3,4.1c-0.1,0.1,0.1,0.2,0.2,0.1c2.8-3.5,5.7-6.9,8.6-10.2
		c-0.9,8.4-1.7,16.8-2.3,25.2c-0.8,10.6-1.4,21.1-1.8,31.7c-0.2,6-0.4,12-0.5,18.1c0,0.1,0.1,0.2,0.2,0.1c5.8-6.3,11.6-12.7,17.4-19
		c5.7-6.3,11.4-12.6,16.9-19c5.6-6.5,11.2-13,16.7-19.6c5.4-6.6,10.8-13.3,15.9-20.1c4.5-5.9,9.6-12.4,10.6-20
		C635.8,217.4,635.5,214.1,634,211.4z"/>
	<path class="st4" d="M459.4,436.8c-1.2-1.9-3.2-3.7-5.5-4c0-0.1,0-0.2-0.1-0.2c-0.7-0.1-1.4,0-2.1,0.2c-4.1,14.2-7.1,24.5-7.1,24.5
		c1,0,2.1,0,3.5,0c1.1-0.4,2.2-0.9,3.2-1.5c2.3-1.3,4.5-2.9,6.2-4.9C460.8,447.1,462.2,441.3,459.4,436.8z"/>
	<path class="st1" d="M672.2,346.3c-1.6,10.6-19.6,90.1-19.7,90.1c-2.9,0-174.7,0.8-201.7,0.4c-0.1,0,16.1-60,25-90.5H672.2z"/>
	<path class="st1" d="M484.3,346.8c-3.2,10.6-32.4,89.8-32.5,89.8c-2.9,0-174.8,0.8-201.8,0.4c-0.1,0,24.6-59.8,37.9-90.3H484.3z"/>
	<path class="st3" d="M632.6,159.2c-0.1-0.1-0.1-0.2-0.2-0.2c-1.2-1.7-3-3-5.4-3.4c-1.9-0.3-3.8,0-5.7,0.5c-1.7,0.5-3.4,1-5.1,1.7
		c-1.9,0.7-3.8,1.5-5.6,2.4c-0.1,0-0.2,0.1-0.3,0.1c-1.2,0.6-2.3,1.2-3.5,1.9c-4.8,2.7-9.2,6-13.3,9.7c-0.1,0.1-0.2,0.1-0.2,0.2
		c-1,0.9-2,1.8-3,2.7c-5.2,4.9-9.9,10.3-14.3,15.9c-0.1,0.1-0.2,0.2-0.3,0.3c-4.6,5.8-8.9,11.7-13.1,17.7
		c-4.1,5.7-8.1,11.4-12.1,17.1c-2-3.9-2.9-8.5-0.9-12.6c2.2-4.7,7.9-8.7,13.1-6c0.2,0.1,0.3-0.2,0.1-0.2c-4-2.1-8.6-0.2-11.4,3.1
		c-1.5,1.7-2.5,3.7-3,5.9c-0.5,2.4-0.1,5,0.6,7.3c0.3,1,0.8,2,1.2,2.9c-1,1.5-2.1,3-3.1,4.5c-1.2,1.7-2.4,3.5-3.6,5.2
		c-9.5-7.1-20-13-31-17.4c-1.2-0.5-2.4-1-3.7-1.4c1.2-0.4,2.2-1.2,3.1-2.3c1.6-2.1,2.9-4.4,4.2-6.7c6-9.6,12-19.3,18-28.9
		c0.3-0.5,0.6-0.9,0.9-1.4c2.5-4,5.1-8,7.4-12.1c2.4-4.3,4.4-8.8,5.3-13.6c0.7-3.9,0.7-8.1-1.1-11.8c-0.8-1.6-1.9-3-3.4-3.9
		c-1.9-1.2-4.2-1.3-6.4-1.1c-9.1,0.8-17.9,3.7-26,7.8c-8.2,4.2-15.7,9.7-22.4,15.9c-5.6,5.2-10.6,11-15.3,17.1
		c-1.4,1.8-2.7,3.6-4,5.4c-5.9,8.3-11.2,17.1-16.4,25.9c-1.1,1.8-2.1,3.6-3.2,5.4c-0.4,0.2-0.8,0.4-1.2,0.6v-4.7
		c0-0.2-0.3-0.2-0.3,0v4.8c-0.5,0.2-1,0.3-1.3,0.7c-0.1,0.1,0.1,0.3,0.2,0.2c0.3-0.3,0.7-0.5,1.1-0.7v1.9c-2.6-0.5-5.1-1.3-7.1-3
		c-1.3-1.1-2.3-2.5-2.8-4.1c0-0.2-0.3-0.1-0.3,0.1c1.4,4.6,5.6,6.5,10.2,7.3v1.9c0,0.2,0.3,0.2,0.3,0V216c2.7,0.5,5.5,0.6,7.8,0.6
		c11.3,0.2,22.7,0.4,34,0.6c2.8,0.1,5.6,0.1,8.4,0.2c2.7,0,5.5,0.3,8.3,0.1c0.6,0,1.1-0.1,1.6-0.3c9.4,3.4,18.4,7.9,26.8,13.3
		c2.8,1.8,5.6,3.7,8.3,5.7c0.1,0,0.1,0,0.2,0c2.2-3.2,4.4-6.5,6.7-9.7c2,3.7,5,6.9,8.2,9.6c4.5,3.9,9.5,7.4,14.8,10.3
		c3,1.7,6,3.2,9.2,4.5c1.3,0.6,3,1,4,2.1c0,0,0,0,0,0c-0.6,1-1.1,2-1.6,3c0,0.1,0,0.1,0,0.2c0.7,0.4,1.5,0.1,1.9-0.5
		c0.6-0.7,0.7-1.6,0.3-2.4c-0.1-0.2-0.2-0.3-0.3-0.4c0.3-0.6,0.7-1.2,1-1.8c3.2-5.8,6.4-11.5,9.8-17.2c4.4-7.3,8.9-14.6,13.7-21.7
		c2.3-3.5,4.7-7,7.1-10.5c0.2-0.3,0.4-0.5,0.5-0.8c0.1-0.1,0.1-0.2,0.2-0.3c2.1-3,4.2-5.9,6.3-8.9c2.2-3.3,4.4-6.8,6.1-10.5
		c0-0.1,0.1-0.2,0.1-0.3c1.4-3.1,2.4-6.2,2.8-9.6C635.2,167.7,634.8,162.6,632.6,159.2z M587.2,255.2c-0.3,0.6-1,1.2-1.7,0.8
		c0.5-0.9,1-1.9,1.5-2.8C587.5,253.8,587.6,254.5,587.2,255.2z"/>
	<path class="st4" d="M628,181.2c1.3,0,2.7-0.1,4-0.2c0,0.1-0.1,0.2-0.1,0.3c-2.6,0.2-5.3,0.3-7.9,0.3c-2.5,0-5.1,0.1-7.5-0.6
		c-1-0.3-1.9-0.8-2.7-1.5c-4.7,5.3-9.2,10.8-13.6,16.3c0.4,0.5,0.9,1,1.5,1.4c1.4,0.8,2.9,1.3,4.4,1.8c1.6,0.5,3.2,0.8,4.8,1.1
		c2.8,0.4,5.6,0.7,8.5,0.7c-0.1,0.1-0.1,0.2-0.2,0.3c-4-0.1-7.9-0.5-11.8-1.4c-1.5-0.4-3.1-0.9-4.5-1.5c-1.1-0.5-2.2-1.1-3-2.1
		c-0.2,0.3-0.4,0.5-0.6,0.8c-7.9,10-15.3,20.3-22.3,30.9c-0.1,0.1-0.3,0-0.2-0.1c3.9-6,8-11.8,12.2-17.6c3.5-4.8,7.1-9.5,10.8-14.2
		c-0.8-1.2-1.1-2.8-1.4-4.2c-0.4-1.7-0.9-3.5-1.3-5.2l-3.6-14.3c0.1-0.1,0.2-0.1,0.2-0.2c1.4,5.4,2.8,10.8,4.1,16.2
		c0.4,1.7,0.8,3.4,1.3,5.1c0.2,0.8,0.5,1.6,0.9,2.3c4.1-5.1,8.3-10.2,12.6-15.1c0.3-0.4,0.7-0.7,1-1.1c-0.6-0.6-1.1-1.4-1.4-2.4
		c-0.4-1.3-0.4-2.7-0.6-4c-0.2-1.5-0.3-3.1-0.5-4.6c-0.3-2.6-0.5-5.2-0.8-7.8c0.1,0,0.2-0.1,0.3-0.1l1,9.6c0.1,1.5,0.3,3,0.4,4.5
		c0.1,1.4,0.3,2.8,1.1,3.9c0.2,0.3,0.4,0.5,0.6,0.7c6-6.9,12.3-13.6,18.7-20.1c0.1,0.1,0.1,0.2,0.2,0.2c-2.9,2.9-5.8,5.9-8.6,8.9
		c-3.4,3.6-6.8,7.3-10.1,11.1c1.4,1.3,3.5,1.7,5.4,1.9C622.2,181.3,625.1,181.3,628,181.2z"/>
	<path class="st4" d="M635.1,278.1c-0.9-2.8-2.9-4.6-5.8-5.2c-2.9-0.6-6.1-0.1-9,0.5c-13,2.9-23.4,13-31.9,22.7
		c-8.8,10-16.2,21.3-21.8,33.4c-1.1-5.5-2.2-11-3.3-16.5c-0.1-0.3-0.5-0.2-0.4,0.1c1.1,5.7,2.2,11.4,3.3,17.1
		c-0.1,0.3-0.2,0.5-0.3,0.7c-0.7,1.5-1.3,3-1.9,4.4c-0.1,0.2,0.3,0.4,0.4,0.1c0.6-1.5,1.3-3.1,2-4.6c0.9,4.7,1.9,9.5,3,14.2
		c1.1,4.9,2.6,9.7,4.8,14.2c2.3,4.6,5.1,9,7.4,13.6c1.2,2.4,2.2,5,2.9,7.6c-0.1,0.2-0.2,0.4-0.3,0.5c-0.1,0.2,0.2,0.4,0.4,0.2
		c0-0.1,0.1-0.1,0.1-0.2c0.7,2.9,1,6,0.5,9c0,0.3,0.4,0.4,0.4,0.1c0.5-3.3,0.2-6.5-0.6-9.6c7.9-13.9,15.8-27.9,23.6-41.8
		c4-7.1,8-14.2,12-21.2c3.8-6.7,8-13.4,11.3-20.4c1.5-3.1,2.7-6.4,3.4-9.9C635.7,284.3,636,281,635.1,278.1z"/>
	<path class="st4" d="M637.5,343.7c-2.3,5.2-3.1,8.7-5.7,13.7c-3.1,5.9,2.1,11.7-1.5,17.4c-1.8,2.8-140.9,3.2-153.1,0.6
		c-8-1.7-16.1-2.9-24.2-4c-9.2-1.3-18.3-2.5-27.5-3.4c-18.4-1.8-36.8-1.7-55.2,0.3c-13.2,1.4-99.2,18.4-102.6,21.4
		c-6.3,21.5-16.1,47.6-16,47.6c27,0.4,370-0.9,372.9-0.9c0.1,0,0.1,0,0.1-0.1c1.3-6.2,3.8-21.3,7.3-37.3
		c5.2-23.3,11.6-48.5,12.2-50.8c0.9-3.6,0.8-3.1-0.1-3.2C641.4,344.4,637.7,343.7,637.5,343.7z"/>
	<path class="st2" d="M643.6,354.6c-1,3.6-2,7.2-3,10.9c-1.9,7.2-3.7,14.5-5.4,21.8c-2.6,11-4.9,22-7.2,33c0,0.1,0,0.2-0.1,0.3
		c-0.7,3.6-1.5,7.1-2.2,10.7c0,0.1-0.1,0.1-0.1,0.1c-2.2,0-18.7-0.3-36-0.4c-0.4,0-0.8,0-1.3,0c-4.6,0-8.5,0-11.2,0
		c-14.2,0.1-28.4,0.3-42.6,0.4c-14.2,0.1-28.4,0.3-42.6,0.4c0,0-33.3,0.6-57.6,1c-8.7,0.1-16.2,0.2-20.6,0.3c-0.5,0-0.9,0-1.3,0
		c-26.4,0.2-52.8,0.3-79.2,0.2c-11.3,0-22.5-0.1-33.8-0.2c-15.3-0.1-30.5-0.3-45.8-0.6c-0.1,0-0.2,0.1-0.1,0c1.2-4.3,1.9-8,2.3-11.5
		c0-0.1,0-0.2,0-0.3c0.4-3.8,0.5-7.3,0.5-10.9c0-0.1,0-0.2,0-0.3c0-1,0-1.9,0-2.9c0-0.1,0-0.2,0-0.3c-0.1-3.4-0.2-7-0.1-11.1
		c-0.6,0.2,5.5-2.6,5-2.5c-0.2,0.1-0.2-0.2-0.1-0.3c0.6-0.2,1.2-0.4,1.7-0.6c0-0.3,0-0.6,0-0.9c0-0.2,0.3-0.2,0.3,0
		c0,0.3,0,0.6,0,0.8c1.4-0.5,2.9-1,4.3-1.4c15.4-5.1,30.8-9.8,46.5-13.9c1.9-0.5,3.9-1,5.9-1.5c17.3-4.3,34.9-7.8,52.6-9.6
		c18-1.9,36.1-2.1,54.2-0.3c9,0.9,18.1,2.1,27.1,3.3c8,1.1,15.9,2.3,23.8,3.9c12,2.5,23.9,6.1,34.8,11.8c8.5,0.8,16.9,2.1,25.4,3.1
		c7,0.9,13.9,1.6,20.9,1.6c7,0.1,13.9-0.4,20.9-0.5c6.9,0,13.7,0.4,20.4,2.3c3.3,0.9,6.6,1.8,10,0.8c2.7-0.8-3.5-2.6-1.6-4.7
		c2.1-2.1,32.4-55.6,36.6-68.1c0.1-0.2,0.3-0.1,0.3,0.1v0c0.1,0,0.1,0.1,0.1,0.1c-0.3,4.2-0.5,8.4-0.4,12.7
		c0.1,4.2,0.6,8.4,0.6,12.6C645.2,347.7,644.5,351.2,643.6,354.6z"/>
	<path class="st5" d="M366.7,383.7c-3.2,0.5-6.4,0.8-9.6,0.8c0,0,0.1,0,0.1-0.1c2.2-0.9,4.5-1.6,6.8-2.1c0.2,0,0.1-0.3,0-0.3
		c-2.6,0.5-5.2,1.4-7.6,2.4c-8.1-0.1-16.2-1.6-24.1-3.5c-6.2-1.5-12.4-3.2-18.6-4.5c-15.6,4.1-31.1,8.9-46.5,13.9
		c-1.4,0.5-2.9,1-4.3,1.4c0-0.3,0-0.6,0-0.8c0-0.2-0.3-0.2-0.3,0c0,0.3,0,0.6,0,0.9c-0.6,0.2-1.2,0.4-1.7,0.6
		c-0.2,0.1-0.1,0.3,0.1,0.3c0.6-0.2-5.5,2.6-5,2.5c-0.1,4.1,0,7.7,0.1,11.1c0,0.1,0,0.2,0,0.3c0,1,0,2,0,2.9c0,0.1,0,0.2,0,0.3
		c0,3.6-0.1,7.1-0.5,10.9c0,0.1,0,0.2,0,0.3c-0.4,3.5-1.1,7.2-2.3,11.5c0,0.1,0,0,0.1,0c15.3,0.2,30.5,0.4,45.8,0.6
		c0.6-0.6,1.1-1.2,1.7-1.8c1.7-1.9,3.3-3.8,5.2-5.5c1.9-1.7,4-3.2,6.3-4.5c4.6-2.6,10.1-3.5,14.4-6.6c4-2.8,6.4-7.2,9-11.2
		c5.1-7.8,12-14.8,20.6-18.6c0.7,0,1.4,0,2.2,0c2.7-0.1,5.4-0.3,8.1-0.8C366.8,383.9,366.8,383.6,366.7,383.7z"/>
	<path class="st3" d="M644.9,318.1c-1.6,6.6-19.6,77.5-23.6,88.3c0,0.1,0,0.2-0.1,0.2c-1.7-0.4-91.5-18.8-94.5-19.2
		c-0.1,0-0.2,0-0.3,0c-4.8-0.7-9.7-1.4-14.5-2.1c-1.8-0.3-3.7-0.5-5.5-0.8c-0.1,0-0.2,0-0.3,0c-4.2-0.6-8.5-1.2-12.7-1.7
		c-0.2,0-0.5-0.1-0.7-0.1c-12.5-1.6-25.9-2.3-37.5,3.8c-10.2,5.4-17.5,14.7-24.3,23.8c-0.2,0.3-0.5,0.6-0.7,0.9c0,0-0.1,0.1-0.1,0.1
		c0,0.1-1.2-1.9-1.7-2.8c-5.1-8.8-14.4-14.4-24-17.1c-11.7-3.3-24.2-3.1-36.3-3.3c-12.5-0.2-25-0.3-37.5,0.1
		c-12.4,0.3-24.9,1-37.3,2.1c-12.5,1.2-25,2.8-37.4,5.1c-0.1,0-0.2-0.1-0.1-0.2c4.4-8.4,44.8-75,45.9-76.9c0.5-0.9,1-1.8,1.5-2.7
		c0.4-0.7,0.7-1.4,1.3-2c1.1-1.3,2.7-1,4.2-0.8c2.1,0.3,57-8.3,79.4-7.6c40.4,1.3,83.4-9.6,123.8-7.5
		c36.3,1.9,126.5,18.6,133.1,20.2C644.9,318,644.9,318,644.9,318.1z"/>
	<path class="st3" d="M612.6,307.6c0-0.1-0.1-0.2-0.1-0.2c-0.5-0.8-1.1-1.6-1.8-2.3c-1-0.9-2-1.5-3.2-1.7c-0.1,0-0.2,0-0.3-0.1
		c-0.8-0.2-1.6-0.2-2.4-0.1c0,0,0,0,0-0.1c0-0.1,0.1-0.2,0.1-0.3c0.3-1.3,0.6-2.6,0.9-3.8c0.8-3.6,1.5-7.6,0.1-11.1
		c-1.2-3.1-4-5.2-7.1-6.2c-7.3-2.2-14.9,2-20.4,6.4c-5.9,4.7-10.5,10.7-14.2,17.3c-4.2,7.5-7.1,15.5-9.9,23.6
		c-0.3,0.8-0.5,1.5-0.8,2.3h55.7c0.5-0.8,0.7-1.9,1-2.8l0.5-1.7c0-0.1,0.1-0.2,0.1-0.3c0.3-1.1,0.7-2.3,1.1-3.4
		c0.7-2.4,1.5-5,1.9-7.6c0-0.1,0-0.2,0-0.3C614,312.5,613.8,309.9,612.6,307.6z"/>
	<path class="st4" d="M604.8,302.8c0,0.1,0,0.2-0.1,0.3c-1.4,0.4-2.8,0.9-4.2,1.6c-0.5,0.3-1,0.5-1.4,0.8c-0.1,0-0.2,0.1-0.2,0.1
		c-3,1.9-5.3,4.6-7.3,7.5c-0.1,0.1-0.1,0.1-0.1,0.2c-1.7,2.6-3,5.4-4.1,8.2c-0.1,0.4-0.3,0.7-0.4,1.1c0,0.1-0.1,0.2-0.1,0.3
		c-1.1,2.7-2.1,5.5-3.1,8.3h-0.3c0.6-1.6,1.2-3.2,1.7-4.8c2.3-6.4,4.9-13.1,9.8-18c1.1-1.2,2.4-2.2,3.8-3.1c0,0,0.1-0.1,0.1-0.1h0
		C600.8,304.2,602.8,303.3,604.8,302.8z"/>
	<path class="st4" d="M595.9,243.5c0,0.2-1.7,13.5-4.1,32.3c-3.3,26.4-8.1,63.6-11.5,89.5c-20.9-4.3-40.4-8.2-41.8-8.4
		c-0.1,0-0.2,0-0.3,0c-4.8-0.7-9.7-1.4-14.5-2.1c-1.8-0.3-3.7-0.5-5.5-0.8c-0.1,0-0.2,0-0.3,0c-4.2-0.6-8.5-1.2-12.7-1.7
		c-0.2,0-0.5-0.1-0.7-0.1c-12.5-1.6-25.6-1.7-37.5,3.8c-15.1,7-24.1,26.7-24.2,26.5c-0.4-0.6-2.2-3.7-2.6-4.4
		c-5.1-8.8-14.4-14.4-24-17.1c-11.7-3.3-24.2-3.1-36.3-3.3c-12.5-0.2-25-0.3-37.5,0.1c-6.5,0.2-13,0.4-19.5,0.8
		c3.4-22.9,7.9-53.7,11.4-77.8c2.1-14.6,3.9-26.7,4.9-33.1c0,0,0,0,0,0l0,0c0-0.1,35.5-56.5,52.1-81c0.1-0.1,0.2-0.3,0.4-0.4
		c0,0,0,0,0.1-0.1c0,0,0,0,0,0c0,0,0,0,0,0c0.1,0,0.1,0,0.2,0h0.2c0.1,0,0.1,0,0.2,0h0c0,0,0.1,0,0.1,0c5.3,0.1,186.7,3.3,186.7,3.3
		c0,0,0,0,0,0c0,0,0.9,4,2.3,10.1c0,0.1,0,0.2,0.1,0.3c0.7,3,1.5,6.6,2.4,10.4c0,0.1,0,0.2,0.1,0.3c0.7,3.2,1.5,6.6,2.3,10.1
		c0,0.1,0,0.2,0.1,0.3c0.8,3.5,1.6,7,2.4,10.4c0,0.1,0,0.2,0.1,0.3c0.7,3.2,1.5,6.4,2.2,9.5c0,0.1,0,0.2,0.1,0.3
		c0.9,3.8,1.7,7.3,2.4,10.4c0,0.1,0,0.2,0.1,0.3C594.9,238.8,595.9,243.5,595.9,243.5z"/>
	<path class="st3" d="M490.5,174.7c0-0.1-0.2-0.1-0.2-0.1c-2.9,3.4-5.8,6.8-8.6,10.2c-6.4,7.7-12.6,15.4-18.7,23.2
		c-8.7,11.3-17.2,22.8-25.2,34.4c-0.3,0.4-0.5,0.8-0.8,1.2c-0.1,0.1-0.2,0.2-0.2,0.3c0.4,0,0.7,0,1.1,0c14.4,0.1,28.9,0.1,43.3,0.2
		c0-0.1,0-0.2,0.1-0.4c2.2-14.2,4.4-28.4,6.2-42.7c0.7-5.4,1.4-10.7,2-16.1C489.8,181.6,490.2,178.2,490.5,174.7z"/>
	<path class="st3" d="M573.8,178c0-0.1-0.2-0.1-0.2-0.1c-2.9,3.4-5.8,6.8-8.6,10.2c-6.4,7.6-12.6,15.3-18.6,23.1
		c-8.3,10.7-16.3,21.6-24,32.7c-0.1,0.1-0.2,0.2-0.2,0.4c14.3,0,28.6,0.1,42.8,0c0-0.1,0-0.4,0-0.5c2-13.1,4-26.2,5.7-39.4
		c0.7-5.3,1.4-10.7,2-16C573.1,184.9,573.5,181.5,573.8,178z"/>
	<path class="st6" d="M480.7,276.9L480.7,276.9l-6.8-0.1l-2,0l-7.8-0.1c0,0,0,0,0,0c0,0,0,0,0,0c0,0,0,0,0,0c0,0,0,0,0,0
		c0,0,0,0,0,0l0,0c0,0,0,0,0,0.1c-1.4,5.8-2.9,11.5-4.5,17.2c-0.5,1.6-0.9,3.3-1.4,4.9c0,0,0,0.1,0,0.1c0,0,0,0,0,0h0c0,0,0,0,0,0
		l7.9,0.1l2,0l6.7,0.1c0,0,0,0,0,0h0c0,0,0,0,0,0c0,0,0,0,0.1-0.1c1.6-5.7,3.2-11.5,4.7-17.3C479.9,280.3,480.4,278.6,480.7,276.9
		C480.8,276.9,480.7,276.9,480.7,276.9z"/>
	<path class="st6" d="M551.5,277.1C551.5,277.1,551.5,277.1,551.5,277.1l-6.9-0.1l-2,0l-7.7-0.1h0c0,0,0,0,0,0c0,0,0,0,0,0
		c0,0,0,0,0,0c0,0,0,0,0,0c0,0,0,0,0,0c0,0,0,0,0,0.1c-1.4,5.8-2.9,11.5-4.5,17.2c-0.5,1.6-0.9,3.3-1.4,4.9c0,0,0,0.1,0,0.1
		c0,0,0,0,0,0c0,0,0,0,0,0s0,0,0,0l7.7,0.1l2,0l6.9,0.1c0,0,0,0,0,0s0,0,0,0h0c0,0,0,0,0.1-0.1c1.6-5.7,3.2-11.5,4.7-17.3
		C550.7,280.5,551.1,278.8,551.5,277.1C551.5,277.1,551.5,277.1,551.5,277.1z"/>
	<path class="st3" d="M572.5,358.8c1-2.2,1.8-4.5,2.5-6.9c0.1-0.8,0.2-1.6,0.3-2.3c0-0.4,0-0.7,0-1.1c0-0.1,0-0.2,0-0.3
		c0-1.2,0-2.5,0-3.7c-0.1-3-0.5-6.3-2.2-8.9c-0.2-0.3-0.4-0.6-0.7-0.9c-0.1-0.1-0.1-0.1-0.2-0.2c-1.7-1.8-4.1-2.7-6.6-2.8h0
		c-0.1,0-0.2,0-0.3,0c-1.8-0.1-3.5,0.3-5.1,0.9c-0.1,0-0.2,0.1-0.3,0.1c-1.4,0.5-2.8,1.2-4,2c-2.9,1.8-5.5,4-7.8,6.6
		c-0.1,0.1-0.1,0.1-0.2,0.2c-1.9,2.2-3.6,4.5-5.1,7c-1.2,1.9-2.2,3.9-3.1,6c0,0.1-0.1,0.2-0.1,0.3c-2.2,4.8-3.9,9.8-5.5,14.8h32.3
		C568.6,366,570.8,362.5,572.5,358.8z"/>
	<path class="st4" d="M601.4,320.7c-1.1,3.2-2.2,6.4-3.3,9.7h0c0.7,0,1.4-0.2,2.1-0.4c2.6-0.7,5.1-1.6,7.7-2.5c1-0.3,1.9-0.6,2.9-1
		c0,0.1-0.1,0.2-0.1,0.3c-0.8,0.3-1.5,0.5-2.3,0.8c-2.1,0.7-4.2,1.4-6.4,2.1c-1.2,0.4-2.6,1-3.9,0.9l-0.2,0.7h-0.3
		c0.1-0.2,0.2-0.5,0.2-0.7c-0.4-0.1-0.7-0.2-1-0.4c-3.5-2.1-6.8-4.6-9.8-7.2c0,0-0.1-0.1-0.1-0.1c-0.1-0.1,0.1-0.3,0.2-0.2
		c0,0,0,0,0,0c1.9,1.7,4,3.3,6.1,4.8c1.1,0.8,2.2,1.5,3.3,2.2c0.5,0.3,0.9,0.6,1.5,0.7c1.1-3.2,2.2-6.5,3.3-9.7
		c-0.5-0.1-1-0.4-1.4-0.8c-0.9-0.7-1.8-1.4-2.7-2.1c-1.8-1.5-3.7-2.9-5.5-4.4c0,0-0.1-0.1-0.1-0.1c-0.1-0.1,0.1-0.3,0.2-0.2
		c0,0,0.1,0.1,0.1,0.1c2,1.5,3.9,3.1,5.9,4.6c0.9,0.7,1.8,1.5,2.7,2.1c0.3,0.2,0.7,0.4,1,0.5c1-3,2.1-6,3.1-9
		c-1.9-1.9-3.7-3.8-5.4-5.7c0,0-0.1-0.1-0.1-0.1c0-0.1,0-0.1,0-0.2c0,0,0.1-0.1,0.1-0.1h0c0,0,0.1,0,0.1,0c0,0,0.1,0.1,0.1,0.1
		c1.3,1.5,2.7,3,4.1,4.4c0.4,0.4,0.7,0.7,1.1,1.1c0,0,0.1,0.1,0.1,0.1c0.9-2.6,1.8-5.2,2.7-7.8c0.1,0,0.2,0,0.3,0.1
		c-0.8,2.3-1.6,4.5-2.3,6.8c-0.1,0.4-0.3,0.8-0.4,1.2c0.1,0,0.2,0,0.3,0c0.2-0.1,0.5-0.3,0.7-0.4c0.9-0.5,1.9-1,2.8-1.5
		c1.3-0.7,2.6-1.4,3.9-2.1c0,0.1,0.1,0.2,0.1,0.2c-2.6,1.4-5.2,2.7-7.8,4.1c-0.1,0-0.1,0-0.2,0c0,0,0,0-0.1-0.1c-1,3-2,5.9-3,8.8
		c0.6,0.1,1.3,0,2-0.3c2.1-0.8,4.1-2,6.1-3c1.4-0.7,2.7-1.3,4.1-2c0,0.1,0,0.2,0,0.3c-1.9,1-3.9,1.9-5.8,2.9
		c-1.1,0.5-2.2,1.1-3.2,1.6c-0.8,0.4-1.7,0.8-2.6,0.9C601.8,320.8,601.6,320.8,601.4,320.7z"/>
	<path class="st4" d="M462.6,335.5c-2.7,6.6-5.4,13.1-8.1,19.7c-4.8,11.6-9.7,23.1-14.7,34.6c-2.5,5.8-5,11.6-7.5,17.4
		c-0.5,1-0.9,2.1-1.4,3.1c-0.2,0.3-0.5,0.6-0.7,0.9c0.6-1.3,1.1-2.6,1.7-3.8c1.3-2.9,2.6-5.9,3.8-8.8c4.6-10.5,9.1-21,13.5-31.6
		c4.4-10.5,8.8-21.1,13.1-31.6C462.4,335.2,462.6,335.3,462.6,335.5z"/>
	<path class="st5" d="M415.9,428.1c-2.1-1.2-4.2-2.5-6.2-3.8c-4-2.6-8-5.2-12.3-7.4c-4.4-2.2-9.1-3.8-14-4.4
		c-5.1-0.7-10.3-0.5-15.4,0.1c-5.9,0.7-11.8,2-17.6,3.3c-0.2,0-0.1,0.3,0.1,0.3c9.4-2.1,19-4.2,28.7-3.8c4.7,0.2,9.4,1.1,13.7,2.8
		c4.2,1.6,8.1,3.9,11.8,6.2c2.1,1.3,4.2,2.7,6.3,4c1.1,0.7,2.1,1.3,3.2,2c0.5,0.3,1,0.6,1.5,0.9c0.5,0.3,1.5,0.6,1.5,1.2
		c0-0.2-0.3-0.1-0.3,0.1c0,0.3,0.5,0.3,0.6,0C417.8,428.9,416.2,428.3,415.9,428.1z"/>
	<path class="st4" d="M471.9,276.8c-1.9,7.5-3.8,14.9-5.8,22.3l2,0c2-7.4,4-14.9,5.9-22.3L471.9,276.8z"/>
	<path class="st4" d="M542.5,277c-1.9,7.5-3.9,14.9-5.9,22.3l2,0c2-7.4,4-14.9,5.9-22.3L542.5,277z"/>
	<path class="st3" d="M412.9,243.7c-1.7,8.7-3.3,17.4-4.9,26.2c-2.8,15.7-5.5,31.4-7.9,47.1c-1.1,6.8-2.9,19.3-4.7,32.5
		c-0.1,0-0.2,0-0.4,0c0.7-5.3,1.4-9.7,1.7-12c2.3-15.7,4.8-31.5,7.4-47.1c2.6-15.6,5.5-31.2,8.5-46.7
		C412.6,243.4,412.9,243.5,412.9,243.7z"/>
	<path class="st3" d="M412.9,243.9c-0.1,0-0.2,0.1-0.3,0.1c-3.9-14.1-8.9-31.9-10.4-37.6c-3.6-13.5-7.1-27-10.4-40.6h0.1
		c0.1,0,0.1,0,0.2,0c1.7,6.8,3.4,13.6,5.2,20.4C400.2,197.6,407.6,224.4,412.9,243.9z"/>
	<path class="st3" d="M595.9,243.9c0,0.1,0,0.2,0,0.3c-5.2,0-14,0-19.2,0c-11.3,0.1-22.7,0.1-34,0.2c-7.2,0-14.5,0-21.7,0
		c-3.7,0-7.4,0-11.1,0c-6.7,0-13.4,0-20.2,0c-11.4,0-22.8-0.1-34.2-0.1c-9.7-0.1-19.4-0.1-29.1-0.2c-4.6,0-9.1-0.1-13.7-0.1
		c0-0.1,0-0.2,0-0.3c8.1,0.1,16.2,0.2,24.3,0.2c5.9,0,11.9,0.1,17.8,0.1c11.7,0.1,23.3,0.1,35,0.1c7.4,0,14.9,0,22.3,0
		c2.8,0,5.6,0,8.4,0c7.5,0,15,0,22.4-0.1c11.3,0,22.6-0.1,33.9-0.2C581.9,244,590.7,244,595.9,243.9z"/>
	<g>
		<path class="st3" d="M581.4,179.6c-5.4,0-12.6-0.1-17.2-0.1c-11.7,0-23.4,0-35-0.1c-7.5,0-14.9-0.1-22.4-0.1
			c-3.8,0-7.6-0.1-11.4-0.1c-6.9-0.1-13.8-0.1-20.8-0.2c-11.8-0.1-23.5-0.2-35.2-0.4c-10-0.1-20-0.3-29.9-0.4
			c-4.7-0.1-9.4-0.2-14.1-0.2c0-0.1,0-0.2,0-0.3c8.3,0.1,16.6,0.3,25,0.4c6.1,0.1,12.2,0.2,18.3,0.3c12,0.2,24,0.3,36,0.4
			c7.7,0.1,15.3,0.1,23,0.2c2.9,0,5.7,0,8.6,0.1c7.7,0.1,15.4,0.1,23.1,0.1c11.6,0,23.2,0.1,34.9,0.1c4.5,0,11.7,0.1,17,0.1
			C581.3,179.4,581.4,179.5,581.4,179.6z"/>
		<path class="st3" d="M583.8,190.3c-5.3,0-12.4-0.1-16.9-0.1c-11.7,0-23.4,0-35-0.1c-7.5,0-14.9-0.1-22.4-0.1
			c-3.8,0-7.6-0.1-11.4-0.1c-6.9-0.1-13.8-0.1-20.8-0.2c-11.8-0.1-23.5-0.2-35.2-0.4c-10-0.1-20-0.3-29.9-0.4
			c-4.7-0.1-9.4-0.2-14.1-0.2c0-0.1,0-0.2,0-0.3c8.3,0.1,16.6,0.3,25,0.4c6.1,0.1,12.2,0.2,18.3,0.3c12,0.2,24,0.3,36,0.4
			c7.7,0.1,15.3,0.1,23,0.2c2.9,0,5.7,0,8.6,0.1c7.7,0.1,15.4,0.1,23.1,0.1c11.6,0.1,23.2,0.1,34.9,0.1c4.4,0,11.4,0.1,16.7,0.1
			C583.8,190.1,583.8,190.2,583.8,190.3z"/>
		<path class="st3" d="M586.2,200.7c-5.3,0-12.1-0.1-16.4-0.1c-11.7,0-23.4,0-35-0.1c-7.5,0-14.9-0.1-22.4-0.1
			c-3.8,0-7.6-0.1-11.4-0.1c-6.9-0.1-13.8-0.1-20.8-0.2c-11.8-0.1-23.5-0.2-35.2-0.4c-10-0.1-20-0.3-29.9-0.4
			c-4.7-0.1-9.4-0.2-14.1-0.2c0-0.1,0-0.2,0-0.3c8.3,0.1,16.6,0.3,25,0.4c6.1,0.1,12.2,0.2,18.3,0.3c12,0.2,24,0.3,36,0.4
			c7.7,0.1,15.3,0.1,23,0.2c2.9,0,5.7,0,8.6,0.1c7.7,0.1,15.4,0.1,23.1,0.1c11.6,0,23.2,0.1,34.9,0.1c4.3,0,11.1,0.1,16.3,0.1
			C586.1,200.5,586.2,200.6,586.2,200.7z"/>
		<path class="st3" d="M588.6,211.4c-5.2,0-11.8-0.1-16.1-0.1c-11.7,0-23.4,0-35-0.1c-7.5,0-14.9-0.1-22.4-0.1
			c-3.8,0-7.6-0.1-11.4-0.1c-6.9-0.1-13.8-0.1-20.8-0.2c-11.8-0.1-23.5-0.2-35.2-0.4c-10-0.1-20-0.3-29.9-0.4
			c-4.7-0.1-9.4-0.2-14.1-0.2c0-0.1,0-0.2,0-0.3c8.3,0.1,16.6,0.3,25,0.4c6.1,0.1,12.2,0.2,18.3,0.3c12,0.2,24,0.3,36,0.4
			c7.7,0.1,15.3,0.1,23,0.2c2.9,0,5.7,0,8.6,0.1c7.7,0.1,15.4,0.1,23.1,0.1c11.6,0.1,23.2,0.1,34.9,0.1c4.3,0,10.8,0.1,16,0.1
			C588.6,211.2,588.6,211.3,588.6,211.4z"/>
		<path class="st3" d="M590.8,221.1c-5.1,0-11.5-0.1-15.6-0.1c-11.7,0-23.4,0-35-0.1c-7.5,0-14.9-0.1-22.4-0.1
			c-3.8,0-7.6-0.1-11.4-0.1c-6.9-0.1-13.8-0.1-20.8-0.2c-11.8-0.1-23.5-0.2-35.2-0.4c-10-0.1-20-0.3-29.9-0.4
			c-4.7-0.1-9.4-0.2-14.1-0.2c0-0.1,0-0.2,0-0.3c8.3,0.1,16.6,0.3,25,0.4c6.1,0.1,12.2,0.2,18.3,0.3c12,0.2,24,0.3,36,0.4
			c7.7,0.1,15.3,0.1,23,0.2c2.9,0,5.8,0,8.6,0.1c7.7,0.1,15.4,0.1,23.1,0.1c11.6,0.1,23.2,0.1,34.9,0.1c4.1,0,10.4,0.1,15.5,0.1
			C590.8,220.9,590.8,221,590.8,221.1z"/>
		<path class="st3" d="M593.3,231.9c-5.1,0-11.2-0.1-15.3-0.1c-11.7,0-23.4,0-35-0.1c-7.5,0-14.9-0.1-22.4-0.1
			c-3.8,0-7.6-0.1-11.4-0.1c-6.9-0.1-13.8-0.1-20.8-0.2c-11.8-0.1-23.5-0.2-35.2-0.4c-10-0.1-20-0.3-29.9-0.4
			c-4.7-0.1-9.4-0.2-14.1-0.2c0-0.1,0-0.2,0-0.3c8.3,0.1,16.6,0.3,25,0.4c6.1,0.1,12.2,0.2,18.3,0.3c12,0.2,24,0.3,36,0.4
			c7.7,0.1,15.3,0.1,23,0.2c2.9,0,5.8,0,8.6,0.1c7.7,0.1,15.4,0.1,23.1,0.1c11.6,0,23.2,0.1,34.9,0.1c4,0,10.1,0.1,15.2,0.1
			C593.2,231.7,593.3,231.8,593.3,231.9z"/>
	</g>
	<path class="st4" d="M558.1,353.2c-1.5,4.5-3,9-4.4,13.6c1,0.1,1.9-0.2,2.8-0.5c4-1,8.1-2.1,12.1-3.2c0.7-0.2,1.5-0.4,2.2-0.6
		c0,0,0.1,0,0.1,0l0,0c0,0,0,0.1-0.1,0.1c0,0.1,0,0.1-0.1,0.2c0,0-0.1,0-0.1,0c-1.5,0.4-2.9,0.8-4.4,1.2c-2.1,0.6-4.1,1.1-6.2,1.6
		c-1.1,0.3-2.2,0.6-3.3,0.9c-0.9,0.2-1.8,0.5-2.8,0.6c-0.2,0-0.3,0-0.5,0c-0.3,0.8-0.5,1.7-0.8,2.5h-0.3c0.3-0.8,0.5-1.7,0.8-2.5
		c-1.3-0.3-2.3-1.3-3.3-2.2c-1.6-1.6-3.2-3.1-4.8-4.7c-1.9-1.8-3.7-3.6-5.6-5.4c0-0.1,0.1-0.2,0.1-0.3c2.1,2.1,4.3,4.1,6.4,6.2
		c1.5,1.5,3,3,4.6,4.4c0.7,0.7,1.5,1.4,2.4,1.6c0.1,0,0.2,0,0.3,0.1c0.3-0.8,0.5-1.6,0.8-2.4c1.2-3.8,2.4-7.5,3.7-11.3
		c0,0-0.1,0-0.2-0.1c-1.5-0.7-2.4-2.2-3.4-3.5l-3.8-4.9l-2.5-3.2c0.1-0.1,0.1-0.1,0.2-0.2c0.8,1,1.6,2.1,2.4,3.1
		c1.1,1.4,2.2,2.8,3.3,4.2c1,1.3,2,2.9,3.3,3.8c0.3,0.2,0.5,0.3,0.8,0.4c1.8-5.4,3.7-10.7,5.6-16c-0.3-0.2-0.6-0.4-0.9-0.7
		c-1-1.1-1.8-2.3-2.6-3.4c0.1,0,0.2-0.1,0.3-0.1c0.1,0.1,0.1,0.2,0.2,0.3c0.5,0.6,1,1.3,1.4,1.9c0.5,0.6,0.9,1.3,1.6,1.7
		c0.1,0,0.1,0.1,0.2,0.1c0.6-1.6,1.2-3.2,1.8-4.9c0.1,0,0.2,0,0.3,0c-0.6,1.6-1.2,3.3-1.8,4.9c1.1,0.4,2.4,0.1,3.5-0.3
		c1.7-0.6,3.3-1.2,5-1.8c0.1,0.1,0.1,0.1,0.2,0.2c-1.1,0.4-2.2,0.8-3.3,1.2c-1.2,0.4-2.4,1-3.7,1.1c-0.6,0.1-1.2,0-1.7-0.2
		c-1.9,5.3-3.8,10.6-5.6,16c1.3,0.4,2.7,0.1,4-0.3c1.7-0.5,3.4-1.1,5-1.6l8.2-2.7c0,0.1,0,0.2,0,0.3c-2.4,0.8-4.8,1.6-7.2,2.3
		c-1.9,0.6-3.9,1.3-5.8,1.9C561.1,353.2,559.5,353.7,558.1,353.2z"/>
	<path class="st5" d="M628,420.4c0,0.1,0,0.2-0.1,0.3l-74.1-15.3c-15.6-2.9-31.1-6-46.8-8.5c-14.1-2.2-29.3-4.6-43.2,0
		c-13,4.3-22.4,14.8-31.2,24.8c-0.1,0.1-0.3-0.1-0.2-0.2c1.1-1.2,2.2-2.5,3.3-3.7c4.4-4.9,9-9.7,14.3-13.7
		c5.4-4.1,11.4-7.1,18.1-8.6c14.1-3.2,29-0.5,43,1.8c15.8,2.6,31.5,5.4,47.2,8.6c15.9,3.3,29.8,6.3,45.6,9.5
		C614.2,417.5,618.2,418.3,628,420.4z"/>
	<path class="st5" d="M427.4,425.5c-8.3-10.5-17.1-21.4-29.9-26.3c-13.7-5.3-28.9-3.8-43.2-2.3c-15.7,1.7-31.4,4-47.1,6l-51,6.8
		c0-0.1,0-0.2,0-0.3c15.5-2.1,31.1-4.1,46.6-6.2c15.9-2.1,31.7-4.4,47.6-6.2c14.1-1.6,29.1-3.5,43,0.4c6.5,1.8,12.4,5.1,17.6,9.5
		c5.1,4.3,9.4,9.3,13.5,14.4c1,1.3,2.1,2.6,3.1,3.9C427.7,425.5,427.5,425.6,427.4,425.5z"/>
	<path class="st5" d="M515.3,415.6c-15-3.6-31-7.1-46-1.5c-4.3,1.6-8.5,3.5-12.8,5.3c-0.2,0.1-0.1,0.3,0.1,0.3
		c7.2-3,14.4-6.6,22.3-7.7c7.7-1.1,15.6-0.3,23.3,1.1c4.4,0.8,8.7,1.9,13.1,2.9C515.4,415.9,515.4,415.6,515.3,415.6z"/>
	<path class="st4" d="M435.4,420.1c-0.5-1.1-1.4-1.8-2.5-2.2c-2.5-1-5.4-0.3-7.7,0.9c-2.7,1.4-4.9,3.6-6.6,6
		c-1.9,2.5-3.4,5.4-4.9,8.1c4.5,0,12-0.2,20.6-0.3c1-2.5,1.6-5.2,1.7-8C436,423.2,436.1,421.5,435.4,420.1z"/>
	<path class="st5" d="M589.6,431c-0.4,0-0.8,0-1.3,0c-2.5-0.6-5-1.1-7.5-1.7c-16.2-3.5-32.4-6.6-48.7-9.4c-0.2,0-0.1-0.3,0.1-0.3
		c4.6,0.8,9.1,1.6,13.6,2.4C560.4,424.7,575,427.7,589.6,431z"/>
	<path class="st3" d="M367,377.5c5.7-0.2,11.3-0.1,17-0.3c4.8-0.2,9.5-0.4,14.3-0.3c0.2,0,0.3,0,0.5,0c1.4-3.5,2.9-6.9,4.3-10.4
		l3.6-8.7l0.1-0.3l7.8-18.7c0.1-0.1,0.1-0.3,0.2-0.4c0-0.1,0.1-0.2,0.1-0.3c1.8-4.2,3.7-8.4,5.2-12.7c0.8-2.3,1.4-4.6,1.5-7
		c0-0.1,0-0.2,0-0.3c0-1.4-0.1-2.9-0.6-4.3c-1-3.3-3.5-6.1-7.1-6.7c-0.3,0-0.5-0.1-0.8-0.1c-0.1,0-0.2,0-0.3,0
		c-3.5-0.3-7,1.2-10,2.9c-1.3,0.7-2.6,1.5-3.9,2.3c-0.1,0-0.2,0.1-0.2,0.1c-5.6,3.5-10.6,7.9-15.2,12.7c-0.1,0.1-0.2,0.2-0.3,0.3
		c-0.1,0.1-0.1,0.1-0.2,0.2c-5.1,5.4-9.5,11.5-13.4,17.8c-0.1,0.1-0.1,0.2-0.2,0.3c-0.4,0.6-0.8,1.3-1.2,1.9
		c-4.1,6.8-7.6,13.9-10.9,21.1c0,0.1-0.1,0.2-0.1,0.3c-0.6,1.2-1.1,2.4-1.7,3.6c-1.2,2.7-2.5,5.5-3.7,8.2
		C357.1,378,362,377.7,367,377.5z"/>
	<path class="st3" d="M447.7,337.1c-1.3-1.9-3.2-3-5.5-3.1c-2.7-0.1-5.3,1.2-7.7,2.4c-8.9,4.7-16.4,11.6-22.6,19.5
		c-6.3,8-11.3,17-15.5,26.3c0,0,0,0.1,0,0.1l27.8,13.2c0.2-0.3,6.9-13.8,7-14.1c0.8-1.4,1.5-2.8,2.2-4.2c1.5-2.8,3-5.7,4.5-8.6
		c3-5.7,5.9-11.4,8.7-17.2C448.7,347.1,450.7,341.6,447.7,337.1z"/>
	<path class="st4" d="M380.2,356.8c0.9,1,1.7,1.9,2.6,2.9c0.7,0.8,1.5,1.6,2.4,2.3c0.3,0.3,0.7,0.5,1.1,0.6
		c-2.3,4.9-4.6,9.8-6.8,14.8c0.1,0,0.2,0,0.3,0c0.8-1.7,1.5-3.4,2.3-5.1c1.5-3.2,3-6.4,4.4-9.6c0.5,0.2,1,0.3,1.6,0.2
		c1.3-0.1,2.5-0.5,3.7-0.9c2.7-0.8,5.4-1.5,8.2-2.3c2.2-0.6,4.5-1.2,6.7-1.8l0.1-0.3c-1.3,0.3-2.5,0.7-3.8,1
		c-2.6,0.7-5.3,1.5-7.9,2.2c-1.3,0.4-2.7,0.7-4,1.1c-1.3,0.4-2.8,0.9-4.2,0.6c-0.1,0-0.2-0.1-0.3-0.1c3.3-7,6.7-14,10.1-21
		c0.8,0.3,1.6,0.4,2.5,0.4c1.2,0,2.3-0.3,3.5-0.5c1.3-0.3,2.7-0.6,4-0.9c2.7-0.6,5.3-1.3,8-1.9c0.1,0,0.2,0,0.3-0.1
		c0-0.1,0.1-0.2,0.1-0.3c-4.3,1-8.5,2.1-12.8,3c-1.9,0.4-3.7,0.6-5.4,0c1.9-4,3.8-7.9,5.7-11.9c1-2.1,2-4.2,3.1-6.4
		c0.9,0.3,2,0,2.9-0.3c1.4-0.5,2.9-0.9,4.3-1.4c3-0.9,5.9-1.9,8.9-2.9c0-0.1,0-0.2,0-0.3c-2.2,0.7-4.4,1.4-6.6,2.1
		c-1.4,0.5-2.9,0.9-4.3,1.4c-1.3,0.4-2.7,1.1-4.1,1.2c-0.4,0-0.7,0-0.9-0.1c2.5-5.2,5.1-10.5,7.6-15.7c-0.1,0-0.2,0-0.3,0
		c-2.5,5.2-5,10.4-7.5,15.6c-0.9-0.5-1.3-1.6-1.8-2.5c-0.7-1.2-1.4-2.5-2.1-3.7c-0.8-1.4-1.7-2.9-2.6-4.3c-0.1,0-0.2,0.1-0.2,0.1
		c0.8,1.2,1.5,2.5,2.2,3.7c0.8,1.3,1.5,2.7,2.3,4c0.5,0.9,0.9,2.3,1.9,2.8c0,0,0,0,0,0c-2.9,6.1-5.9,12.2-8.8,18.2
		c-0.5-0.2-1-0.4-1.4-0.8c-1.8-1.3-3.1-3.2-4.4-5c-2.4-3.4-4.9-6.8-7.3-10.1c-0.1,0.1-0.1,0.1-0.2,0.2c2.1,3,4.3,5.9,6.4,8.9
		c1.8,2.5,3.8,5.8,6.8,7.1c-1.1,2.4-2.3,4.7-3.4,7.1c-2.2,4.6-4.5,9.3-6.7,13.9c-0.9-0.4-1.7-1.1-2.4-1.8c-0.8-0.9-1.7-1.7-2.5-2.6
		c-1.7-1.8-3.3-3.7-4.9-5.7c-2.4-2.9-4.6-5.9-6.8-9c-0.1,0.1-0.1,0.2-0.2,0.3c1.8,2.5,3.6,5,5.5,7.4
		C376.8,352.9,378.5,354.8,380.2,356.8z"/>
	<path class="st4" d="M365,374.3c1.1,1.1,2.3,2.2,3.4,3.2c0.1,0,0.3,0,0.4,0c-0.9-0.8-1.7-1.6-2.6-2.4c-2.9-2.8-5.8-5.7-8.5-8.6
		c0,0.1-0.1,0.2-0.1,0.3C360,369.3,362.5,371.8,365,374.3z"/>
	<g>
		<path class="st7" d="M329.9,386.8c-0.2-0.5-0.8-0.6-1.2-0.7c-0.3-0.1-0.7-0.1-1-0.2c-0.5-0.8-1.5-1.1-2.5-1.2
			c-0.9-0.5-2.4-0.4-3.2-0.3c-0.3,0.1-0.5,0.1-0.8,0.2c-0.9-0.5-1.9-0.7-2.9-0.6c-1.7,0.3-3.3,1.6-4.5,2.9c-0.5,0.4-3,3.1-3.5,3.4
			c-2.1,1.7-3.1,2.5-5.8,3.7c0.7,0.4,1.4,0.8,2.2,1.2c1.1,0.5,2.2,0.9,3.3,1.5c0,0,0,0,0.1,0c0.5-0.2,2.7-1.4,3.1-1.5
			c0.9-0.3,2.7-0.2,3.6-0.2c2.5,0,3.4-0.3,5.2-0.9c1.3-0.4,3.2-1.2,2.9-2.7c-0.2-1.1-3.2,0.3-4.8,0.7c-0.2-0.4-0.2-0.6,0.1-0.8
			c0.2-0.2,0.5-0.4,0.8-0.6c0.5-0.3,0.9-0.6,1.3-0.9c0.2-0.2,0.7-0.5,1-0.8c1.1-0.8,2.4-1.4,3.8-1.4c0.7,0,1.6,0.5,2.3,0.2
			C329.8,387.7,330.1,387.3,329.9,386.8z"/>
		<path class="st8" d="M312.4,395.3c-0.2-0.3-0.7-0.4-0.9-0.6c-0.6-0.4-1.2-0.7-1.9-1c-0.8-0.4-1.8-0.8-2.7-1
			c-1-0.1-1.9,0.4-2.9,0.7c-2.5,0.8-5-0.4-7.6-0.3c-1,0-2,0.3-2.9,0.6c-0.1,0-0.2,0.1-0.3,0.1c-0.1,0-0.2,0.1-0.3,0.1
			c-1.4,0.5-2.9,1-4.3,1.5c-0.2,0.1-0.1,0.3,0,0.3c-0.3,0.3-0.7,0.6-1.1,0.9c-0.5,0.4-1.1,0.6-1.5,1c-0.5,0.5-0.1,1.1,0.2,1.6
			c0.5,0.8,1.3,1.4,2.1,2c0.9,0.8,1.9,1.5,2.9,2.2c1.8,1.2,3.8,2.3,5.8,3.2c0.9,0.4,1.7,0.6,2.6,0.2c1.1-0.5,2.1-1.2,3.2-1.9
			c0,0,0,0,0.1,0c1-0.6,2-1.2,3-1.8c0.8-0.5,1.7-1,2.2-1.9c0.3-0.7,0.2-1.5,0.3-2.3c0-0.1,0-0.2,0.1-0.3c0.2-0.8,1.1-1.1,1.7-1.5
			c0.5-0.3,1.1-0.6,1.6-0.9C312,396.1,312.8,395.9,312.4,395.3z"/>
		<path class="st7" d="M303,368.8c-0.6-0.9-1.4-1.8-1.9-2.7c-0.2-0.1-0.3-0.2-0.5-0.3c0.1,0.1,0.1,0.1,0.2,0.2
			c-0.1-0.1-0.2-0.2-0.3-0.3l0,0c0,0,0,0,0,0.1c-0.3-0.1-0.7,0.1-0.9,0.4c-0.5,0.6-0.6,1.5-0.6,2.2c0.1,1.1,0.6,2.3,1,3.3
			c0.2,0.6,0.4,1.2,0.6,1.8c0.1,0.2,0.1,0.5,0.3,0.6c0.6,0.4,1.4-0.7,1.7-1c0.6-0.5,1.3-1,1.5-1.8
			C304.3,370.4,303.5,369.5,303,368.8z"/>
		<path class="st7" d="M291.3,384.8c-0.2-0.4-0.7-0.7-1-1c-0.6-0.5-1.2-1-1.8-1.5c-1.3-1.1-2.7-2.1-4-3.2c-0.7-0.5-1.4-1.1-2.1-1.6
			c-0.3-0.2-0.6-0.5-0.9-0.7c-0.1-0.1-0.2-0.2-0.3-0.3c0.4-0.5,0.7-1,1.1-1.5c0.1-0.1-0.1-0.3-0.2-0.2c-0.4,0.5-0.7,1-1.1,1.5
			c-0.3-0.2-0.5-0.3-0.3-0.7c-0.1,0.2,0.2,0.3,0.2,0.1c0.2-0.4-0.5-0.6-0.7-0.2c-0.1,0.3,0.1,0.5,0.3,0.7c0.1,0.1,0.2,0.2,0.3,0.3
			c-4.4,6.2-8.5,12.5-12.3,19.1c-0.1,0.1,0,0.2,0.1,0.2c3.1,0.6,6.1,1.1,9.2,1.7c1,0.2,2.4,0.7,3.3,0c0.5-0.3,0.8-0.8,1.2-1.3
			c0.5-0.6,1-1.2,1.5-1.8c2-2.3,4-4.7,6-7c0.5-0.5,0.9-1.1,1.4-1.6C291.3,385.5,291.4,385.2,291.3,384.8z"/>
		<path class="st8" d="M314.8,430.4c-0.4-0.7-0.8-1.3-1.2-2c-0.8,0.6-1.6,1.2-2.4,1.7c-0.8,0.6-1.6,1.3-2.5,1.8
			c-1.6,0.8-2.8-1.1-3.9-1.9c-3.2-2.5-7.3-3.6-11.3-3.6c-3.8-0.1-7.5,0.7-11.2,1.8c-0.1,0-0.2,0.1-0.3,0.1c-0.3,0.1-0.5,0.1-0.8,0.2
			c-3.9,1.2-7.8,2.6-11.5,4.1c-3.6,1.5-7.1,3.3-10.6,5.1c-3.4,1.7-6.8,2.9-10.6,3.2c-4.2,0.3-8.5,0.2-12.8,0.3
			c-4.2,0.1-8.4,0.2-12.6,0.2c-8.6,0.2-17.3,0.3-25.9,0.5c-0.1,0-0.1-0.1-0.2-0.1c-1.5-6.7-3-13.8-0.3-20.4c2.1-5,5.9-9,10-12.5
			c4.4-3.7,9.1-7.1,14-10c8.1-4.9,16.8-8.7,25.9-11.4c1.9-0.7,3.9-1.3,5.9-1.6c0.2,0,0.3-0.1,0.5-0.1c0.1,0,0.1,0,0.1,0
			c1.8-0.2,3.7-0.3,5.6-0.1c3.3,0.4,6.6,1.2,9.8,2c3.4,0.8,14.7,4.3,16.6,4.6c2.2,0.4,4.5,0.7,6.7,1.2c0.6,0.1,1.3,0.3,1.9,0.5
			c0,0,0,0,0,0c0.1,0,0.2,0.1,0.3,0.1c2.5,0.9,4.6,2.3,6.3,4.4c2.2,2.6,3.6,5.8,4.6,9c1.3,3.8,2.1,7.8,3.8,11.5
			c1.4,3.1,3.1,6,4.8,8.9c0,0,0.1-0.1,0.1-0.1c0.2-0.1,0.4,0.1,0.2,0.2c-0.1,0-0.1,0.1-0.2,0.1c0.4,0.7,0.8,1.3,1.2,2
			C315.2,430.5,314.9,430.6,314.8,430.4z"/>
		<path class="st7" d="M159.3,468.2c-11.6-1.8-23.2-3.1-34.9-3.9c-0.9-0.1-1.7-0.1-2.6-0.2c-0.6,0-0.7,0.4-1.1,1
			c-0.8,1.1-1.5,2.2-2.3,3.3c-0.1,0-0.2,0-0.4,0c-0.2,0-0.2,0.3,0,0.3c0,0,0.1,0,0.1,0c-0.1,0.2-0.2,0.3-0.4,0.5
			c-0.1,0.2,0.1,0.4,0.3,0.2c0.2-0.2,0.3-0.5,0.5-0.7c2.6,0.2,5.2,1.2,7.7,1.8c2.7,0.7,5.3,1.3,8,2c5.4,1.2,10.8,2.3,16.2,3.3
			c1.6,0.3,3.3,0.6,4.9,0.9c-0.7,1.6-1.4,3.3-2.2,4.9c-0.1,0.2,0.2,0.3,0.3,0.2c0.7-1.7,1.5-3.3,2.2-5c1.1,0.2,2.2,0.4,3.2,0.6
			c0,0.1,0,0.2,0.2,0.2c0.2,0,0.4-0.1,0.6-0.1c0.2,0,0.2-0.3,0-0.3c-1.3-0.2-2.6-0.5-3.9-0.7c1.2-2.7,2.4-5.4,3.6-8
			C159.4,468.3,159.4,468.2,159.3,468.2z"/>
		<path class="st7" d="M344.2,397.8c0.1-0.4,0.2-0.8,0.2-1.2c-0.1-0.8-0.4-1.6-1.2-1.6c0-0.4-0.1-0.7-0.3-1
			c-0.2-0.3-0.5-0.4-0.7-0.4c-0.7-0.2-1.3,0.1-1.8,0.7c0.1-0.2,0.1-0.3,0.2-0.5c0.3-0.8,0.3-2-0.7-2.3c-1.3-0.3-2.4,1.3-3,2.1
			c-0.2,0.2-2.6,3.1-3.1,3.6c0.5-1.8,1.3-3.4,2.3-5c0.4-0.6,1.1-1.8,0.7-2.6c-0.3-0.6-0.9-0.3-1.3,0c-0.8,0.6-1.5,1.6-2.1,2.5
			c-0.7,1.1-1.5,2.2-2,3.4c-1,2.3-0.5,5-0.8,7.5c-0.3,2.7-1.1,5.3-2.4,7.6c0,0,0,0,0,0c-0.1,0-0.2,0.1-0.1,0.2
			c-0.2,0.3-0.3,0.5-0.5,0.8c-0.1,0.2,0.1,0.4,0.3,0.2c0.2-0.3,0.3-0.6,0.5-0.8c2.1,0.3,4.1,1,6,2.1c0.1,0,0.2,0,0.2-0.1
			c1.3-2.3,1.1-3.5,2.7-5.5c0.8-0.5,5.7-4.1,6.7-5.1c0.8-0.8,1.8-1.8,1.8-3C345.7,398.3,345.1,397.9,344.2,397.8z"/>
		<path class="st4" d="M231.1,426.7c-1.1,3.7-2.5,7.4-3.7,11.1c-1.2,3.6-2.5,7.2-3.8,10.8c-2.7,7.3-5.4,14.6-8.3,21.8
			c-2.3,5.9-4.8,11.9-8.9,16.8c-3.4,4.1-9.2,8.8-15,6.7c-0.8-0.3-11.7-3.1-16.3-4.5c-4.9-1.5-9.7-3.3-14.5-5c-9.8-3.4-19.7-6.8-30-8
			c-0.1,0-0.2-0.2-0.1-0.2c1.4-3.2,2.9-6.3,4.3-9.5c1-2.3,2-4.6,3.3-6.8c0.1-0.1,0.1-0.2,0.2-0.3c0.1-0.2,0.2-0.3,0.3-0.5
			c1.2-1.8,2.8-4.9,4.8-5.8c2.1-1,4.4,0.4,6.7,0.7c5.3,0.6,10.3,2.8,15.7,2.6c5.7-0.2,11.3-1.8,16.9-0.6c1.8,0.4,3.6,1,5.3,1.7
			c0,0,0,0,0,0c0.6-3.8,1.3-7.7,1.9-11.5c0.6-3.6,1.2-7.1,2.2-10.6c1.4-5.1,3.5-9.9,6.6-14.1c5.9,0.5,11.8-0.2,17.7-0.6
			c2.7-0.2,5.7-0.5,8.3,0c2.2,0.5,4.3,1.2,6.4,1.6C231.8,423.8,231.5,425.3,231.1,426.7z"/>
		<path class="st4" d="M282.2,464.2c-0.5,4.1-3.3,7.6-6.7,9.7c-4,2.4-8.6,3.2-13.2,3.7c-11,1.2-22.2,0.1-33.2-0.8
			c-3.4-0.3-6.7-0.5-10.1-0.8c-1.9-0.1-3.8-0.3-5.7-0.4c-0.1,0-0.1,0-0.2,0c-0.1,0-0.1,0-0.2,0c-5.8-0.4-11.6-0.9-17.5-1.3
			c-0.1,0-0.2-0.1-0.1-0.3c2.9-5.7,5.9-11.4,8.8-17.2c5.2-10.2,10.4-20.3,15.6-30.5c0.6-1.3,1.3-2.5,1.9-3.8c0.4-0.8,0.9-1.6,1.7-2
			c0.8-0.5,1.7-0.3,2.5,0c1.3,0.4,2.7,0.8,4,1.1c5,1.3,10,2.2,15.1,2.8c0,0,0-0.1,0-0.1c0.1-0.2,0.3,0,0.3,0.1
			c0.4,0,0.7,0.1,1.1,0.1c0.2,0,0.2,0.2,0.1,0.3c-0.6,0.4-1.2,0.9-1.9,1.3c-0.2,0.6-0.2,1.1-0.3,1.7c-0.2,5.1,2.8,9.1,6.8,11.6
			c4.5,2.8,10.1,4.9,14.7,7.5c4,2.2,8.3,4.2,11.8,7.2C280.6,456.7,282.7,460.2,282.2,464.2z"/>
		<path class="st6" d="M244.8,425.7c0.1-0.3,0.2-0.6,0.4-0.9c0.3,0,0.5,0.1,0.8,0.1C245.6,425.1,245.2,425.4,244.8,425.7z"/>
		<path class="st7" d="M302.2,378.7c-0.5-5.8-0.9-11.7-1.5-17.4c-0.2-2.1-0.6-4.3-1.8-6.1c-1.2-1.8-3.1-2.7-5.2-3
			c-2.7-0.4-5.7,0.1-8.3,0.8c-2,0.5-4,1.3-5.8,2.2c0-0.1-0.1-0.1-0.2-0.1c-0.6,0.3-1.1,0.6-1.5,1c-0.2,0.1-0.4,0.2-0.6,0.4
			c-0.1,0.1-0.1,0.2,0,0.3c-2.2,2.6-2.4,6.9-2.3,10c0.2,5.4,1.9,10.5,3.5,15.5c0.8,2.5,1.6,5,2.1,7.6c-0.8,0.1-1.5,0.2-2.3,0.2
			c-0.2,0-0.2,0.3,0,0.3l2.4-0.3c0.1,0.3,0.1,0.7,0.2,1c0,0.2,0.3,0.1,0.3-0.1c-0.1-0.3-0.1-0.7-0.2-1l6.5-0.7
			c2.8-0.3,5.7-0.6,8.5-1.2c2.2-0.4,4.8-0.9,5.9-3.1C302.7,383.2,302.4,380.8,302.2,378.7z"/>
		<path class="st8" d="M335.7,417.6c-0.5-0.7-1-1.4-0.9-2.4c0.1-0.9,0.5-1.7,0.8-2.5c0.1-0.4,0.4-1.3,0.1-1.7
			c-0.1-0.2-0.5-0.2-0.7-0.3c-0.5-0.2-0.9-0.3-1.4-0.5c-2-0.6-4-1.2-6-1.6c-0.1,0-0.2,0.1-0.2,0.2c-0.1,0-0.1,0-0.1,0.1
			c-0.3,0.6-0.6,1.3-0.9,1.9c-0.3,0.6-0.6,1.5-1.3,1.9c-0.7,0.3-1.5,0.2-2.2,0.1c-0.5,0-1,0.1-1.5,0.2c-2.2,0.8-3.8,2.9-5.4,4.4
			c-2.7,2.4-4.5,3.1-8,4.1c-0.2-1.3-0.6-2.6-1.8-3.4c-0.9-0.6-2.1-0.8-3.1-0.9c-1.4-0.2-2.9-0.3-4.3-0.3c-5.6,0-11.2,1.4-16.5,3.1
			c-2.5,0.8-4.9,1.8-6.7,3.7c-0.1,0.1-0.1,0.2,0,0.3c3.1,1.8,6.2,3.7,9.1,5.8c2.9,2.1,5.5,4.5,8.3,6.7c2.7,2.1,5.6,4.1,8.5,5.8
			c2.8,1.7,5.7,3.6,9.1,3.3c3.1-0.2,6.3-1.3,9-2.7c2.8-1.4,5.1-3.4,7-5.8c2.1-2.6,4.1-5.3,5.9-8.1c1.9-2.8,2.4-4.4,3.7-7.5
			C336.7,420.2,336.6,419,335.7,417.6z"/>
		<path class="st4" d="M131.7,463.6c-1.7,0-3.4-0.2-5.1-0.6c-1.8-0.4-3.5-1.1-5.2-1.7c-1.1-0.4-2.2-0.5-3,0.4c-0.5,0.5-5.4,7.6-8,10
			c-2.7,2.6-6.1,5.1-6.9,9c-0.1,0.5-0.3,1.2,0.2,1.7c0.5,0.5,1.4,0.4,2,0.3c1.9-0.3,3.6-1.4,5.1-2.6c1.8-1.5,3.6-3,5.3-4.5
			c1.7-1.4,3.5-2.8,5.6-3.6c1.4-0.5,2.8-0.7,4.2-0.6c1,0.1,1.4,0.2,2-0.7c1.3-2.3,2.6-4.5,4-6.8
			C131.9,463.7,131.9,463.6,131.7,463.6z"/>
		<path class="st3" d="M239.4,448.8c-3.5,1.1-6.7,2.7-9.7,4.8c-2.6,1.8-5,3.9-7.2,6.2c-2.5,2.6-4.3,5.4-5.9,8.6
			c-1.2,2.3-2.2,4.7-3.2,7.2c-0.1,0-0.2,0-0.4,0c1.2-3,2.5-6,4-8.8c1.6-3.1,3.7-5.7,6.2-8.2c4.6-4.5,10-8.1,16.1-10.1
			C239.5,448.4,239.6,448.8,239.4,448.8z"/>
		<path class="st3" d="M203.4,425.1c-1.9,3.3-3.4,6.8-4.7,10.4c-1.2,3.4-2,6.9-2.9,10.4c-0.8,3.1-1.5,6.3-2.5,9.3
			c-0.9,2.7-1.9,5.5-3.7,7.8c-3.4,4.5-9.5,5.1-14.7,4.1c-3.2-0.6-6.3-1.7-9.5-2.5c-3.3-0.9-6.5-1.6-9.9-2.2
			c-5.8-1.1-11.7-1.8-17.5-2.5c0.1-0.1,0.1-0.2,0.2-0.3c6.3,0.7,12.5,1.5,18.7,2.7c3.3,0.6,6.5,1.4,9.7,2.3c3,0.9,6.1,1.9,9.2,2.4
			c2.9,0.5,6,0.4,8.7-0.6c2.9-1.1,4.9-3.2,6.3-5.9c2.9-5.6,4-12,5.5-18.1c1.5-6.1,3.6-11.9,6.7-17.4
			C203.2,424.7,203.5,424.9,203.4,425.1z"/>
		<path class="st8" d="M258.7,430.8c-0.5,2.3-1.2,4.9-2.7,6.7c-1.3,1.5-3.3,2.3-5.3,1.5c-1.1-0.5-1.9-1.2-2.8-2
			c-1.1-0.9-2.2-1.8-3.3-2.5c-4.3-3-9.2-5.1-14.2-6.5c-4.2-1.2-8.4-1.9-12.7-2.2c-0.2,0-0.4,0-0.6,0c-7.1-0.5-14.3,0-21.4,0.9
			c0,0,0,0,0,0c-0.1,0-0.2,0-0.3,0c0-0.1,0-0.1,0.1-0.2c0,0,0,0,0-0.1c0.2-0.5,0.3-0.9,0.5-1.3c2.1-4.6,6.1-7.9,10.2-10.6
			c2.3-1.5,4.7-3,7.1-4.3c2.4-1.3,4.9-2.3,7.5-3c5.3-1.4,11-2.7,16.5-1.8c5.1,0.9,9.8,3.4,13.8,6.5c1.2,1,2.4,2,3.5,3.1
			c0.1,0.1,0.2,0.2,0.3,0.3c2.1,2.2,3.7,4.8,4.2,7.9C259.4,425.8,259.2,428.4,258.7,430.8z"/>
		<path class="st1" d="M305.9,357.1c-0.8-1-1.9-1.7-2.9-2.4c-1.2-0.9-1.8-2.2-2.7-3.4c-1.1-1.4-3.2-1.7-3.9-1.6
			c-3.5,0.5-7.1-0.4-10.6,0c-2.4,0.2-5,1-6.6,3c-0.9,1-1.2,2.5-2.1,3.5c-0.6,0.6-1.5,0.8-2.3,1c-0.6,0.2-1.1,0.5-1.7,0.8
			c-2.2,1.3-3.9,3.3-4.9,5.7c-0.5,1.2-0.8,2.6-0.7,3.9c0.1,1.1,0.9,1.9,1.7,2.7c0.5,0.5,1,0.9,1.3,1.5c0.4,0.7,0.3,1.5,0.7,2.3
			c0.5,1.1,1.5,1.7,2.4,2.4c0.6,0.5,1.2,1,1.7,1.6c0.6,0.7,1.2,2.1,1.7,2.8c0.3,0.4,0.7,0.5,1.1,0.6c1,0.2,4.2,0.5,5.1,0.7
			c0.7,0.2,1.5,0.5,2.2,0.4c0.5,0,0.9-0.4,1.3-0.7c0.6-0.6,1.3-1.1,2-1.6c0.9-0.5,1.8-0.9,2.8-1.3c0.4-0.5,0.8-1,1-1.7
			c0.5-1.4,0.8-2.6,2-3.5c0.6-0.5,1.4-0.8,2-1.2c0.8-0.6,1.1-1.4,1.1-2.4c0.1-1.3,0.4-2.8,4.3-4.2c1.4-0.5,2.7-1.5,3.7-2.6
			C307.1,361.5,307.2,358.8,305.9,357.1z"/>
		<path class="st8" d="M326.9,385.6c-1.8-0.4-3.7,0-5.2,1.1c-0.2,0.1,0,0.4,0.2,0.3c1.4-1.1,3.2-1.5,4.9-1.1
			C327,386,327.1,385.7,326.9,385.6z"/>
		<path class="st8" d="M320.6,384.8c-0.6,0.2-1.2,0.4-1.8,0.7c-0.2,0.1,0,0.4,0.2,0.3c0.6-0.3,1.1-0.5,1.7-0.7
			C320.9,385.1,320.8,384.8,320.6,384.8z"/>
		<path class="st8" d="M340,394.4c-0.3,0.4-0.5,0.8-0.8,1.2c-0.1,0.2,0.2,0.4,0.3,0.2c0.2-0.4,0.5-0.8,0.8-1.2
			C340.4,394.4,340.1,394.2,340,394.4z"/>
		<path class="st8" d="M342.6,395.3c-0.4,0.6-0.8,1.1-1.3,1.6c-0.2,0.2,0.1,0.4,0.2,0.2c0.5-0.5,1-1.1,1.4-1.6
			C343,395.2,342.8,395.1,342.6,395.3z"/>
		<path class="st8" d="M343.7,397.8c-0.3,0.4-0.7,0.8-1.1,1.2c-0.1,0.2,0.1,0.4,0.2,0.2c0.4-0.4,0.7-0.8,1.1-1.2
			C344,397.9,343.8,397.6,343.7,397.8z"/>
		<path class="st4" d="M290.1,370.5c-2.8,0-5.3,1.1-8,1.8c-2.8,0.7-5.7,1-8.5,0.1c-0.2-0.1-0.3,0.3-0.1,0.3c2.6,0.9,5.2,0.7,7.8,0.1
			c2.9-0.6,5.7-2,8.8-2C290.3,370.8,290.3,370.5,290.1,370.5z"/>
		<path class="st4" d="M288.7,374.7c-2.4,2-5.5,2.8-8.5,2.2c-0.2,0-0.3,0.3-0.1,0.3c3.1,0.6,6.4-0.2,8.8-2.3
			C289.1,374.8,288.8,374.6,288.7,374.7z"/>
		<path class="st4" d="M312,424.3c-0.2-0.2-0.4,0.1-0.2,0.2c3.7,3.7,5.9,8.5,6.4,13.6c0,0.2,0.4,0.2,0.3,0
			C318,432.9,315.7,428,312,424.3z"/>
		<path class="st4" d="M294,394.4c-4-0.7-8.1,0.9-11.1,3.6c-5.7,5.3-6.2,13.9-4.2,21c0.9,3.2,2.2,6.2,3.8,9.1
			c-0.1,0-0.2,0.1-0.3,0.1c-0.1-0.1-0.1-0.2-0.2-0.3c-3.7-7-6.2-15.2-3.7-23c2.1-6.6,8.4-11.9,15.6-10.8c0,0,0,0,0,0
			c0.1,0,0.1,0,0.2,0c0.1,0,0.1,0,0.1,0.1C294.3,394.3,294.2,394.4,294,394.4z"/>
		<path class="st4" d="M277.4,412.5c-5.2,0.9-10.4,1.5-15.6,2.1c-2.3,0.3-4.6,0.5-7,0.8c-6.7,0.8-13.4,1.8-19.9,3.5
			c-4.2,1.1-8.4,2.5-12.4,4.4c-1.7,0.8-3.3,1.6-4.9,2.6c-0.2,0-0.4,0-0.6,0c2.1-1.3,4.3-2.4,6.6-3.4c9.8-4.4,20.3-6.1,30.9-7.3
			c7.6-0.9,15.3-1.6,22.8-2.9C277.5,412.1,277.6,412.5,277.4,412.5z"/>
		<path class="st8" d="M286.2,389.3c-2.6-1.4-6.3-2.3-9.2-3c-1.2-0.3-2.2-0.9-3.5-0.3c-0.6,0.3-1,0.9-1.5,1.4
			c-0.6,0.6-1.3,1.3-1.9,1.9c0,0,0,0,0,0c-0.1-0.2-0.4,0-0.3,0.2c0,0.1,0.1,0.1,0.1,0.2c0,0,0,0.1,0.1,0.1c1.5,2.1,3.8,2.8,6.4,3.3
			c1.6,0.3,3.2,0.5,4.8,0.6c0.8,0.1,1.6,0.1,2.4,0.2c0.7,0.1,1.7,0.3,2.4,0.2c0.3-0.1,0.4-0.2,0.5-0.4c0.4-0.6,0.6-1.4,0.9-2.1
			C287.8,390.2,287.1,389.8,286.2,389.3z"/>
	</g>
	<path class="st5" d="M608.4,448.6c-18.8,0.1-37.5,0.2-56.3,0.3c-18.8,0.1-37.5,0.1-56.3,0c-10.5,0-21.1-0.1-31.6-0.1
		c-0.2,0-0.2,0.3,0,0.3c18.8,0.1,37.5,0.1,56.3,0.1c18.8,0,37.5,0,56.3-0.1c10.5-0.1,21.1-0.1,31.6-0.2
		C608.6,448.9,608.6,448.6,608.4,448.6z"/>
</g>
</svg>
