<?xml version="1.0" encoding="utf-8"?>
<!-- Generator: Adobe Illustrator 26.3.1, SVG Export Plug-In . SVG Version: 6.00 Build 0)  -->
<svg version="1.1" id="圖層_1" xmlns="http://www.w3.org/2000/svg" xmlns:xlink="http://www.w3.org/1999/xlink" x="0px" y="0px"
	 viewBox="0 0 800 600" style="enable-background:new 0 0 800 600;" xml:space="preserve">
<style type="text/css">
	.st0{fill:#181818;}
	.st1{fill:#191919;}
	.st2{fill:#202020;}
	.st3{fill:#1D1D1D;}
	.st4{fill:#1F1F1F;}
	.st5{fill:#212121;}
	.st6{fill:#343434;}
	.st7{fill:#282828;}
	.st8{fill:#777777;}
	.st9{fill:#353535;}
	.st10{fill:#DADADA;}
	.st11{fill:#A9A9A9;}
	.st12{fill:#EBEBEB;}
	.st13{fill:#CCCCCC;}
	.st14{fill:#4D4D4D;}
	.st15{fill:#444444;}
	.st16{fill:#656565;}
	.st17{fill:#8C8C8C;}
	.st18{fill:#BFBFBF;}
	.st19{fill:#AAAAAA;}
	.st20{fill:#363636;}
	.st21{fill:#8A8A8A;}
	.st22{fill:#676767;}
	.st23{fill:#818181;}
	.st24{fill:#646464;}
	.st25{fill:#A7A7A7;}
	.st26{fill:#545454;}
	.st27{fill:#D1D1D1;}
	.st28{fill:#BCBCBC;}
	.st29{fill:#CACACA;}
	.st30{fill:#494949;}
	.st31{fill:#8F8F8F;}
	.st32{fill:#686868;}
	.st33{fill:#838383;}
	.st34{fill:#9C9C9C;}
	.st35{fill:#9F9F9F;}
	.st36{fill:#3B3B3B;}
	.st37{fill:#D2D2D2;}
	.st38{fill:#2A2A2A;}
	.st39{fill:#949494;}
	.st40{fill:#3C3C3C;}
	.st41{fill:#A4A4A4;}
	.st42{fill:#6B6B6B;}
	.st43{fill:#A5A5A5;}
	.st44{fill:#7D7D7D;}
	.st45{fill:#9A9A9A;}
	.st46{fill:#636363;}
	.st47{fill:#C1C1C1;}
	.st48{fill:#595959;}
	.st49{fill:#565656;}
	.st50{fill:#C0C0C0;}
	.st51{fill:#7C7C7C;}
	.st52{fill:#E8E8E8;}
	.st53{fill:#A6A6A6;}
	.st54{fill:#979797;}
	.st55{fill:#868686;}
	.st56{fill:#616161;}
	.st57{fill:#4B4B4B;}
	.st58{fill:#C6C6C6;}
	.st59{fill:#C3C3C3;}
	.st60{fill:#313131;}
	.st61{fill:#B3B3B3;}
	.st62{fill:#8E8E8E;}
	.st63{fill:#BEBEBE;}
	.st64{fill:#969696;}
	.st65{fill:#737373;}
	.st66{fill:#B2B2B2;}
	.st67{fill:#5B5B5B;}
	.st68{fill:#E7E7E7;}
	.st69{fill:#505050;}
	.st70{fill:#B6B6B6;}
	.st71{fill:#303030;}
	.st72{fill:#373737;}
	.st73{fill:#5C5C5C;}
	.st74{fill:#888888;}
	.st75{fill:#7E7E7E;}
	.st76{fill:#292929;}
	.st77{fill:#2E2E2E;}
	.st78{fill:#242424;}
	.st79{fill:#424242;}
	.st80{fill:#767676;}
	.st81{fill:#757575;}
	.st82{fill:#585858;}
	.st83{fill:#2D2D2D;}
	.st84{fill:#6A6A6A;}
	.st85{fill:#484848;}
	.st86{fill:#848484;}
	.st87{fill:#515151;}
	.st88{fill:#474747;}
	.st89{fill:#B7B7B7;}
	.st90{fill:#717171;}
	.st91{fill:#707070;}
	.st92{fill:#D9D9D9;}
	.st93{fill:#747474;}
	.st94{fill:#EEEEEE;}
	.st95{fill:#5E5E5E;}
	.st96{fill:#B4B4B4;}
	.st97{fill:#696969;}
	.st98{fill:#D0D0D0;}
	.st99{fill:#787878;}
	.st100{fill:#EDEDED;}
	.st101{fill:#BABABA;}
	.st102{fill:#606060;}
	.st103{fill:#8D8D8D;}
	.st104{fill:#E6E6E6;}
	.st105{fill:#797979;}
	.st106{fill:#909090;}
	.st107{fill:#828282;}
	.st108{fill:#626262;}
	.st109{fill:#B5B5B5;}
	.st110{fill:#808080;}
	.st111{fill:#BDBDBD;}
	.st112{fill:#383838;}
	.st113{fill:#9E9E9E;}
	.st114{fill:#989898;}
	.st115{fill:#9B9B9B;}
	.st116{fill:#3F3F3F;}
	.st117{fill:#D4D4D4;}
	.st118{fill:#ADADAD;}
	.st119{fill:#414141;}
	.st120{fill:#DDDDDD;}
	.st121{fill:#B8B8B8;}
	.st122{fill:#1A1A1A;}
	.st123{fill:#161616;}
	.st124{fill:#1B1B1B;}
	.st125{fill:#393939;}
	.st126{fill:#C8C8C8;}
	.st127{fill:#2B2B2B;}
	.st128{fill:#939393;}
	.st129{fill:#575757;}
	.st130{fill:#141414;}
	.st131{fill:#262626;}
	.st132{fill:#151515;}
	.st133{fill:#131313;}
	.st134{fill:#4F4F4F;}
	.st135{fill:#999999;}
	.st136{fill:#959595;}
	.st137{fill:#5A5A5A;}
	.st138{fill:#525252;}
	.st139{fill:#7F7F7F;}
	.st140{fill:#6F6F6F;}
	.st141{fill:#434343;}
</style>
<g>
	<g>
		<path class="st0" d="M382.6,268c-0.3-0.2-0.5-0.5-0.8-0.7c-1.3-1.9-2.5-3.7-3.8-5.6c-0.1-0.6-0.2-1.3-0.4-1.9
			c-0.7-5.6-1.4-11.3-2.1-16.9c0-0.3,0-0.5,0-0.8c1.1-1.5,2.9-2.8,3.3-4.4c0.9-4.1,3.9-5.1,7.2-6.1c-0.3,1.1-0.6,2.6,1.2,2.2
			c1.4-0.3,2.7-1.4,4-2.2c0.3,0,0.6-0.1,0.9-0.1c0.7,0.4,1.4,0.7,2.2,1.1c1.4,0.3,2.9,0.6,4.3,0.9c1,0,2,0,2.9,0c0.7,0,1.4,0,2.1,0
			c2-0.2,4.1-0.4,6.1-0.7c1,0.6,2,1.3,3,1.9c0.5,1,0.9,1.9,1.4,2.9c1.1,5.2,0.1,10.5-0.1,15.7c-0.3,2.9-1.6,5-4,6.7
			c-0.9,0.7-1.5,1.7-2.3,2.6c-0.3,0.1-0.5,0.1-0.8,0.1c-3.1,0.9-5.7,2.4-7.3,5.3l0.1-0.1C394,269.1,388.3,269,382.6,268z
			 M379.7,240.6c-0.4,0.2-0.8,0.5-1.1,0.7c-0.3,0.6-0.9,1.2-0.9,1.9c0,0.3,1.2,1.1,1.3,1c0.6-0.4,1.1-1,1.3-1.7
			C380.4,241.9,379.9,241.2,379.7,240.6z M396.1,251.8c-0.1-0.3-0.2-0.6-0.3-0.9c-1.1,0.4-2.1,0.8-3.2,1.3c0.1,0.3,0.2,0.5,0.3,0.8
			C393.9,252.6,395,252.2,396.1,251.8z"/>
		<path class="st1" d="M372.8,339.6c0,0.2-0.1,0.4-0.3,0.6c-3.7-1.5-3.7-1.5-6.1,3.2c-1,0.3-2.4,0.4-2.9,1.1c-1,1.4-1.6,3.2-2.4,4.8
			c-0.7,1.2-1.4,2.3-2.2,3.5c-0.3,0-0.6,0-0.9,0.1c-0.9,0.2-2.3,0-2.7,0.5c-1.6,2.2-2.9,4.7-4.2,7c-1.2,2.1-2.1,4.4-1.4,6.9
			c-0.3,0.4-0.5,0.8-0.8,1.1c-0.1,0.6-0.3,1.3-0.4,1.9c-3.5,4.4-7.1,8.8-10.6,13.2c-0.3,0.4-0.4,0.9-0.6,1.4c-2-1-4.1-2.1-6.1-3.1
			c0.3-1.7,0.6-3.5,0.9-5.2c0.3-0.7,0.5-1.4,0.8-2.1c1.3-1.6,3-3,3.7-4.8c1.6-3.8,2.6-7.7,3.9-11.6c1.7-3.4,4.3-6.6,4.9-10.1
			c0.8-4.6,2.3-8.5,5.3-12c2.4-4.1,4.7-8.2,7.1-12.3c1.8-0.2,2.9-0.7,3.4-3c0.4-2,2-4.3,3.7-5.2c3.7-1.9,5.5-5,6.8-8.6
			c0.4-1.3,1.1-2.4,1.7-3.5c2.5,0.5,4.7,1,6.9,1.5c-1.1,3-2,5.4-3,7.8c-1,2.3-2.2,4.4-3.7,7.5c5.6-2.1,4.8-8.1,9.3-10.5
			c-0.4,3.1-0.7,5.5-1,8c-0.3,0.7-0.7,1.4-1,2.1c-0.7,0.3-1.7,0.4-2,0.9c-1.5,2.4-2.8,4.9-4.2,7.4c-0.9,1.8-1.7,3.5-2.8,5.7
			c2.7,0.9,4.2,2.2,3.8,4.7C374.7,338.7,373.7,339.2,372.8,339.6z"/>
		<path class="st2" d="M480.3,330.2c0.7,1,1.4,2.1,2.1,3.1c1.1,1.8,2.2,3.6,3.2,5.4c1,2.6,2,5.3,3.1,7.9c2.4,3.7,4.4,7.8,7.3,11.2
			c2.2,2.7,4.4,5.1,5.2,8.6c0.4,1,0.8,2,1.2,3c-0.4,0.8-0.8,1.5-1.2,2.3c-0.9-0.2-1.9-0.5-3.6-0.9c0.9,1.5,1.4,2.1,1.8,2.8
			c-2.2-0.7-4.4-1.3-6.5-2.2c-1.4-0.6-2.7-1.6-4,0.2c-1.7-0.7-3.4-1.3-5.1-2l0,0c-4.9-5.6-6.4-12.8-8.3-19.6c-0.8-3-1.8-5.4-4.1-7.4
			c0.8-1.6,1.3-3.5,3.6-3.8c0.2,0,0.3-0.9,0.4-1.4c0.1-1.3,0.2-2.5,0.3-3.9c-2.5-0.8-4.1,0.1-5.4,1.8c-1.7,0.3-3.4,0.6-5.1,0.9
			c0.2-0.3,0.3-0.6,0.5-0.9c1-1.3,2-2.5,2.9-3.8c-1.6-0.8-3.2-1.6-4.8-2.3c-0.3-0.1-0.7,0-1.5,0.1c-0.9,4.4-5.5,4.7-8.6,7
			c-0.6-1.5-0.1-2.4,1.4-3.2c1.4-0.8,2.5-2.1,3.7-3.2c4.8-4.5,10.5-4.9,16.5-3.8c-0.1,1.6-0.3,3.2-0.5,5.6
			C476.9,331,478.6,330.6,480.3,330.2z M478.6,354c0.1,2.4,0.1,4.1,2.3,5.3C481.5,356.8,480.7,355.5,478.6,354z"/>
		<path class="st3" d="M453.4,397.4c1.7,3.8,4.5,7.4,2.7,12.7c-1.9-1.8-4-3.1-5.2-5c-8.3-12.8-16.4-25.8-24.5-38.7
			c0.3-1.1,0.7-2.1,1-3.2c0.4,0.3,0.8,0.6,1.2,0.9c1.1,1.8,2.6,2.9,5.2,3.4c0.7-3.8-1.1-6.5-2.2-9.5c-0.3-0.4-0.5-0.7-0.8-1.1
			c0.3-0.7,0.6-1.4,0.9-2.1c4-0.4,7.1-1.6,8.6-5.9c0.8-2.2,2.9-3.9,4.7-6.1c2.6,6.7,1.9,9.8-2.6,13.9c-3.6,3.3-3.6,3.6-0.4,7.4
			c1.7,2.6,3.9,5,3,8.6c-0.3,1.1,0.7,2.5,1.1,3.8c-0.8,1.9-3.2,3.5-1,5.8c0.1,0.7-0.1,1.6,0.2,2.2c1.6,2.6,3.3,5.1,4.9,7.7
			C451.3,394,452.4,395.7,453.4,397.4z"/>
		<path class="st4" d="M382,317.6c0.3-2.5,0.6-4.9,1-8c-4.5,2.4-3.7,8.4-9.3,10.5c1.5-3.1,2.7-5.3,3.7-7.5c1-2.4,1.9-4.8,3-7.8
			c-2.3-0.5-4.4-0.9-6.9-1.5c-0.5,1.1-1.2,2.3-1.7,3.5c-1.3,3.7-3,6.7-6.8,8.6c-1.7,0.9-3.3,3.3-3.7,5.2c-0.5,2.3-1.6,2.8-3.4,3
			c4.9-10.5,11.9-19.6,19.6-28.2c2.9-3.2,5.9-6.2,9.1-9.1c1.3-1.3,3.1-2.1,4.6-3.1c0.4,0.7,0.8,1.4,1.1,2.1
			c-0.7,1.4-1.4,2.8-2.1,4.2c-0.3,0.1-0.5,0.1-0.8,0.2c-2.7,2.4-3.8,5.5-3.8,9.3c1.8,0,3.2,0,4.7,0c-0.8,1.8-2.3,3.5-1.6,5.9
			c0.9-1.6,1.8-3.3,2.7-4.9c0.3,0,0.7,0,1,0c0,1,0.1,2.1,0.1,3.1c-0.4,1-0.8,1.9-1.2,2.9c-1,1.1-2,2.2-3,3.4
			C386.1,312.1,384.1,314.8,382,317.6z"/>
		<path class="st1" d="M471.1,342.4c2.4,1.9,3.3,4.4,4.1,7.4c1.9,6.8,3.4,14,8.3,19.6c-2.1,1.1-1,2.4-0.3,3.7
			c1.2,2.3,2.3,4.6,0.2,6.9c-0.3-0.4-0.6-0.8-1-1.2c-0.7-3.6-3.9-5.4-5.9-8.1c-3-4.1-5.8-8.5-8.6-12.8c-0.9-2.5-1.9-5-2.8-7.5
			c-0.6-1.9-1.5-3.1-3.6-1.9c-2.4-1.5-0.2-2.7,0.3-4c0.3-0.4,0.7-0.7,1-1.1c1-0.4,2.1-0.7,3.1-1.1
			C467.6,342.4,469.4,342.4,471.1,342.4z"/>
		<path class="st5" d="M307.4,350.5c-1-0.7-2-1.4-3-2.1c1-1.6,2.1-3.2,3.1-4.8c1.3-1.5,2.6-2.9,3.9-4.4c8.2-0.8,16.5-1.4,24.1,3.8
			c-0.1,0.6-0.4,1.9-0.6,3.2c-1.1,0.1-2,0.2-2.8,0.3c-3.2,0.4-6.7,0.1-9.6,1.3c-3.3,1.3-6.6,1.8-10,1.8
			C310.7,349.8,309.1,350.2,307.4,350.5z"/>
		<path class="st6" d="M330.4,312.3c5,6.5,9.9,12.9,14.9,19.4c0.3,0.4,0.4,0.9,0.6,1.4c-1.6,2-4,3.4-4.1,6.3c-0.1-0.3-0.2-0.7-0.3-1
			c-0.6-0.7-1.2-1.5-1.8-2.2c-0.1-0.6-0.2-1.3-0.3-1.9c-1.2-1.3-2.2-3.2-3.8-3.9c-2.8-1.2-4.6-3.3-6.3-5.6c-1.5-1.3-2.9-2.7-4.4-4
			c-2.2-0.3-3.3,1.2-4.3,2.8c-0.5,0-1.1,0-1.6,0.1c-0.1-0.3-0.1-0.6-0.2-0.9c2.1-3.1,4.3-6.2,6.4-9.4
			C326.6,311.1,328.3,310.9,330.4,312.3z"/>
		<path class="st7" d="M341.8,339.4c0.1-2.9,2.5-4.3,4.1-6.3c1.7,1,3.3,2,5,3c-3,3.5-4.5,7.4-5.3,12c-0.6,3.5-3.2,6.7-4.9,10.1
			c-0.1-0.4-0.1-0.9-0.2-1.3c1.2-2.8,2.4-5.5,3.7-8.7c-4.2-0.8-8.5-0.2-12.8,0.3c-5.9,0.8-11.9,1.8-17.8,2.4c-2,0.2-4.1-0.2-6.2-0.3
			c1.7-0.3,3.4-0.8,5-0.8c3.5-0.1,6.7-0.5,10-1.8c2.9-1.2,6.4-0.9,9.6-1.3c0.8-0.1,1.7-0.2,2.8-0.3c0.2-1.3,0.5-2.6,0.6-3.2
			c-7.6-5.2-15.9-4.6-24.1-3.8c-0.2-2.4,2.2-2.1,3.3-3c4.2-0.1,8.5,2,12.4-1c1-0.1,2-0.2,3-0.2c0.3,1.6-1.5,4.4,2.2,4.3
			c1.7,0.3,3.5,0.6,5.2,0.9C338.9,340,340.3,339.7,341.8,339.4z"/>
		<path class="st7" d="M442,364.2c-3.2-3.8-3.2-4.1,0.4-7.4c4.5-4.2,5.2-7.2,2.6-13.9c-1.8,2.2-3.9,3.9-4.7,6.1
			c-1.5,4.3-4.7,5.5-8.6,5.9c-0.1-0.4-0.1-0.9-0.2-1.3c1.7-2.4,3.4-4.7,5.1-7.1c0.1-0.6,0.3-1.2,0.4-1.9l0,0.1
			c4.1-3.3,8.3-6.4,12.2-9.9c2.8-2.5,5.8-4.1,9.4-5c-1.2,1.1-2.3,2.4-3.7,3.2c-1.5,0.8-2,1.7-1.4,3.2c-1.2,2.8-2.5,5.6-3.8,8.6
			c1.3,0.8,3,1.7,4.8,2.7c-2.4,2.1-4.8,4.3-7.1,6.4c-0.8,1-1.6,1.9-2.4,2.9c-0.9,0.6-1.9,1.3-3,2.1c1,1.2,1.7,2.1,2.4,2.9
			c0.9,1.8,1.9,3.6,2.8,5.5c-1.8,1.2-1.5-0.8-2-1.4C444.4,364.9,444.1,362.9,442,364.2z"/>
		<path class="st8" d="M307.5,343.7c-1,1.6-2.1,3.2-3.1,4.8c-0.3,0.1-0.6,0.3-1,0.4c-0.4-0.4-0.9-0.8-1.3-1.2c0-1,0-2.1,0-3.1
			c0.2-0.9,0.3-1.8,0.5-2.8c-0.8,0.3-1.6,0.6-2.4,0.9c-0.1-0.1-0.2-0.3-0.2-0.5c0.8-3,1.5-6,2.3-9c1.2-0.2,2.3-0.4,3.3-0.6
			c0.8-2,1.6-3.7,2-5.5c0.1-0.6-0.8-1.5-1.3-2.2c0-1,0-2,0.1-3.1l0,0c1.6-1.7,3.1-3.4,4.7-5c1.1,0.7,2.2,1.4,3.9,2.5
			c-0.4-5,2.5-6.7,5.9-7.8c-3.1,4.8-6.3,9.6-9.4,14.4c-0.5,0.4-1.3,0.7-1.6,1.3c-0.3,0.9-0.3,2-0.4,2.9c0,0.3,0,0.7,0,1
			c-0.8,1.4-1.5,2.8-2.3,4.3c-3.5,1.9-3.5,1.9-2.1,7.1C305.9,342.8,306.7,343.2,307.5,343.7z"/>
		<path class="st9" d="M488.7,371.4c1.3-1.8,2.5-0.8,4-0.2c2.1,0.9,4.3,1.5,6.5,2.2c0.7,0,1.5,0,2.2,0c-0.1-0.6-0.3-1.3-0.4-1.9
			c0.4-0.8,0.8-1.5,1.2-2.3c0.7,0.4,1.4,0.7,2.1,1.1c1.5,0.9,2.9,1.8,4.4,2.6c2.1,1.3,3.2,3,2.5,5.6c-0.6,0.4-1.3,0.7-1.9,1.1
			c-2.4,0.2-5.2-0.3-7,0.8c-2.2,1.3-3.6,0.5-5.2-0.1c-1.6-0.6-2.9-1.9-4.3-2.8c-1.4-1.4-2.8-2.8-4.2-4.2
			C488.7,372.7,488.7,372,488.7,371.4z M497.8,378.5c-0.2-3.9-2.7-4.4-5.1-5c-0.2,0.3-0.4,0.6-0.7,0.9
			C494,375.8,495.9,377.1,497.8,378.5z"/>
		<path class="st10" d="M414.2,237.6c-0.5-1-0.9-1.9-1.4-2.9c0-2-0.1-4.1-0.1-6.1c0.2-0.1,0.4-0.2,0.6-0.3c0.6,0.9,1.1,1.7,1.8,2.7
			c0.7-0.4,1.4-0.7,2.7-1.4c1.5,8.4,3.4,16.4,1.5,24.1c-2.1,1.9-3.8,3.5-5.6,4.9c-1.9,1.4-3.9,2.6-5.8,4c0.8-0.9,1.4-2,2.3-2.6
			c2.4-1.7,3.7-3.9,4-6.7c1-0.3,1.9-0.5,2.6-0.7c0.2-1.4,0.7-2.7,0.7-4.1C417.5,244.5,418.6,240.2,414.2,237.6z"/>
		<path class="st11" d="M397.4,290.5c2.5-1,4.1,0.1,5.3,2.1c0.7,1.1,1.2,2.4,2.1,3.1c1.5,1,3.4,1.5,5.1,2.2c0.6,1.3,1.3,2.6,1.9,3.9
			c0.7,1.4,1.3,2.8,2,4.1c0,1.1,0,2.3,0.1,3.4c-1.1,0.3-2.2,0.6-3.2,0.9c-0.3,0-0.6,0-0.8,0c-0.7-1.3-1.3-2.5-2-3.8
			c1.1-1.9,1.2-3.5-1.2-4.4c-1,0.3-2,0.7-2.9,1c-1.3-2-2.7-4-4-6c-0.1-0.4-0.2-0.8-0.2-1.2c1-2.1-0.8-2.5-2-3.2
			C397.5,292,397.5,291.3,397.4,290.5z"/>
		<path class="st12" d="M417.6,304.1c0.2,0.4,0.6,0.9,0.7,1.3c1.9,5.4,4.2,10.6,7.6,15.4c1.2,1.7,1.7,4,2.6,6l0,0.1
			c-0.8,0.3-1.5,0.7-2.3,1c-1-0.6-2.1-1.2-3.1-1.9c-0.4-1.4-0.5-3.3-2.8-2.3c-0.3-0.2-0.6-0.3-0.9-0.4c-0.3-1.3-0.4-2.8-1.1-3.8
			c-1.7-2.2-1.9-4.2-0.1-6.3c0.3-0.4,0.1-1.2,0.2-1.9c-0.5-2.4-0.9-4.8-1.4-7.2l0.3,0L417.6,304.1z"/>
		<path class="st13" d="M492.9,377.5c1.4,1,2.7,2.2,4.3,2.8c1.6,0.6,3.1,1.5,5.2,0.1c1.8-1.1,4.6-0.6,7-0.8
			c-0.7,1.4-1.5,2.9-2.2,4.3c-2.2-0.1-2.2,1.2-1.8,2.8c-2.6,0.8-5.9-0.6-7.9,2.3c-0.1,0.2-1.7-0.7-2.6-1c2-3.5-1.9-3.6-3.1-5.3
			l0.1-0.1C492.3,381,492.6,379.3,492.9,377.5z"/>
		<path class="st14" d="M309.5,331c0-0.3,0-0.7,0-1c0.7-1.4,1.3-2.8,2-4.2c3.1-4.8,6.3-9.6,9.4-14.4c2.4-1.9,5.2-2.5,8.2-1.9
			c0.5,0.9,0.9,1.9,1.4,2.8c-2.1-1.4-3.8-1.2-5.2,1c-2.1,3.1-4.2,6.2-6.4,9.4c-3.8,2.1-5.1,6.1-7.2,9.4
			C310.8,331.7,310.2,331.4,309.5,331z"/>
		<path class="st15" d="M501.1,366.3c-0.8-3.5-3-5.9-5.2-8.6c-2.8-3.4-4.9-7.4-7.3-11.2c0.7-0.7,1.4-1.4,2.1-2.1c0.3,0,0.6,0,1,0.1
			c0.3,0.7,0.7,1.4,1,2.1c1.1,1.7,2.1,3.5,3.2,5.2c0.7,0.3,1.3,0.7,2,1c1.4,0.7,2.8,1.4,4.2,2c0.1,0.3,0.1,0.6,0.2,0.9
			c-0.8,0.2-1.5,0.4-2.3,0.5c1,4.7,1,4.7,5.3,4.7c0.7,0.8,1.3,1.5,2,2.3c-0.5,1-1.1,2-1.4,2.8C504,366.9,502.6,363.6,501.1,366.3z"
			/>
		<path class="st16" d="M302.1,344.5c0,1,0,2.1,0,3.1c-3.6,4.1-7.1,8.2-8.1,13.7c0,0.6,0,1.2,0,1.9c-1.4-0.4-2.8-0.7-4.2-1.1
			c0.3-1.6,0.3-3.4,1-4.8c2.5-4.8,5.3-9.4,8-14.1c0.2-0.4,0.7-0.7,1.1-1c0.1,0.2,0.1,0.3,0.2,0.5
			C300.8,343.3,301.5,343.9,302.1,344.5z"/>
		<path class="st17" d="M412.8,337.4c-2.7,0.4-5.4,0.8-8.1,1.1c-2,0.2-3.9,0.1-5.9,0.2c-0.8,0-1.9-0.4-2.4-0.1
			c-2.9,2.2-5.5,0.5-8.2-0.4c0-0.4,0-0.7,0-1.1c3.1-0.7,6.2-1.4,9.4-2.1c3.6,0.2,7.2-0.1,10.6,0.7c2.9,0.6,4.5-0.3,5.9-2.5
			c0.7,1,1.5,2,2.2,3.1c-0.4,0.3-0.8,0.6-1.1,0.9C414.3,337.3,413.6,337.3,412.8,337.4z"/>
		<path class="st18" d="M329,309.5c-3-0.6-5.7,0-8.2,1.9c-3.5,1.2-6.3,2.9-5.9,7.8c-1.7-1.1-2.7-1.7-3.9-2.5c-1.6,1.7-3.1,3.3-4.7,5
			c0.2-0.8,0.7-1.7,0.6-2.5c-0.5-2.8,1.1-4.1,3.2-5.2c2.6-1.5,5.4-2.5,7.6-5C319.3,307,326.2,307.6,329,309.5z"/>
		<path class="st19" d="M412.8,337.4c0.8-0.1,1.5-0.1,2.3-0.2c2.6,2,3.2,1.6,4.2-2.3c0.7-0.3,1.4-0.5,2.1-0.8l0-0.1
			c0.3,0.7,0.7,1.4,1,2.1c0.7,2.1,1.4,4.2,2.1,6.4c-0.3,0-0.6,0-1,0.1c-0.6-0.8-1.1-1.6-2-2.8c-0.5,2.5-0.9,4.6-1.3,6.7
			c-0.6,0.3-1.3,0.6-1.9,1c-0.7-0.6-1.4-1.3-2.2-1.9c0.3-1,0.6-1.9,0.8-2.7c-1.7-1.2-3.3-2.4-4.9-3.5
			C412.3,338.7,412.5,338,412.8,337.4z"/>
		<path class="st2" d="M375.6,242.8c0.7,5.6,1.4,11.3,2.1,16.9c-1.4-0.8-2.7-1.5-4.1-2.3c-0.3-1.6-0.8-3.3-1-5
			c-0.2-1.9,0-3.8-2.4-4.5c-0.2-0.1,0.2-1.9,0.4-2.9C372.3,244.3,374,243.5,375.6,242.8z"/>
		<path class="st20" d="M332.2,376.6c-0.3,1.7-0.6,3.5-0.9,5.2c-1.8,2.2-3.7,4.5-2.4,7.6c1.9-0.1,3.7-0.2,5.4-0.3l0.1,0.3
			c-1.4,2-2.8,3.9-4.2,5.9c-0.4-0.3-0.7-0.7-1.1-1c-1.1-1-2.1-2-3.2-3.1l0,0c0.4-2.7,0.7-5.4,1.1-8.2c2.6-3.1,2.6-3.4,0.1-5.4
			c0.6-0.7,1.3-1.4,1.9-2.1C330.1,375.9,331.1,376.2,332.2,376.6z"/>
		<path class="st21" d="M349.6,393.1c-0.9,1.4-1.6,3-2.7,4.2c-1.4,1.4-2.7,1-3.4-0.9c0.9-1,2.1-1.9,2.5-3.1c0.8-2.3-0.4-2.7-2.4-2
			c0-3.5,0.1-7,0.1-10.5c0.6-0.7,1.3-1.5,1.9-2.2c1.3,0.8,2.7,1.6,4,2.4c-1.1,0.2-2.1,0.4-2.9,0.6c0,2.5,0,4.4,0,6.5
			c0.7,0,1.3-0.1,2-0.1C347.9,389.9,348.1,391.6,349.6,393.1z"/>
		<path class="st22" d="M370.8,343.9c1.7,0.4,1.6,1.3,0.9,2.7c-2.8,5.5-5.6,11.1-8.4,16.6c-1-1.4-2-2.7-3.1-4.1
			c1-2.8,2.1-5.6,3.1-8.4c0.8,0.7,1.6,1.4,3,2.6c1.5-3.4,2.8-6.2,4.1-9.1L370.8,343.9z"/>
		<path class="st23" d="M349.7,381c-1.3-0.8-2.7-1.6-4-2.4c0.9-2.1,1.9-4.2,2.8-6.3c1.4,0.4,2.8,0.8,4.2,1.2c1.4,0.8,2,0,2.5-1.2
			c0.6,0.4,1.2,0.7,1.8,1.1c-0.6,2.1-1.2,4.2-1.8,6.3c-0.4-1.1-0.9-2.3-1.8-4.7c-1.2,2.5-2,3.9-2.4,5.3c-0.4,1.4-0.2,3-0.2,4.5
			c-0.3,0-0.5,0-0.8,0.1C349.9,383.7,349.8,382.3,349.7,381z"/>
		<path class="st24" d="M394.5,220.1c2.2,0.5,4.4,1,7.8,1.8c-1.2,0.6-1.8,0.9-2.3,1.1c-1.2,0.2-2.5,0.3-3.7,0.5
			c-2.7-0.1-5.4-0.2-8.1-0.2c-1.3-1-2.6-2-4-3c0.3-0.1,0.5-0.1,0.8-0.2C388.1,220.1,391.3,220.1,394.5,220.1z"/>
		<path class="st2" d="M467.9,358c2.9,4.3,5.6,8.6,8.6,12.8c2,2.7,5.2,4.5,5.9,8.1c-1.7-1.3-3.7-2.4-5-4
			C473.3,369.8,469.3,364.6,467.9,358z"/>
		<path class="st25" d="M343.8,380.8c0,3.5-0.1,7-0.1,10.5c-0.7,1.4-1.3,2.8-2,4.2c-2.3,1-3-1-4.1-2.2c-0.2,0-0.4-0.1-0.7-0.1
			C339.2,389,341.5,384.9,343.8,380.8z"/>
		<path class="st26" d="M396.3,223.5c1.2-0.2,2.5-0.3,3.7-0.5c0.6,0.1,1.1,0.2,1.7,0.3c2.4,0.3,4.9,0.6,7.3,1
			c0.4,1.1,3.1,1.1,1.4,3.1c-1.9,1-3.7,2-5.6,2.9c-0.7-0.3-1.4-0.6-2.1-0.9c-0.5-3-3-3.7-5.4-4.4C397,224.5,396.6,224,396.3,223.5z"
			/>
		<path class="st27" d="M493.7,337.4c3.1-0.1,5.2,1.3,6.1,4.2c0.8,2.7,1.6,5.4,2.4,8.1c-1.8,0.9-3,0.1-3.9-1.3c-0.3-1-0.7-2-1-3.1
			C498.1,341.9,494.7,340.2,493.7,337.4z"/>
		<path class="st28" d="M511.3,378.6c0.7-2.6-0.4-4.3-2.5-5.6c-1.5-0.9-2.9-1.8-4.4-2.6c1.6-1.6,3.2-3.3,4.7-4.9
			C512.6,369.1,513.7,375.2,511.3,378.6z"/>
		<path class="st29" d="M374.7,235.7c0.1-3.9,0.1-7.8,0.5-11.6c0.3-2.7,1.2-5.3,3.7-7c0.7,1.4,1.4,2.7,2.1,4.1c-1,0.6-2.2,1-3.1,1.8
			c-0.4,0.3-0.6,1.3-0.4,1.8c0.2,0.4,1.1,0.6,1.7,0.6c0.6-0.1,1.2-0.6,1.8-0.9c0,0.4,0.1,0.8,0.1,1.2c-3.3,2.5-4.9,6-5.4,10
			C375.3,235.6,375,235.6,374.7,235.7z"/>
		<path class="st9" d="M427.5,363.2c-0.3,1.1-0.7,2.1-1,3.2c-1.7-3.1-3.4-6.3-5.1-9.4c0.4-0.7,0.7-1.4,1.1-2.1c1,0.8,2,1.7,3,2.6
			c1.1-0.5,2.1-1,3.2-1.5c-1.2,2.5,0.4,3.8,2.1,5.1l-0.1,0.1C429.6,361.8,428.5,362.5,427.5,363.2z"/>
		<path class="st27" d="M397.4,290.5c0,0.7,0,1.4,0.1,2.1c0.3,1,0.7,2.1,1,3.1c-2.3,2.3,0.4,3.5,1,5.1c-1,1.7-1.9,3.4-2.9,5.1
			c-0.1-0.2-0.2-0.5-0.3-0.7c-1-1.8-2-3.6-3.1-5.4c0.1-0.7,0.2-1.3,0.3-2c2.3-1.7,0.8-4,1-6c0.3-0.4,0.6-0.8,0.9-1.3
			C396.1,290.6,396.8,290.6,397.4,290.5z"/>
		<path class="st30" d="M445.1,382.5c-2.2-2.4,0.1-4,1-5.8c0.7,0.7,1.4,1.4,2,2.2c2.3,3.4,3,7.3,3.5,11.3c-0.9-1-1.8-1.9-2.7-2.9
			C447.6,385.6,446.4,384.1,445.1,382.5z"/>
		<path class="st31" d="M294,361.3c1-5.6,4.6-9.6,8.1-13.7c0.4,0.4,0.9,0.8,1.3,1.2C301.4,353.8,298.5,358.1,294,361.3z"/>
		<path class="st32" d="M447.3,353.9c2.4-2.1,4.8-4.3,7.1-6.4c1.4-1,2.8-2.1,4.2-3.1c-0.4,2.1-0.8,4.1-1.1,6.2
			c-0.9,0.4-1.9,1.3-2.6,1.1C451.9,351.2,449.8,353.1,447.3,353.9z"/>
		<path class="st33" d="M493.7,337.4c1,2.7,4.4,4.4,3.5,8c-0.7,0-1.4,0.1-2.1,0.1c-0.8,0.4-1.6,0.8-2.3,1.1c-0.3-0.7-0.7-1.4-1-2.1
			c1.2-2.4,2-4.7-1-6.3c-0.5-1.2-0.9-2.4-1.4-3.6c0.2-0.2,0.4-0.3,0.6-0.5C491.2,335.2,492.4,336.3,493.7,337.4z"/>
		<path class="st34" d="M412,301.8c-0.6-1.3-1.3-2.6-1.9-3.9c-0.7-1.4-1.4-2.8-2.2-4.2c1.4-1.3,1.5-2.8,1-4.6
			c-0.4-1.3-0.1-2.8-0.1-4.3c1.4,4,2.9,8,4.3,12c0,1.7,0,3.5-0.1,5.2C412.7,301.9,412.3,301.8,412,301.8z"/>
		<path class="st35" d="M448.1,378.8c-0.7-0.7-1.4-1.4-2-2.2c-0.4-1.3-1.3-2.7-1.1-3.8c0.9-3.7-1.3-6-3-8.6c2.1-1.3,2.4,0.7,3.2,1.7
			c0.5,0.6,0.2,2.5,2,1.4C447.5,371.2,449.6,374.8,448.1,378.8z"/>
		<path class="st36" d="M388.2,337.2c0,0.4,0,0.7,0,1.1c-2.3,0.4-4.5,1-6.8,1.2c-2.8,0.2-5.7,0.2-8.6,0.2c1-0.5,2-0.9,3-1.4
			c0.3,0,0.7,0,1,0c1.4-0.2,2.7-0.4,4.3-0.6c-0.8-1.4-1.2-2.1-1.9-3.4C382.7,335.4,385.4,336.3,388.2,337.2z"/>
		<path class="st37" d="M408.8,284.8c0,1.4-0.2,2.9,0.1,4.3c0.5,1.8,0.4,3.3-1,4.6c-0.4,0-0.8-0.1-1.2-0.1c-1-1-2-2-3-3
			c0.5-1.2,3.7-5.9,4.3-6.3C408.1,284.3,408.5,284.6,408.8,284.8z"/>
		<path class="st29" d="M428.6,326.8c3.6,3,4.1,7.4,5.2,11.5c-0.4,0.4-0.8,0.7-1.2,1.1c-1-1-2-2.1-3-3.1
			C429.3,333.1,428.9,330,428.6,326.8L428.6,326.8z"/>
		<path class="st20" d="M422.4,354.9c-0.4,0.7-0.7,1.4-1.1,2.1c-2-2.8-5.6-4.5-6.2-8.3c0.4-1.1,0.7-2.1,1.1-3.2
			c0.7,0.6,1.4,1.3,2.2,1.9c0.4,1.1,0.7,2.1,1.1,3.2c0.7,1,1.4,2.1,2,3.1C421.8,354.1,422.1,354.5,422.4,354.9z"/>
		<path class="st38" d="M340.4,356.8c0.1,0.4,0.1,0.9,0.2,1.3c-1.3,3.9-2.3,7.8-3.9,11.6c-0.8,1.8-2.5,3.2-3.7,4.8
			c0.5-1.7,0.9-3.4,1.4-5C336.4,365.2,338.4,361,340.4,356.8z"/>
		<path class="st2" d="M483.4,380.1c2.1-2.4,1.1-4.7-0.2-6.9c-0.7-1.3-1.9-2.7,0.3-3.7c0,0,0,0,0,0c1.4,3.1,2.7,6.2,4.1,9.3
			c0,0.3,0.1,0.6,0.1,0.9c-0.7,0.7-1.4,1.4-2.2,2.2C484.9,381.2,484.1,380.6,483.4,380.1z"/>
		<path class="st7" d="M382.6,268c5.7,1,11.4,1.1,17.1,0C392.5,272.1,387.7,272.1,382.6,268z"/>
		<path class="st39" d="M485.6,338.7c-1.1-1.8-2.2-3.6-3.2-5.4c0.8-0.6,1.6-1.2,2.9-2.3c1.2,2.4,2.4,4.6,3.5,6.8
			c0,0.3-0.1,0.6-0.1,1C487.6,338.7,486.6,338.7,485.6,338.7z"/>
		<path class="st40" d="M350.8,384.9c0.1-1.5-0.1-3.1,0.2-4.5c0.4-1.5,1.2-2.8,2.4-5.3c0.9,2.4,1.4,3.6,1.8,4.7
			c-0.8,1.7-1.6,3.4-2.4,5.1C352.1,384.9,351.4,384.9,350.8,384.9z"/>
		<path class="st27" d="M306.3,324.8c0.5,0.7,1.4,1.6,1.3,2.2c-0.4,1.8-1.2,3.5-2,5.5c-1,0.2-2.2,0.4-3.3,0.6
			c-0.1-1.4-0.1-2.9-0.2-4.3C304.3,328.7,304.6,328.3,306.3,324.8z"/>
		<path class="st41" d="M289.8,362.1c1.4,0.4,2.8,0.7,4.2,1.1c0.1,0.3,0.4,0.8,0.4,0.8c-2.6,1.3-5.2,2.6-8.1,4
			C285.4,364.6,288.8,364,289.8,362.1z"/>
		<path class="st42" d="M509.1,365.5c-1.6,1.6-3.2,3.3-4.7,4.9c-0.7-0.4-1.4-0.7-2.1-1.1c-0.4-1-0.8-2-1.2-3
			c1.5-2.7,2.9,0.6,4.7-0.1c0.4-0.7,0.9-1.8,1.4-2.8C507.9,364.1,508.5,364.8,509.1,365.5z"/>
		<path class="st43" d="M380.9,221.2c-0.7-1.4-1.4-2.7-2.1-4.1c1.8-1.6,3.8-2.7,6.1-1c-0.3,1-0.6,2-1,3.1
			C383,219.8,382,220.5,380.9,221.2z"/>
		<path class="st11" d="M502.3,355.9c-0.1-0.3-0.1-0.6-0.2-0.9c0-1.5,0.1-2.9,0.1-4.4c3.8,1.7,4.3,2.7,3.4,6.4c-0.2,1-0.2,2-0.3,3
			C504.3,358.7,503.3,357.3,502.3,355.9z"/>
		<path class="st16" d="M370.8,343.9c0,0-0.2,0.3-0.2,0.3c-1,0.4-2,0.9-3.1,1.3c-0.4-0.7-0.7-1.4-1.1-2.2c2.4-4.7,2.4-4.7,6.1-3.2
			C371.9,341.5,371.3,342.7,370.8,343.9z"/>
		<path class="st44" d="M327.1,383c-0.4,2.7-0.7,5.4-1.1,8.2c-2.6-1.2-3.5-3.1-2.3-5.9c0.6-1.4,1-2.9,1.5-4.4
			C325.8,381.6,326.4,382.3,327.1,383z"/>
		<path class="st45" d="M384,219.1c0.3-1,0.6-2,1-3.1c3.2,1.3,6.3,2.7,9.5,4c-3.2,0-6.3,0-9.5,0C384.7,219.8,384.3,219.4,384,219.1z
			"/>
		<path class="st16" d="M502.3,355.9c1,1.4,2,2.8,3,4.1c0,0.4,0,0.7,0,1.1c-4.3,0.1-4.3,0.1-5.3-4.7
			C500.8,356.3,501.5,356.1,502.3,355.9z"/>
		<path class="st10" d="M329.1,394.2c0.4,0.3,0.7,0.7,1.1,1c1,0.3,2,0.6,2.9,0.9c-0.9,1.8-1.9,3.7-2.8,5.5c-0.8-0.4-1.6-0.9-2.4-1.3
			c-0.4-1-0.7-2.1-1.1-3.1C327.6,396.2,328.4,395.2,329.1,394.2z"/>
		<path class="st46" d="M350.8,384.9c0.7,0,1.4,0,2,0c-1.1,2.7-2.1,5.5-3.2,8.2c-1.5-1.5-1.7-3.2-0.9-5.1c0.4-1,0.8-2,1.2-3
			C350.2,385,350.5,384.9,350.8,384.9z"/>
		<path class="st47" d="M390.1,289.4c0.7-1.4,1.4-2.8,2.1-4.2c1-0.7,2-1.4,3-2.1c0.1,1.1,0.2,2.2,0.3,3.3c-0.7,0.7-1.5,1.5-2.2,2.2
			c-0.7,1-1.4,2-2.1,3C390.9,290.9,390.5,290.2,390.1,289.4z"/>
		<path class="st48" d="M416.2,345.5c-0.4,1.1-0.7,2.1-1.1,3.2c-1-3.1-3.7-5.7-3.1-9.4c1.6,1.2,3.2,2.3,4.9,3.5
			C416.7,343.6,416.4,344.6,416.2,345.5z"/>
		<path class="st49" d="M374.7,235.7c0.3-0.1,0.6-0.1,1-0.1c0,2.2,0,4.3,0,6.5c0,0.3,0,0.5,0,0.8c-1.7,0.8-3.3,1.5-5,2.3
			C372,241.9,373.3,238.8,374.7,235.7z"/>
		<path class="st32" d="M333.1,396.1c-1-0.3-2-0.6-2.9-0.9c1.4-2,2.8-3.9,4.2-5.9c0.8,1.2,1.7,2.5,2.5,3.8c0.2,0.1,0.4,0.1,0.7,0.1
			C336.1,394.2,334.6,395.2,333.1,396.1z"/>
		<path class="st50" d="M334.3,369.4c-0.5,1.7-0.9,3.4-1.4,5c-0.3,0.7-0.5,1.4-0.8,2.1c-1-0.3-2.1-0.7-3.1-1
			c0.7-1.4,1.2-2.9,2.1-4.1C331.9,370.5,333.3,370.1,334.3,369.4z"/>
		<path class="st51" d="M361.3,366.4c-1.1,1.6-2.2,3.2-3.3,4.8c-0.6-0.6-1.2-1.1-1.8-1.7c-0.1-0.4-0.1-0.8-0.2-1.3l0,0
			c1.2-0.7,4.2-0.7,1.1-3c0.5-0.7,1.1-1.4,1.6-2.1C359.6,364.3,360.5,365.3,361.3,366.4z"/>
		<path class="st52" d="M406.7,293.6c0.4,0,0.8,0.1,1.2,0.1c0.7,1.4,1.4,2.8,2.2,4.2c-1.7-0.7-3.6-1.2-5.1-2.2c-1-0.6-1.4-2-2.1-3.1
			c0.3,0,0.6,0,0.8,0C404.6,293,405.6,293.3,406.7,293.6z"/>
		<path class="st53" d="M413.1,302c0-1.7,0-3.5,0.1-5.2c1.5,2.4,3,4.9,4.5,7.3c0,0-0.3,0-0.3,0l-0.3,0c-0.3,0.4-0.7,0.8-1,1.2
			c-0.6-0.4-1.2-0.8-1.8-1.2C413.8,303.4,413.4,302.7,413.1,302z"/>
		<path class="st54" d="M361.3,366.4c-0.9-1-1.7-2.1-2.6-3.1c-0.5-1.1-1.1-2.2-1.6-3.3c1-0.3,2.1-0.5,3.1-0.8c1,1.4,2,2.7,3.1,4.1
			C362.7,364.3,362,365.3,361.3,366.4z"/>
		<path class="st41" d="M480.3,330.2c-1.7,0.4-3.4,0.8-5.7,1.4c0.2-2.4,0.4-4,0.5-5.6C476.8,327.4,478.6,328.8,480.3,330.2z"/>
		<path class="st55" d="M502.3,350.6c0,1.5-0.1,2.9-0.1,4.4c-1.4-0.7-2.8-1.4-4.2-2c0.1-1.5,0.2-3,0.3-4.4c1,1.5,2.1,2.3,3.9,1.3
			C502.1,350.1,502.2,350.4,502.3,350.6z"/>
		<path class="st37" d="M506.8,351.7c-1.5-2.7-3.1-5.4-4.6-8.1c0.4-0.2,0.7-0.4,1.1-0.7c1.6,2.6,3.2,5.3,4.8,7.9
			C507.7,351.1,507.3,351.4,506.8,351.7z"/>
		<path class="st56" d="M490.7,338.2c3,1.7,2.2,4,1,6.3c-0.3,0-0.6,0-1-0.1c-0.7-1.9-1.4-3.8-2.1-5.7c0.1-0.3,0.1-0.6,0.1-1
			C489.4,338,490.1,338.1,490.7,338.2z"/>
		<path class="st34" d="M445.1,382.5c1.3,1.6,2.5,3.2,3.8,4.7c0.8,1,1.8,2,2.7,2.9c0.3,0.3,0.6,0.7,0.9,1c-0.8,0.4-1.5,0.8-2.3,1.2
			c-1.7-2.6-3.4-5.1-4.9-7.7C444.9,384.1,445.1,383.2,445.1,382.5z"/>
		<path class="st57" d="M395.3,283.2c-1,0.7-2,1.4-3,2.1c-0.4-0.7-0.8-1.4-1.1-2.1c1.4-1.4,2.8-2.7,4.2-4.1c0.2,0.2,0.5,0.3,0.7,0.5
			C395.8,280.8,395.5,282,395.3,283.2z"/>
		<path class="st58" d="M450.2,392.4c0.8-0.4,1.5-0.8,2.3-1.2c0.6,2,3.7,3.7,1,6.2C452.4,395.7,451.3,394,450.2,392.4z"/>
		<path class="st59" d="M341.6,395.5c0.7-1.4,1.3-2.8,2-4.2c2-0.7,3.2-0.3,2.4,2c-0.4,1.2-1.6,2.1-2.5,3.1
			C342.9,396.1,342.2,395.8,341.6,395.5z"/>
		<path class="st60" d="M457.5,350.7c0.4-2.1,0.8-4.1,1.1-6.2l0,0c1.1,0,2.1,0.1,3.2,0.1c-0.5,1.3-2.7,2.5-0.3,4
			C460.2,349.3,458.8,350,457.5,350.7z"/>
		<path class="st44" d="M329.1,394.2c-0.8,1-1.5,2-2.3,3c-0.4-0.2-1.3-0.5-1.3-0.7c0-1.8,0.2-3.6,0.4-5.4
			C327,392.2,328.1,393.2,329.1,394.2z"/>
		<path class="st14" d="M491.8,382.8c1.2,1.7,5.1,1.8,3.1,5.3c-1.5-1-3-1.9-4.5-2.9C490.9,384.4,491.4,383.6,491.8,382.8z"/>
		<path class="st61" d="M306.3,324.8c-1.7,3.5-2,3.8-4.3,4c1.4-2.4,2.9-4.7,4.3-7.1C306.3,322.8,306.3,323.8,306.3,324.8z"/>
		<path class="st62" d="M444.4,361.9c-0.7-0.9-1.5-1.8-2.4-2.9c1.2-0.8,2.1-1.5,3-2.1c0.5,1.2,1.1,2.4,1.4,3.7
			C446.8,362.3,445.8,362.5,444.4,361.9z"/>
		<path class="st63" d="M410.4,227.4c1.7-2-1-2.1-1.4-3.1c-0.1-0.3-0.1-0.6-0.2-1c4.2,1.2,4.2,1.2,4.5,5c-0.2,0.1-0.4,0.2-0.6,0.3
			c-0.3,0-0.5,0-0.8,0.1C411.4,228.3,410.9,227.9,410.4,227.4z"/>
		<path class="st64" d="M327.1,383c-0.7-0.7-1.3-1.4-2-2.1c0.7-1.1,1.3-2.2,2-3.3C329.7,379.6,329.7,379.9,327.1,383z"/>
		<path class="st9" d="M491.8,382.8c-0.5,0.8-0.9,1.6-1.4,2.4c-1.6-1.1-3.2-2.3-4.8-3.4c0.7-0.7,1.4-1.4,2.2-2.2
			C489.2,380.7,490.5,381.7,491.8,382.8L491.8,382.8z"/>
		<path class="st7" d="M399.6,268c1.6-2.9,4.2-4.4,7.3-5.3C404.5,264.5,402.1,266.2,399.6,268z"/>
		<path class="st21" d="M505.5,386.8c-0.5-1.6-0.4-2.9,1.8-2.8c0.6,0.7,1.3,1.4,2.4,2.8C507.7,386.8,506.6,386.8,505.5,386.8z"/>
		<path class="st65" d="M373.6,257.5c1.4,0.8,2.7,1.5,4.1,2.3c0.1,0.6,0.2,1.3,0.4,1.9c-0.1,0.4-0.2,0.7-0.3,1.1
			C376.4,261,375,259.2,373.6,257.5z"/>
		<path class="st66" d="M328,400.3c0.8,0.4,1.6,0.9,2.4,1.3c-0.2,0.9-0.4,1.9-0.6,3.2C327.5,403.6,328.2,401.8,328,400.3z"/>
		<path class="st53" d="M432.6,339.4c0.4-0.4,0.8-0.7,1.2-1.1c1.1,2.1,2.2,4.2,3.2,6.4c0,0,0-0.1,0-0.1
			C435.6,342.9,434.1,341.1,432.6,339.4z"/>
		<path class="st7" d="M377.7,262.7c0.1-0.4,0.2-0.7,0.3-1.1c1.3,1.9,2.5,3.7,3.8,5.6C380.5,265.7,379.1,264.2,377.7,262.7z"/>
		<path class="st67" d="M408.8,223.3c0,0.3,0.1,0.6,0.2,1c-2.4-0.3-4.9-0.6-7.3-1C404.1,223.3,406.4,223.3,408.8,223.3z"/>
		<path class="st68" d="M510.3,361.1c-0.4-0.5-0.9-1-1.3-1.5c0.2-0.2,0.4-0.3,0.6-0.5c0.4,0.5,0.9,1,1.3,1.5
			C510.7,360.8,510.5,360.9,510.3,361.1z"/>
		<path class="st69" d="M356.2,369.6c0.6,0.6,1.2,1.1,1.8,1.7c-0.3,0.8-0.6,1.5-1,2.3c-0.6-0.4-1.2-0.7-1.8-1.1
			c-0.1-0.3-0.1-0.5-0.1-0.8C355.5,370.9,355.9,370.2,356.2,369.6z"/>
		<path class="st35" d="M406.7,293.6c-1-0.3-2.1-0.6-3.1-0.9c0-0.7,0-1.4,0.1-2.1C404.7,291.6,405.7,292.6,406.7,293.6z"/>
		<path class="st70" d="M393.4,288.7c0.7-0.7,1.5-1.5,2.2-2.2c0,1.4-0.1,2.7-0.1,4.1c-0.3,0.4-0.6,0.8-0.9,1.3c0,0-0.4-0.3-0.4-0.3
			C394,290.6,393.7,289.6,393.4,288.7z"/>
		<path class="st2" d="M375.7,242c0-2.2,0-4.3,0-6.5c0.5-4,2.1-7.5,5.4-10c2.4-0.8,4.7-1.5,7.1-2.3c2.7,0.1,5.4,0.2,8.1,0.2
			c0.4,0.5,0.7,1.1,1.1,1.6c-1.6,0.1-3.3,0.2-4.9,0.3c-1.4,1.3-2.9,2.6-4.3,3.8c-0.7,0.8-1.4,1.5-2.1,2.3c-3.3,0.9-6.3,2-7.2,6.1
			C378.6,239.2,376.8,240.6,375.7,242z"/>
		<path class="st71" d="M414.2,237.6c4.4,2.7,3.4,6.9,3.2,10.9c-0.1,1.4-0.5,2.7-0.7,4.1c-0.7,0.2-1.6,0.4-2.6,0.7
			C414.3,248,415.3,242.8,414.2,237.6z"/>
		<path class="st72" d="M388.2,229.2c1.4-1.3,2.9-2.6,4.3-3.8c1.7,1.4,3.4,2.7,5.1,4.1c-2.3-0.2-2.2,2-3.1,3.1
			c-0.7-0.4-1.4-0.7-2.2-1.1c-0.2-2.9-2.2-2.2-4-1.9L388.2,229.2z"/>
		<path class="st67" d="M386.1,231.5c0.7-0.8,1.4-1.5,2.1-2.3c0,0,0.1,0.3,0.1,0.3c1,0.7,2.1,1.4,3.1,2c-1.3,0.8-2.6,1.9-4,2.2
			C385.5,234.2,385.8,232.7,386.1,231.5z"/>
		<path class="st55" d="M402.8,229.4c0.7,0.3,1.4,0.6,2.1,0.9c1,0.1,1.9,0.2,2.9,0.3c-1.3,0.9-2.7,1.9-4,2.8c-0.7,0-1.4,0-2.1,0
			c-0.7-0.7-1.4-1.3-2.1-2c0.1-0.7,0.1-1.3,0.2-2C400.7,229.4,401.7,229.4,402.8,229.4z"/>
		<path class="st67" d="M399.7,229.5c-0.1,0.7-0.1,1.3-0.2,2c-1.6,0.1-2.4,0.6-0.9,2c-1.4-0.3-2.8-0.6-4.3-0.9
			c0.9-1.2,0.8-3.3,3.1-3.1C398.2,229.5,398.9,229.5,399.7,229.5z"/>
		<path class="st2" d="M379.7,240.6c0.2,0.6,0.7,1.3,0.5,1.8c-0.2,0.7-0.7,1.3-1.3,1.7c-0.1,0.1-1.3-0.7-1.3-1
			c0.1-0.7,0.6-1.3,0.9-1.9C379,241.1,379.4,240.8,379.7,240.6z"/>
		<path class="st67" d="M403.7,233.5c1.3-0.9,2.7-1.9,4-2.8c1.1,0,2.2-0.1,3.2-0.1c-0.4,0.7-0.8,1.5-1.2,2.2
			C407.8,233,405.7,233.3,403.7,233.5z"/>
		<path class="st73" d="M409.8,232.8c0.4-0.7,0.8-1.5,1.2-2.2c0.3-0.6,0.6-1.3,0.9-1.9c0.3,0,0.5-0.1,0.8-0.1c0,2,0.1,4.1,0.1,6.1
			C411.8,234.1,410.8,233.5,409.8,232.8z"/>
		<path class="st19" d="M398.6,233.4c-1.5-1.4-0.7-1.9,0.9-2c0.7,0.7,1.4,1.3,2.1,2C400.6,233.4,399.6,233.4,398.6,233.4z"/>
		<path class="st74" d="M396.1,251.8c-1.1,0.4-2.1,0.8-3.2,1.2c-0.1-0.3-0.2-0.5-0.3-0.8c1.1-0.4,2.1-0.8,3.2-1.3
			C395.8,251.2,396,251.5,396.1,251.8z"/>
		<path class="st75" d="M391.3,231.6c-1-0.7-2.1-1.4-3.1-2c1.8-0.3,3.8-1,4,1.9C391.9,231.5,391.6,231.6,391.3,231.6z"/>
		<path class="st4" d="M414,333.2c-1.4,2.2-3,3.1-5.9,2.5c-3.4-0.7-7.1-0.5-10.6-0.7c-2.2-2.5-5-3.8-8.3-4c0,0,0,0,0,0
			c-0.8-1.1-1.5-2.1-2.3-3.2c-0.6,0.7-1.2,1.4-1.9,2.2c-0.7,0-1.4,0-2,0c-0.4,0-0.7-0.1-1.1-0.1c-0.2-1.8-0.2-3.7-3.4-4.6
			c0.7,1.4,1,2,1.3,2.7c-0.7,0.7-1.4,1.3-2.1,2c-1-0.7-2.1-1.4-3.1-2.1c1.4-2.5,2.7-5,4.2-7.4c0.3-0.5,1.3-0.6,2-0.9
			c-0.7,1.5-0.5,2.7,1.3,3c2.8,0.6,5.5,1.5,8.3-0.1c0.9,0,1.8,0,2.6,0c4.1,1.7,6.9-0.5,9.6-3c1.4,0,2.7,0,4.1,0l0.5,0.1l0.5-0.1
			c1.3,0.1,2.7,0.2,4,0.3c2.5,1.1,5,2.3,7.5,3.4c0.3,0.1,0.6,0.2,0.9,0.4c-0.7,1.7-1.4,3.3-2.2,5c0,0,0.1,0.3,0.1,0.3
			c-2.4,0.4-3.3,1.8-2.9,4.2C414.9,333.2,414.5,333.2,414,333.2z"/>
		<path class="st20" d="M336.9,393.1c-0.8-1.3-1.7-2.5-2.5-3.8c0,0-0.1-0.3-0.1-0.3c1-1.4,2.1-2.8,3.1-4.2c0.2-0.5,0.3-1,0.6-1.4
			c3.5-4.4,7-8.8,10.6-13.2c0,0.6,0,1.3-0.1,1.9c-0.9,2.1-1.9,4.2-2.8,6.3c-0.6,0.7-1.3,1.5-1.9,2.2
			C341.5,384.9,339.2,389,336.9,393.1z"/>
		<path class="st46" d="M357.1,359.9c0.5,1.1,1.1,2.2,1.6,3.3c-0.5,0.7-1.1,1.4-1.6,2.1c-0.4,1-0.8,2-1.1,3l0,0c-2-0.1-4.1-1-6,0.2
			c-0.3,0-0.6-0.1-1-0.1c0.3-0.4,0.5-0.8,0.8-1.1c1.5-2,3.1-3.9,4.5-6.1c1.1-1.7,1.8-3.6,2.8-5.5
			C357.1,357.1,357.1,358.5,357.1,359.9z"/>
		<path class="st38" d="M337.4,384.9c-1,1.4-2.1,2.8-3.1,4.2c-1.7,0.1-3.5,0.2-5.4,0.3c-1.3-3.1,0.6-5.3,2.4-7.6
			C333.3,382.8,335.4,383.9,337.4,384.9z"/>
		<path class="st76" d="M357.1,355.8c-0.9,1.8-1.7,3.8-2.8,5.5c-1.3,2.1-3,4-4.5,6.1c-0.7-2.5,0.1-4.7,1.4-6.9
			c1.4-2.4,2.7-4.8,4.2-7c0.4-0.5,1.8-0.4,2.7-0.5C357.8,353.8,357.4,354.8,357.1,355.8z"/>
		<path class="st77" d="M390.5,322.6c-2.7,1.6-5.5,0.7-8.3,0.1c-1.8-0.4-2-1.5-1.3-3c0.3-0.7,0.7-1.4,1-2.1c2.1-2.8,4.2-5.5,6.3-8.3
			c-1.4,4-2.9,7.9-4.5,12.2C386.2,321.9,388.4,322.2,390.5,322.6z"/>
		<path class="st78" d="M374.7,327.9c1,0.7,2.1,1.4,3.1,2.1c0,0.7,0,1.4,0,2.1c-0.4,2.1-0.7,4.1-1.1,6.2c-0.3,0-0.7,0-1,0
			c0.4-2.5-1.1-3.8-3.8-4.7C373,331.4,373.8,329.7,374.7,327.9z"/>
		<path class="st79" d="M357.1,355.8c0.4-1,0.7-2,1.1-2.9c0.3,0,0.6-0.1,0.9-0.1c0.8-0.6,1.6-1.3,2.5-1.9c0.6-0.4,1.2-0.8,1.8-1.1
			c0,0.3,0,0.7,0.1,1c-1,2.8-2.1,5.6-3.1,8.4c-1,0.3-2.1,0.5-3.1,0.8C357.1,358.5,357.1,357.1,357.1,355.8z"/>
		<path class="st49" d="M363.3,349.7c-0.6,0.4-1.2,0.8-1.8,1.1c-0.1-0.5-0.2-1-0.3-1.5c0.8-1.6,1.3-3.4,2.4-4.8
			c0.5-0.7,1.9-0.7,2.9-1.1c0.4,0.7,0.7,1.4,1.1,2.2C366.9,347.8,365.6,349.2,363.3,349.7z"/>
		<path class="st80" d="M349,368.4c0.3,0,0.6,0.1,1,0.1c1.3,0.6,2.7,1.3,4,1.9c-0.4,1-0.8,2.1-1.2,3.1c-1.4-0.4-2.8-0.8-4.2-1.2
			c0-0.6,0-1.3,0.1-1.9C348.7,369.7,348.9,369.1,349,368.4z"/>
		<path class="st81" d="M361.2,349.3c0.1,0.5,0.2,1,0.3,1.5c-0.8,0.6-1.6,1.3-2.5,1.9C359.7,351.6,360.5,350.4,361.2,349.3z"/>
		<path class="st2" d="M458.7,344.5c-1.4,1-2.8,2.1-4.2,3.1c-1.7-1-3.4-2-4.8-2.7c1.3-3,2.6-5.8,3.8-8.6c3-2.4,7.6-2.6,8.6-7
			c0.9-0.1,1.3-0.2,1.5-0.1c1.6,0.7,3.2,1.5,4.8,2.3c-1,1.3-2,2.5-2.9,3.8c-0.2,0.3-0.4,0.6-0.5,0.9c-0.7,1.4-1.4,2.8-2.2,4.1
			C461.3,341.6,457.7,340.9,458.7,344.5L458.7,344.5z"/>
		<path class="st82" d="M462.7,340.3c0.7-1.4,1.4-2.8,2.2-4.1c1.7-0.3,3.4-0.6,5.1-0.9c1.7,0.7,3.4,1.4,5.1,2.1
			c-0.1,0.5-0.2,1.4-0.4,1.4c-2.3,0.2-2.8,2.2-3.6,3.8c-1.7,0-3.5,0-5.2,0c-0.1-0.8-0.3-1.5-0.4-2.3c-0.9,0.4-1.8,0.8-2.6,1.3
			C462.8,341,462.7,340.6,462.7,340.3z"/>
		<path class="st9" d="M487.6,378.7c-1.4-3.1-2.7-6.2-4.1-9.3c1.7,0.7,3.4,1.3,5.1,2c0,0.7,0,1.3,0,2
			C487.5,375,490.3,377.4,487.6,378.7z"/>
		<path class="st83" d="M488.7,338.8c0.7,1.9,1.4,3.8,2.1,5.7c-0.7,0.7-1.4,1.4-2.1,2.1c-1-2.6-2-5.3-3.1-7.9
			C486.6,338.7,487.6,338.7,488.7,338.8z"/>
		<path class="st74" d="M475.1,337.2c-1.7-0.7-3.4-1.4-5.1-2.1c1.3-1.7,2.9-2.6,5.4-1.8C475.3,334.7,475.2,336,475.1,337.2z"/>
		<path class="st36" d="M478.6,354c2.1,1.5,2.9,2.8,2.3,5.3C478.7,358.1,478.7,356.4,478.6,354z"/>
		<path class="st73" d="M501,371.6c0.1,0.6,0.3,1.3,0.4,1.9c-0.7,0-1.5,0-2.2,0c-0.4-0.7-0.8-1.3-1.8-2.8
			C499.2,371.1,500.1,371.3,501,371.6z"/>
		<path class="st9" d="M431.6,358.1c1.1,2.9,2.9,5.7,2.2,9.5c-2.6-0.5-4.1-1.6-5.2-3.4c1.5-0.4,3.4-0.6,2-3c0,0,0.1-0.1,0.1-0.1
			C431,360,431.3,359,431.6,358.1z"/>
		<path class="st84" d="M431.6,358.1c-0.3,1-0.6,2-0.9,2.9c-1.7-1.3-3.3-2.6-2.1-5.1c0-0.4,0.1-0.7,0.1-1.1c0.7,0.7,1.4,1.4,2.1,2.1
			C431,357.3,431.3,357.7,431.6,358.1z"/>
		<path class="st24" d="M430.7,361.1c1.3,2.4-0.5,2.6-2,3c-0.4-0.3-0.8-0.6-1.2-0.9C428.5,362.5,429.6,361.8,430.7,361.1z"/>
		<path class="st85" d="M430.8,356.9c-0.7-0.7-1.4-1.4-2.1-2.1c0.9-0.4,1.9-0.8,2.8-1.3c0.1,0.4,0.1,0.9,0.2,1.3
			C431.4,355.6,431.1,356.3,430.8,356.9z"/>
		<path class="st6" d="M393.1,322.6c1.3-0.3,2.6-0.6,3.8-1c1.3-0.5,2.6-1.1,3.9-1.8c-2.3-2.6-4.3-4.5-5.9-6.8
			c-1.5-2.2-2.5-4.7-3.7-7.1c0.4-1,0.8-1.9,1.2-2.9c1.3,0.7,2.6,1.5,3.9,2.2c0.1,0.3,0.2,0.5,0.3,0.7c0.9,1.9,1.8,3.7,2.7,5.6
			c0,0.3,0.1,0.5,0.3,0.8c0.6,1.2,1.3,2.4,1.9,3.6c0.4,1.2,0.8,2.4,1.2,3.6C400,322.1,397.2,324.3,393.1,322.6z"/>
		<path class="st60" d="M393.6,297.9c-0.1,0.7-0.2,1.3-0.3,2c-0.3,0-0.6,0-0.9,0.1c-0.3,0-0.7,0-1,0c-0.4-0.3-0.8-0.7-1.1-1
			c-1.5,0-2.9,0-4.7,0c0-3.8,1.1-6.9,3.8-9.3c-0.6,2-1.2,4.1-1.8,6.1c0.3,0.2,0.6,0.4,0.9,0.6c1-1.2,1.9-2.4,2.9-3.6
			c0.6,0.7,1.2,1.3,1.8,2C393.3,295.8,393.5,296.8,393.6,297.9z"/>
		<path class="st54" d="M391.4,292.8c-1,1.2-1.9,2.4-2.9,3.6c-0.3-0.2-0.6-0.4-0.9-0.6c0.6-2,1.2-4.1,1.8-6.1
			c0.3-0.1,0.5-0.1,0.8-0.2c0.4,0.7,0.8,1.5,1.2,2.2C391.3,292,391.3,292.4,391.4,292.8z"/>
		<path class="st86" d="M392.4,300c0.3,0,0.6-0.1,0.9-0.1c1,1.8,2,3.6,3.1,5.4c-1.3-0.7-2.6-1.5-3.9-2.2
			C392.5,302,392.4,301,392.4,300z"/>
		<path class="st87" d="M390.3,298.9c0.4,0.3,0.8,0.7,1.1,1c-0.9,1.6-1.8,3.3-2.7,4.9C387.9,302.4,389.4,300.8,390.3,298.9z"/>
		<path class="st88" d="M462.7,340.3c0,0.4,0.1,0.8,0.1,1.2c0,0.7,0,1.4,0,2.1c-0.3,0.4-0.7,0.7-1,1.1c-1.1,0-2.1-0.1-3.2-0.1
			C457.7,340.9,461.3,341.6,462.7,340.3z"/>
		<path class="st64" d="M462.8,343.5c0-0.7,0-1.4,0-2.1c0.9-0.4,1.8-0.8,2.6-1.3c0.1,0.8,0.3,1.5,0.4,2.3
			C464.9,342.8,463.8,343.1,462.8,343.5z"/>
		<path class="st59" d="M307.5,343.7c-0.8-0.4-1.5-0.8-2.3-1.2c1.1-1.3,2.2-2.7,3.3-4.1c0.7-1,1.3-2.1,2-3.1
			c1.4,0.4,2.8,0.7,4.2,1.1c-1.2,0.9-3.5,0.6-3.3,3C310.1,340.7,308.8,342.2,307.5,343.7z"/>
		<path class="st69" d="M337.4,340.3c-1.7-0.3-3.5-0.6-5.2-0.9c2.5-5.3,2.3-4.3-1.8-8.3c-0.8-1.1-1.5-2.2-2.3-3.2
			c0-0.3-0.1-0.6-0.2-0.9c0.4-0.7,0.8-1.5,1.3-2.2c1.7,2.4,3.5,4.4,6.3,5.6c1.5,0.7,2.5,2.6,3.8,3.9c-1,0.2-2,0.3-3,0.5
			c0,0.4,0,0.8,0,1.1c1.1,0.1,2.2,0.2,3.4,0.3c0.6,0.7,1.2,1.5,1.8,2.2C339.9,338.7,337.6,337.2,337.4,340.3z"/>
		<path class="st35" d="M328,326.9c0.1,0.3,0.1,0.6,0.2,0.9c-1.1,0-2.1,0-3.2,0c-2-0.9-3.7-2.1-4.5-4.3c1-1.6,2.1-3,4.3-2.8
			C324.5,323.5,326,325.4,328,326.9z"/>
		<path class="st89" d="M320.6,323.5c0.8,2.2,2.5,3.4,4.5,4.3c-0.4,0.3-0.7,0.6-1.1,1c-5.1-0.4-5.2-0.5-5-5.2
			C319.5,323.6,320,323.5,320.6,323.5z"/>
		<path class="st84" d="M328,326.9c-2.1-1.5-3.5-3.4-3.1-6.2c1.5,1.3,2.9,2.7,4.4,4C328.9,325.4,328.4,326.2,328,326.9z"/>
		<path class="st90" d="M337.4,340.3c0.2-3.1,2.5-1.6,4-1.9c0.1,0.3,0.2,0.7,0.3,1C340.3,339.7,338.9,340,337.4,340.3z"/>
		<path class="st91" d="M339.7,336.1c-1.1-0.1-2.2-0.2-3.4-0.3c0-0.4,0-0.8,0-1.1c1-0.2,2-0.3,3-0.5
			C339.4,334.9,339.6,335.5,339.7,336.1z"/>
		<path class="st92" d="M323.9,328.8c0.4-0.3,0.7-0.6,1.1-1c1.1,0,2.1,0,3.2,0c0.8,1.1,1.5,2.2,2.3,3.2c-0.1,1.3-0.3,2.7-0.4,4
			c-1,0.1-2,0.2-3,0.2C326,333.1,325,330.9,323.9,328.8z"/>
		<path class="st93" d="M330.1,335.1c0.1-1.3,0.3-2.7,0.4-4c4.1,4.1,4.3,3.1,1.8,8.3C328.6,339.4,330.4,336.7,330.1,335.1z"/>
		<path class="st19" d="M431.5,353.5c-0.9,0.4-1.9,0.8-2.8,1.3c0,0.4-0.1,0.7-0.1,1.1c-1,0.5-2.1,1-3.2,1.5c-1-0.9-2-1.7-3-2.6
			c-0.3-0.4-0.7-0.7-1-1.1c2-2.1,4.1-4.1,6.1-6.2h0c0.7,0,1.4,0,2.2,0c0.6-0.4,1.2-0.7,1.8-1.1c0.4-0.7,0.9-1.4,1.3-2.1
			c1.3,0.7,2.5,1.4,3.8,2.1C434.9,348.8,433.2,351.2,431.5,353.5z"/>
		<path class="st94" d="M436.6,346.5c-1.3-0.7-2.5-1.4-3.8-2.1c-0.7-1.3-1.5-2.7-2.2-4l0,0c-0.4-1-0.7-2-1.1-3c0-0.4,0-0.8,0.1-1.2
			c1,1,2,2.1,3,3.1c1.5,1.7,3,3.5,4.4,5.2C436.9,345.2,436.8,345.8,436.6,346.5z"/>
		<path class="st95" d="M311.5,332.1c-0.3,1-0.7,2.1-1,3.1c-0.7,1-1.3,2.1-2,3.1c-3.4,0.2-0.6-2.2-1.2-3.1c0.8-1.4,1.5-2.8,2.3-4.3
			C310.2,331.4,310.8,331.7,311.5,332.1z"/>
		<path class="st31" d="M307.2,335.3c0.7,0.9-2.1,3.3,1.2,3.1c-1.1,1.4-2.2,2.7-3.3,4.1C303.7,337.2,303.7,337.2,307.2,335.3z"/>
		<path class="st95" d="M302.1,344.5c-0.6-0.6-1.3-1.2-1.9-1.8c0.8-0.3,1.6-0.6,2.4-0.9C302.5,342.7,302.3,343.6,302.1,344.5z"/>
		<path class="st95" d="M311.4,325.8c-0.7,1.4-1.3,2.8-2,4.2c0.1-1,0.1-2,0.4-2.9C310.1,326.5,310.9,326.2,311.4,325.8z"/>
		<path class="st84" d="M487.6,378.7c2.7-1.3-0.1-3.7,1.1-5.4c1.4,1.4,2.8,2.8,4.2,4.2c-0.3,1.7-0.6,3.5-0.9,5.2
			c-1.4-1-2.8-2.1-4.2-3.1C487.7,379.3,487.7,379,487.6,378.7z"/>
		<path class="st18" d="M497.8,378.5c-1.9-1.3-3.8-2.7-5.7-4c0.2-0.3,0.4-0.6,0.7-0.9C495.1,374.1,497.6,374.6,497.8,378.5z"/>
		<path class="st55" d="M399.5,300.9c-0.7-1.7-3.4-2.9-1-5.1c0.3,0,0.7,0.1,1,0.1c0.1,0.4,0.2,0.8,0.2,1.1c1,2.7,2,5.4,3,8
			c0,1.1-0.1,2.3-0.1,3.4c-0.7-0.4-1.4-0.7-2.1-1.1C400.2,305.2,399.9,303.1,399.5,300.9z"/>
		<path class="st96" d="M407.9,306.4c0.7,1.3,1.3,2.5,2,3.8c-1.1,0.4-2.1,0.8-3.2,1.2c-0.7-0.4-1.3-0.7-2-1.1c0-1.7,0-3.4,0.1-5.1
			c0.6-0.1,1.3-0.1,1.9-0.2C407.1,305.5,407.5,306,407.9,306.4z"/>
		<path class="st74" d="M406.7,311.4c1.1-0.4,2.1-0.8,3.2-1.2c0.3,0,0.6,0,0.8,0c0.4,1.2,0.9,2.3,1.3,3.5c-1.7,0.3-3.5,0.5-5.2,0.8
			C406.8,313.4,406.8,312.4,406.7,311.4z"/>
		<path class="st58" d="M402.7,305.1c-1-2.7-2-5.4-3-8c1.3,2,2.7,4,4,6c0,0.7,0,1.4,0,2.1C403.4,305.1,403.1,305.1,402.7,305.1z"/>
		<path class="st97" d="M412,313.7c-0.4-1.2-0.9-2.3-1.3-3.5c1.1-0.3,2.2-0.6,3.2-0.9c0,0,0.1,0,0.1,0C414,311,415,313.3,412,313.7z
			"/>
		<path class="st51" d="M403.7,305.1c0-0.7,0-1.4,0-2.1c1-0.3,2-0.7,2.9-1c0,1,0,2,0,3.1c-0.6,0.1-1.3,0.1-1.9,0.2
			C404.5,305.2,404.1,305.2,403.7,305.1z"/>
		<path class="st70" d="M399.5,295.9c-0.3,0-0.7-0.1-1-0.1c-0.3-1-0.7-2.1-1-3.1C398.7,293.4,400.5,293.7,399.5,295.9z"/>
		<path class="st98" d="M406.8,305.1c0-1,0-2,0-3.1c2.4,0.9,2.2,2.6,1.2,4.4C407.5,306,407.1,305.5,406.8,305.1z"/>
		<path class="st99" d="M414.2,304.1c0.6,0.4,1.2,0.8,1.8,1.2c-0.3,1.1-0.7,2.2-1,3.4c-0.3,0.2-0.6,0.4-0.9,0.6c0,0-0.1,0-0.1,0
			c0-1.1,0-2.3-0.1-3.4C414,305.3,414.1,304.7,414.2,304.1z"/>
		<path class="st18" d="M414.1,309.3c0.3-0.2,0.6-0.4,0.9-0.6c1.2,0.9,2.3,1.7,3.5,2.6c-0.1,0.6,0.1,1.5-0.2,1.9
			c-1.8,2.2-1.6,4.1,0.1,6.3c0.7,1,0.7,2.5,1.1,3.8c-2.5-1.1-5-2.3-7.5-3.4c-1.7-3-1.7-3-4-0.3l-0.5,0.1l-0.5-0.1c0-0.6,0-1.3,0-1.9
			c0-1.1,0-2.1,0-3.2c1.7-0.3,3.5-0.5,5.2-0.8C415,313.3,414,311,414.1,309.3z"/>
		<path class="st100" d="M429.6,336.2c0,0.4,0,0.8-0.1,1.2c-0.3-0.4-0.7-0.8-1-1.2c-0.7-1.4-1.4-2.7-2.1-4.1c-1-0.7-2-1.4-3-2.1
			c1-0.7,1.9-1.5,2.9-2.2c0.8-0.3,1.5-0.7,2.3-1C428.9,330,429.3,333.1,429.6,336.2z"/>
		<path class="st101" d="M426.3,327.9c-1,0.7-1.9,1.5-2.9,2.2c-0.7,1.3-1.4,2.7-2.1,4l0,0.1c-0.7-1.8-1.5-3.6-2.2-5.4
			c1.3-1,3.7-0.4,4-2.8C424.2,326.6,425.3,327.2,426.3,327.9z"/>
		<path class="st38" d="M423.2,326c-0.3,2.5-2.7,1.8-4,2.8c-0.3,0-0.7-0.1-1-0.1c0.7-1.7,1.4-3.3,2.2-5
			C422.7,322.7,422.7,324.6,423.2,326z"/>
		<path class="st19" d="M418.4,311.3c-1.2-0.9-2.3-1.7-3.5-2.6c0.3-1.1,0.7-2.3,1-3.4c0.3-0.4,0.7-0.8,1-1.2
			C417.5,306.5,418,308.9,418.4,311.3z"/>
		<path class="st102" d="M498.2,348.5c-0.1,1.5-0.2,3-0.3,4.4c-0.7-0.3-1.3-0.7-2-1c1.7-2.4-0.7-4.2-0.8-6.4c0.7,0,1.4-0.1,2.1-0.1
			C497.5,346.4,497.8,347.5,498.2,348.5z"/>
		<path class="st103" d="M495.1,345.6c0.2,2.1,2.5,4,0.8,6.4c-1.1-1.7-2.1-3.5-3.2-5.2C493.5,346.3,494.3,346,495.1,345.6z"/>
		<path class="st77" d="M376.8,338.3c0.4-2.1,0.7-4.1,1.1-6.2c1.4,0,2.7,0,4.1,0c2.5,0.2,5.2,1.3,7.3-1.1c3.3,0.3,6.1,1.5,8.3,4
			c-3.1,0.7-6.2,1.4-9.4,2.1c-2.7-0.9-5.5-1.7-9-2.9c0.7,1.2,1.1,2,1.9,3.4C379.5,337.9,378.1,338.1,376.8,338.3z"/>
		<path class="st104" d="M419.3,335c-1,3.9-1.6,4.2-4.2,2.3c0.4-0.3,0.8-0.6,1.1-0.9c0.3-0.3,0.7-0.7,1-1
			C417.9,335.2,418.6,335.1,419.3,335z"/>
		<path class="st22" d="M417.3,335.3c-0.3,0.3-0.7,0.7-1,1c-0.7-1-1.5-2-2.2-3.1c0.5,0,0.9,0,1.4-0.1c0.3,0,0.6-0.1,0.9-0.1
			C416.6,333.8,416.9,334.6,417.3,335.3z"/>
		<path class="st105" d="M427.5,347.6c-2,2.1-4.1,4.1-6.1,6.2c-0.7-1-1.4-2.1-2-3.1c1.2-1.2,2.2-2.4,0.9-4.2
			c0.4-2.1,0.8-4.1,1.3-6.7c0.9,1.2,1.4,2,2,2.8C423.6,345.3,424.4,347.4,427.5,347.6z"/>
		<path class="st90" d="M424.5,342.6c-0.7-2.1-1.4-4.2-2.1-6.4c0.3,0,0.7,0,1,0c1,1.8,2,0.8,3.1,0.1c0.2,2.6,1.6,4,4.2,4.1l0,0
			c-1.4,1-2.8,2.1-4.2,3.1c-0.3,0-0.7,0-1,0C425.1,343.2,424.8,342.9,424.5,342.6z"/>
		<path class="st106" d="M423.4,336.2c-0.3,0-0.7,0-1,0c-0.3-0.7-0.7-1.4-1-2.1c0.7-1.3,1.4-2.7,2.1-4c1,0.7,2,1.4,3,2.1
			C425.4,333.5,424.4,334.9,423.4,336.2z"/>
		<path class="st107" d="M417.3,335.3c-0.3-0.7-0.7-1.5-1-2.2c1.8-0.8,2.1-2.4,2-4.1c0,0-0.1-0.3-0.1-0.3c0.3,0,0.7,0,1,0.1
			c0.7,1.8,1.5,3.6,2.2,5.3c-0.7,0.3-1.4,0.5-2.1,0.8C418.6,335.1,417.9,335.2,417.3,335.3z"/>
		<path class="st49" d="M424.5,342.6c0.3,0.3,0.6,0.6,0.9,0.9c0.7,1.4,1.4,2.7,2.1,4.1l0,0c-3.1-0.2-3.9-2.3-4-4.9
			C423.9,342.6,424.2,342.6,424.5,342.6z"/>
		<path class="st108" d="M420.3,346.5c1.3,1.7,0.3,3-0.9,4.2c-0.4-1.1-0.7-2.1-1.1-3.2C419,347.2,419.6,346.8,420.3,346.5z"/>
		<path class="st109" d="M350,385c-0.4,1-0.8,2-1.2,3c-0.7,0-1.3,0.1-2,0.1c0-2.1,0-4.1,0-6.5c0.8-0.2,1.8-0.4,2.9-0.6
			C349.8,382.3,349.9,383.7,350,385z"/>
		<path class="st110" d="M363.3,349.7c2.3-0.5,3.6-1.9,4.2-4.1c1-0.4,2-0.9,3.1-1.3c-1.3,2.8-2.6,5.7-4.1,9c-1.4-1.2-2.2-1.9-3-2.6
			C363.3,350.4,363.3,350,363.3,349.7z"/>
		<path class="st111" d="M352.8,373.5c0.4-1,0.8-2.1,1.2-3.1c0.4,0.4,0.8,0.7,1.2,1.1c0,0.3,0,0.6,0.1,0.8
			C354.8,373.5,354.2,374.4,352.8,373.5z"/>
		<path class="st100" d="M384,219.1c0.3,0.3,0.6,0.6,0.9,1c-0.3,0.1-0.5,0.1-0.8,0.2c-1.1,1.3-2.2,2.7-3.3,4
			c-0.6,0.3-1.2,0.8-1.8,0.9c-0.5,0.1-1.5-0.2-1.7-0.6c-0.2-0.4,0-1.5,0.4-1.8c0.9-0.7,2-1.2,3.1-1.8C382,220.5,383,219.8,384,219.1
			z"/>
		<path class="st43" d="M380.9,224.3c1.1-1.3,2.2-2.7,3.3-4c1.3,1,2.6,2,4,3c-2.4,0.8-4.7,1.5-7.1,2.3
			C381,225.1,381,224.7,380.9,224.3z"/>
		<path class="st23" d="M399.7,229.5c-0.7,0-1.4,0-2.1,0c-1.7-1.4-3.4-2.7-5.1-4.1c1.6-0.1,3.3-0.2,4.9-0.3c2.4,0.7,4.9,1.3,5.4,4.4
			C401.7,229.4,400.7,229.4,399.7,229.5z"/>
		<path class="st112" d="M411.9,228.7c-0.3,0.6-0.6,1.3-0.9,1.9c-1.1,0-2.2,0.1-3.2,0.1c-1-0.1-1.9-0.2-2.9-0.3c1.9-1,3.7-2,5.6-2.9
			C410.9,227.9,411.4,228.3,411.9,228.7z"/>
		<path class="st113" d="M399.5,300.9c0.3,2.2,0.7,4.3,1,6.5c-0.4,1.4-0.8,2.8-1.2,4.2c-0.9-1.9-1.8-3.7-2.7-5.6
			C397.6,304.3,398.6,302.6,399.5,300.9z"/>
		<path class="st70" d="M393.6,297.9c-0.1-1-0.3-2.1-0.4-3.1c0.4-1.1,0.7-2.1,1.1-3.2c0,0,0.4,0.3,0.4,0.3
			C394.4,293.9,395.9,296.2,393.6,297.9z"/>
		<path class="st82" d="M394.3,291.6c-0.4,1.1-0.7,2.1-1.1,3.2c-0.6-0.7-1.2-1.3-1.8-2c0-0.4-0.1-0.8-0.1-1.1c0.7-1,1.4-2,2.1-3
			C393.7,289.6,394,290.6,394.3,291.6z"/>
		<path class="st103" d="M355.2,371.5c-0.4-0.4-0.8-0.7-1.2-1.1c-1.3-0.6-2.7-1.3-4-1.9c2-1.2,4-0.3,6-0.2c0.1,0.4,0.1,0.8,0.2,1.3
			C355.9,370.2,355.5,370.9,355.2,371.5z"/>
		<path class="st114" d="M356,368.4c0.4-1,0.8-2,1.1-3C360.2,367.7,357.2,367.7,356,368.4z"/>
		<path class="st115" d="M406.8,317.6c0,0.6,0,1.3,0,1.9c-1.4,0-2.7,0-4.1,0c-0.4-1.2-0.8-2.4-1.2-3.6c0.4-1.2,0.7-2.4,1.1-3.6
			C404.1,314.1,405.4,315.9,406.8,317.6z"/>
		<path class="st36" d="M382,332.1c-1.4,0-2.7,0-4.1,0c0-0.7,0-1.4,0-2.1c0.7-0.7,1.4-1.3,2.1-2c0.7,0.6,1.4,1.3,2.1,1.9
			c0.4,0,0.7,0.1,1.1,0.1C382.7,330.7,382.3,331.4,382,332.1z"/>
		<path class="st116" d="M382,332.1c0.3-0.7,0.7-1.4,1-2.1c0.7,0,1.4,0,2,0c1.4,0.4,2.8,0.7,4.2,1.1c0,0,0,0,0,0
			C387.1,333.4,384.5,332.3,382,332.1z"/>
		<path class="st77" d="M389.2,331c-1.4-0.4-2.8-0.7-4.2-1.1c0.6-0.7,1.2-1.4,1.9-2.2C387.7,328.9,388.5,330,389.2,331z"/>
		<path class="st1" d="M381.9,329.9c-0.7-0.6-1.4-1.3-2.1-1.9c-0.3-0.7-0.6-1.3-1.3-2.7C381.7,326.2,381.7,328.1,381.9,329.9z"/>
		<path class="st84" d="M418.3,329c0.1,1.7-0.2,3.3-2,4.1c-0.3,0-0.6,0-0.9,0.1C415,330.8,415.8,329.4,418.3,329z"/>
		<path class="st115" d="M407.9,319.6c2.3-2.7,2.3-2.7,4,0.3C410.5,319.8,409.2,319.7,407.9,319.6z"/>
		<path class="st117" d="M399.4,311.6c0.4-1.4,0.8-2.8,1.2-4.2c0.7,0.4,1.4,0.7,2.1,1.1c0,0.9,0.1,1.9,0.1,2.8c-1,0.3-2,0.7-3.1,1
			C399.5,312.1,399.4,311.8,399.4,311.6z"/>
		<path class="st118" d="M399.7,312.3c1-0.3,2-0.7,3.1-1l0,0c0,0.4,0,0.7,0,1.1c-0.4,1.2-0.7,2.4-1.1,3.6
			C400.9,314.8,400.3,313.5,399.7,312.3z"/>
		<path class="st64" d="M426.4,343.5c1.4-1,2.8-2.1,4.2-3.1c0.7,1.3,1.5,2.7,2.2,4c-0.4,0.7-0.9,1.4-1.3,2.1c0.4-2.2-1-2.7-2.8-2.9
			C428,343.5,427.2,343.5,426.4,343.5z"/>
		<path class="st119" d="M428.7,343.5c1.8,0.2,3.2,0.7,2.8,2.9c-0.6,0.4-1.2,0.7-1.8,1.1C429.4,346.2,429,344.9,428.7,343.5z"/>
		<path class="st105" d="M428.7,343.5c0.3,1.3,0.7,2.7,1,4c-0.7,0-1.4,0-2.2,0c-0.7-1.4-1.4-2.7-2.1-4.1c0.3,0,0.7,0,1,0
			C427.2,343.5,428,343.5,428.7,343.5z"/>
		<path class="st64" d="M430.6,340.4c-2.6-0.1-4-1.5-4.2-4.1c0.7,0,1.4,0,2.1-0.1c0.3,0.4,0.7,0.8,1,1.2
			C429.9,338.4,430.3,339.4,430.6,340.4z"/>
		<path class="st113" d="M402.7,311.3c0-0.9-0.1-1.9-0.1-2.8c0-1.1,0.1-2.3,0.1-3.4c0.3,0,0.7,0,1,0.1c0.4,0,0.7,0.1,1.1,0.1
			c0,1.7,0,3.4-0.1,5.1C404.1,310.6,403.4,311,402.7,311.3L402.7,311.3z"/>
		<path class="st120" d="M402.7,311.3c0.7-0.3,1.4-0.7,2.1-1c0.7,0.4,1.3,0.7,2,1.1c0,1,0.1,2,0.1,3c0,1.1,0,2.1,0,3.2
			c-1.4-1.7-2.8-3.5-4.2-5.2C402.7,312,402.7,311.7,402.7,311.3z"/>
		<path class="st121" d="M428.6,336.2c-0.7,0-1.4,0-2.1,0.1c-1,0.8-2.1,1.7-3.1-0.1c1-1.4,2-2.7,3.1-4.1
			C427.2,333.5,427.9,334.9,428.6,336.2z"/>
	</g>
	<g>
		<path class="st122" d="M292.3,444.2c-0.9-0.7-1.8-1.3-2.7-2c0-1.6,0-3.1,0.1-4.7c0.1-2.6,0.2-5.2,0.3-7.8c2.3-2.8,2.2-3.2-0.2-3.8
			c-0.4,0.1-0.7,0.2-1.1,0.2c0.1-2,0-4.1,0.3-6.1c0.5-3.3,2-6.8,1.6-10c-1.1-7.1,1.7-10.5,8.5-11.3c8-2.3,16.2-2.3,24.3-2.2
			c12,0.2,24,0.7,36,0.8c23.2,0.2,46.4,1.4,69.4,4.5c16.8,2.3,33.5,4.8,50.3,6.8c6.9,0.8,14,0.5,21.1,0.3c4.5-0.2,5.3-1.3,5.5-5.5
			c0.1-0.9-0.1-2.5,0.2-2.6c4-1.1,1.5-4.1,1.8-6.1c0.2-2-0.4-4.1-0.4-6.2c0.1-7.9,0.5-15.8,0.4-23.8c-0.1-5.8-0.9-11.6-1-17.4
			c-0.4-14.2-0.5-28.5-0.9-42.7c-0.4-17.7-1.1-35.3-1.4-53c-0.3-16.9,1.4-33.8-0.9-50.7c0.4,0,0.9,0,1.3-0.1
			c0.4,1.9,0.8,3.8,1.1,5.7c0,3-0.1,6.1,0.1,9.1c0.1,2.4,0.6,4.8,4.2,5.9c1.3-4.5,2.5-8.6,3.7-12.7c0-1.9,0-3.8,0-5.7
			c0.3-1.5,0.7-3,1-4.6c0-2.7,0-5.3,0.1-8c0.3,1.8,1,3.7,1,5.5c-0.1,8.7-0.5,17.5-0.6,26.2c-0.1,12.9-0.3,25.8-0.1,38.8
			c0.2,13.1,0.6,26.2,1,39.3c0.2,6.8,0.8,13.7,1.1,20.5c-1.6-2.5-4.2-4.2-3.6-7.9c0.6-4.5,0.3-9.1,0.8-13.6
			c0.5-4.8-3.5-8.6-2.6-13.6c0.4-2.3-1.8-3.5-4.7-1.4c3.6,2.6,3.7,5.7,1.5,9.7c-0.5-1.8-0.8-2.9-1.1-4c-0.3,0-0.6,0.1-0.9,0.1
			c0.5,12.2,0.9,24.5,1.4,36.5c1.8,2.1,5.6,2.5,4.6,6.7c-1.6-0.3-2.8-0.5-3.9-0.7c-1.7,3.5,0.5,5.3,3.2,6.9c-3.5,2.7-1.2,4.9,0.1,7
			c1.2,2,2.9,3.9,1.2,6.2c-2.2,3.2-1.3,5.5,1.1,8c1.2,1.2,1.4,3.4,2,5.2c0.1,0.5-0.2,1-0.3,1.6c-1.1-0.1-2.1-0.2-3.3-0.4
			c-0.1,3.5,1.6,5.1,5.2,5.9c0.2-4.1,0.3-7.9,0.5-11.6c0.6,8.7,1.3,17.4,1.8,26.1c0.3,5.5,0.2,11,0.2,16.5c0,1.3-0.6,2.5-0.9,3.8
			c0-3.4-0.2-6.8-0.1-10.2c0.1-3.3-0.4-6-4.4-6.8c-1.3-0.2-2.4-1.4-3.8-2.4c-0.5,1.1-1.4,2.1-1.2,2.7c0.7,2.1,1.9,4,2.9,6
			c-3.9,6.2-4.9,14-12.6,19.1c4,0,6.6,0,9.3,0c-0.3,1.8-0.5,2.8-0.8,4.2c2.8-0.6,5-1.1,7.2-1.6c-0.1,0.4-0.1,0.8-0.2,1.2
			c-3.7,3.8-8.1,4.2-13.3,2.6c0.7-1,1.3-1.9,1.9-2.8c0.4-0.5,0.7-1.1,1.1-1.6c-0.2-0.3-0.4-0.7-0.5-1c-2.4,0.6-4.9,1.2-7.3,1.7
			c-3.8-0.2-3.8-0.2-5.8,1.8c0.9,0.1,1.6,0.2,2.3,0.3c2.4,0.3,5.2-0.2,6.3,3.8c-2,0.3-3.5,0.7-5.1,0.8c-2.3,0.2-3.9,1-4.5,3.4
			c-1.9,0.9-3.8,1.4-5.7,0c-1.1-2.6-2.3-5.1-3.5-7.8c-1.2-0.2-2.5-0.3-3.5-0.5c-0.2-2.9-0.4-5.5-0.6-8.1c-1.9-0.1-3.6,0-5.3-0.3
			c-5.8-1-11.6-1.6-17.5,0c-1.5,0.4-4.8,1.7-5.6-2c-0.1-0.4-1.2-0.5-1.9-0.7c-3.2-1.1-5.4,1.1-8,2.2c-0.4-0.4-0.8-0.8-1.1-1.1
			c0.2-1,0.4-2.1,0.5-3c2.3-0.4,4.8,1,6.1-2.4c-2.8-0.5-5.3-1-7.8-1.4c-3.6-0.1-7.2,0-10.7-0.4c-4.1-0.5-8.2-2.1-12.3-2
			c-4.1,0.1-8.7-1.1-11.6,2.1c-7.6-2.6-14.6-4.7-21.9-0.2c-1.3-2-2.6-2.6-5.5-1.7c-3,0.9-6.9,1.9-10.2-0.7c-0.6-0.4-1.8-0.1-2.6-0.1
			c-0.8,2-1.5,3.6-2.5,6c-3.5-5-7.2-3-11.1-0.8c0.2-2,0.4-3.3,0.6-5.3c-1.7,0.8-2.8,1.4-3.9,1.9c-6.8-5.5-12.1-2.7-18.7,2.1
			c-4.2,0-7.7,0-11.4,0c0.4-1,0.7-2.2,1.4-4c-4-0.3-7.4-0.5-10.8-0.7c-1.4,1.5-1.3,4.4-4.7,4c0-1.3,0-2.6,0-5.1
			c-1.4,1.8-2.3,2.5-2.6,3.5c-1.6,4.3-3.1,8.6-4.6,12.9c-0.2,0.7-0.6,1.6-0.4,2.2c1.4,4.2-0.2,8.3,0,12.4c0.1,3.3,1.4,6.6,2.9,9.6
			c1.2,2.5,3.8,0.1,5.8,0.5c0.6,0.1,1.1,0.2,1.7,0.4c2.8,1.2,5.1,0.2,7.5-1.3c3.6-2.2,3.7-2.1,7.4,0.7c0.3-1.5,0.6-2.9,1-4.7
			c3,1.2,5.7,2.3,8.6,3.5c5.1-2.1,5.2-2.3,8.9,1.7c1.8,2,3.7,1.6,5.7,0.9c3.7-1.4,6.8-1.1,8.6,3.1c5.3-2.7,8.6-0.2,11.2,3.8
			c-6.2,1.8-18.6,0.5-23.8-2.8c-2.5-1.5-4.7-2-7.4-0.8c-1.4,0.6-2.9,0.9-4.3,1.4c-3.7,0-7.4,0-11.2,0.1c-3.6,0.5,0.9,2.8-0.9,3.7
			c-0.9-0.1-1.8-0.2-2.7-0.4C305.4,449.5,298.7,447.5,292.3,444.2z M508.8,226c-0.7,1.5-2,3.1-1.9,4.6c0.4,3.9,1.5,7.7,2.3,11.6
			c2.1-0.3,3.3-1.1,2.1-3c-1.4-2.2-0.5-4,0.5-5.9C514.2,228.9,514.2,228.9,508.8,226z M509.8,258.6c2.7-7.1,2.8-7.4,1.5-11.5
			C507.5,252,507.3,253.5,509.8,258.6z M511.9,261c-1.8,1.7-3.9,2.3-3,5.1c1.6-0.2,3.1-0.4,5.1-0.6
			C513.2,263.9,512.7,262.8,511.9,261z M510.3,373.5c-0.8,1.8-1.5,3.3,0.5,4.4c0.4,0.2,1.5-0.4,1.8-0.8
			C513.5,375.3,512.6,374.3,510.3,373.5z M513.2,276.9c-0.5-0.1-1-0.1-1.5-0.2c-0.1,1-0.3,2.1-0.4,3.1c0.5,0,1.4,0.1,1.4,0
			C513,278.9,513.1,277.9,513.2,276.9z M516.5,382.5c-0.3,0.1-0.6,0.3-0.8,0.4c0.3,0.7,0.7,1.3,1,2c0.3-0.2,0.8-0.4,0.8-0.5
			C517.2,383.8,516.8,383.1,516.5,382.5z"/>
		<path class="st122" d="M284,212.1c-0.2-1.5-0.6-3-0.6-4.5c0-7.8,0.1-15.6,0-23.3c0-2.2-0.7-4.4-1.4-6.5
			c-1.9-6.4-4.3-12.6-2.2-19.5c2.2-7.3,7.8-11.4,13.6-15.4c0.9-0.6,2.4-0.6,3.1-1.4c3.8-4.5,9-4.5,14.2-4.5c6.3,0,12.5,0.5,18.8,0.8
			c7.6,0.4,15.2,0.9,22.8,1.5c14.2,1.1,28.4,2.4,42.6,3.6c14.8,1.3,29.5,2.7,44.3,3.9c13.3,1.1,26.5,1.5,39.9,1.1
			c11.4-0.3,22.7,1.7,33.8,7c0.7,11.4,1.4,22.9,2.1,34.4c-1.3-3.8-2.6-7.6-3.9-11.4c-0.2-0.5-0.2-1.2,0.1-1.6c1.3-2.5-1-3.7-2-5.3
			c4-1.8,4-2,0.7-4.6c-0.3-0.2-0.4-0.6-0.7-0.9c1.3-1.6,1.3-2.7-1.1-2.5c-0.8,0.1-1.6,0.8-2.3,1.2c-0.4,0-0.8,0-1.2,0.1
			c-0.7-0.4-1.4-0.8-2.4-1.4c1.5-0.9,2.5-1.5,3.6-2.1c2.6-1.8,0.2-4.1,1.5-6.8c-6.2-1.3-11.8-2.6-17.4-3.5c-1-0.2-2.3,1.5-3.5,2.3
			c-1.1-0.9-1.2-3.2-3.4-2.3c-1.1,0.8-2.3,1.5-3.4,2.3c-4.2-4-4.6-4-10-1.8c-1.2,0.5-2.6,1.3-3.7,1.1c-2.7-0.6-5.3-1.7-7.9-2.5
			c-2.7-0.9-5.2,1.8-8.3,0.1c-4-2.3-8.3-2.2-12.5,0.2c-0.9,0.5-2.5,1.1-3.1,0.7c-4.8-3.1-10.4-1.1-15.5-2.8
			c-6.7-2.4-13.3-2.1-19.5,2.1c-0.9,0.6-3.2,0.1-4.1-0.8c-2.7-2.3-5.7-3-9-2.5c-4.3,0.7-8.2,0.1-11.3-3.1c-4.7,4.4-6.1,4.5-13.4,0.8
			c-1.2,0.7-2.5,1.4-4,2.4c-1.3-1.4-2.2-2.9-3.5-3.9c-2.5-1.8-5.7-1.6-7.3,0.1c-3.2,3.5-6.7,4.6-11.1,3.9c-1.4-0.2-2.9,0.2-4.4,0.3
			c0-0.4,0-0.8,0-1.1c-0.3-1.6-0.1-3.5-0.9-4.8c-1.4-2.2-3.4-2.4-4.8,0.3c-0.8,0-1.5,0-2.3,0c-1.9,0-3.8,0-5.7,0c-1.9,0-3.7,0-5.6,0
			c1.9,0.6,3.3,4.1,5.6,1.1c0.4,0.4,0.8,0.8,1.1,1.1c0.3,2,1.3,4.2-1.3,5.4c-2.5,1.2-4.8,0.2-6.8-1.2c-0.4-0.3-0.4-1.3-0.8-1.4
			c-2.3-0.9-4.8-2.5-7.1-2.3c-3,0.3-2.7,3.6-3.1,6c-0.1,0.8,0.5,1.8,0.8,2.6c-0.2,1.4-0.4,2.7-0.6,4.1c-2.7-3.5-0.4-8.2-3.4-11.5
			c-4.8,2-7,5.9-8.6,10.2c-1-0.5-1.6-0.7-2.4-1.1c-1.2,4.2-3.1,7.9-0.5,12.1c1.7,2.8-0.5,4.8-1.4,5.8c2.2,6.5,4.2,12.2,6,17.5
			c4.3,0.2,8.2,0.4,12.1,0.7c0.8,0.8,1.5,1.7,2.3,2.5c-3.3-0.6-6.7-1.2-10.5-1.9c0,1.8,0,3.5,0,5.1c-0.2,9.5-0.6,18.9-0.7,28.4
			c-0.1,14.8-0.8,29.5,0.7,44.3c1.1,11.3,1.1,22.7,1.5,34c0.4,15.9,0.7,31.8,1.1,47.7c0,1.4,0.8,2.9,1.2,4.3l0-0.1
			c-0.6,2.2-1.2,4.5-1.8,6.7c-0.5-6-0.9-11.8-6.2-15.7c0-0.4,0-0.8,0-1.1c4.4-5.2,4.2-11,0.8-16.5c-1-1.6-1.3-3.5-2-5.2
			c-0.3-1.2-0.7-2.3-1-3.5c1.3-2.3,1.3-4.5,0-6.8c-0.4-8-0.8-16-1.2-24c-0.2-6.8-0.4-13.6-0.5-20.5c0-5.1,0.3-10.1,0.4-15.2
			c0-1.5,0.1-3,0-4.4c-0.3-3-0.8-6-0.9-9C284,230.6,284,221.4,284,212.1z"/>
		<path class="st123" d="M479.5,153c1.1-0.8,2.3-1.5,3.4-2.3c1.1,0.9,1.2,3.2,3.4,2.3c1.7,0.6,3.5,1.8,5.2,1.7
			c5.9-0.4,10.6,1.8,14.3,6.3c-1,0.6-2.1,1.2-3.6,2.1c1,0.6,1.7,1,2.4,1.4c-0.3,3.3,0.9,5,4.6,6.8c1,1.6,3.3,2.7,2,5.3
			c-0.2,0.4-0.2,1.1-0.1,1.6c1.3,3.8,2.6,7.6,3.9,11.4c-0.1,0.4-0.1,0.8-0.2,1.2c0,2.7,0,5.3-0.1,8c-4,1.7-4.1,2.1-1,4.6
			c0,1.9,0,3.8,0,5.7c-1.6,0.7-3.1,0.9-4.6-0.5c-0.9-0.8-2.2-1.2-3.4-1.8c-0.4-1.9-0.8-3.8-1.1-5.7c-0.5-0.8-0.9-2.1-1.6-2.4
			c-2.4-0.9-5-1.5-7.5-2.2c-1.5-1.5-3.4-2.7-4.3-4.4c-1.7-3.4-4.7-3.3-7.6-3.5c-1.3-0.1-2.6,0.1-3.8-0.2c-3.7-1-7.5-2.1-11.1-3.2
			c-2.3,6.8-2.5,6.9-8.8,6.3c-0.7-0.1-1.5,0.1-2.2,0.1c-3.4,0.1-6.7,0.2-10.1,0.3c-1.9-4.3-6.5-2.7-9.6-4.3
			c-2.3,3.1-6.3,1.6-9.2,4.2c-1.2-2.6-2.1-4.7-3-6.7c2.3,0,4.6,0,6.9,0c1.2-0.6,3.4-1,3.6-1.8c0.9-4.1-4.4-0.9-4.8-4.6
			c1.4-0.8,3-1.8,4.7-2.8c0.8,0,1.5,0,2.3,0c2.4,1.5,4.5,4.1,7.9,3.2c7.3-1.9,14.5-0.1,21.7,0.8c2.5,0.3,5,0.7,7,0.9
			c3.8-4.2,0.7-6.1-2.6-8.5c2.1-0.4,3.1-0.9,3.9-0.7c5.6,1.4,6.5,0.8,6.7-4.9c5.2,1.6,11,0,13.8-4.1c-2.9-1.7-5.8-3.4-8.6-5
			c-0.8,0.9-1.2,1.5-1.7,2.1c-0.4,0.1-0.8,0.1-1.1,0c-1.1-0.7-2.2-2-3.4-2.1c-2.5-0.2-5.1,0.2-7.7,0.3c-1.6,0.1-2.5-0.5-1.9-2.3
			C474.7,154.7,477.1,153.8,479.5,153z"/>
		<path class="st124" d="M327.4,446.7c1.4-0.4,2.9-0.7,4.3-1.4c2.7-1.2,5-0.7,7.4,0.8c5.2,3.3,17.6,4.6,23.8,2.8c0.4,0,0.8,0,1.1,0
			c2.7,0.8,5.3,1.5,8,2.3c1.9,0,3.8,0,5.7,0c1.1,0,2.3,0,3.4,0c1.9,0,3.8,0,5.7,0c2.7,0.4,5.3,0.8,8,1.1c0.4,0,0.8,0,1.1,0
			c3.4,0.4,6.9,0.8,10.3,1.1c0.8,0,1.5,0,2.3,0c2.7,0.4,5.3,0.7,8,1.1c3.5-0.5,7-1,11-1.5c1.5,2.6,4.7,2.9,8,2.7
			c9.4-0.6,18.9-1.6,28.3-1.9c5.4-0.1,10.5-1.3,15.4-3.2c3.5-1.4,6.5-3.6,9-7c-1.5-0.5-2.5-0.8-3.7-1.2c2.7-4.3,3.8-9.3,7.4-13
			c0.4,0,0.9-0.1,1.3-0.1c0.3,0,0.7,0.1,1,0.2c1.1,0.6,2.1,1.2,3.9,2.1c-1.6,0.4-2.7,0.5-3.3,1c-0.8,0.6-1.9,1.6-1.8,2.3
			c0.1,0.8,1.2,1.8,2.1,2.1c1.2,0.4,2.6,0.2,3.9,0.2l0.5,0l0.5,0c0.9,3.1-1.7,3.5-3.4,4.7c-1.8,0.2-3.7,0.2-4.8,2.5
			c1.3,0.7,2.4,1.3,3.6,1.9c-0.9,0.6-3.5,0.5-1.1,2.6c-0.4,0.9-0.9,1.9-1.4,3c2.5,1.1,5.9,0.4,6,4.3c-1.5,1-3,2-4.5,3
			c-2.6,0.6-5.1,1.4-7.7,1.7c-14.7,1.5-29.2-1-43.8-2.2c-11-0.9-21.9-2.2-32.9-3.1c-14.8-1.3-29.5-2.4-44.3-3.5
			c-2.8-0.2-5.7-0.1-8.5-0.2c-6.4-0.3-12.9-0.6-19.3-0.9c-0.4-0.8-0.7-1.5-1.1-2.3c-1.3-0.5-2.6-1.3-4-1.6
			C330.9,447,329.2,446.9,327.4,446.7z"/>
		<path class="st122" d="M518.5,361.8c-0.2,3.7-0.3,7.5-0.5,11.6c-3.6-0.8-5.3-2.4-5.2-5.9c1.2,0.1,2.2,0.2,3.3,0.4
			c0.1-0.6,0.4-1.2,0.3-1.6c-0.5-1.8-0.8-3.9-2-5.2c-2.4-2.6-3.3-4.9-1.1-8c1.6-2.3,0-4.2-1.2-6.2c-1.3-2.1-3.6-4.3-0.1-7
			c-2.7-1.5-4.9-3.3-3.2-6.9c1.2,0.2,2.4,0.4,3.9,0.7c0.9-4.2-2.9-4.6-4.6-6.7c-0.5-12-0.9-24.2-1.4-36.5c0.3,0,0.6-0.1,0.9-0.1
			c0.3,1.1,0.6,2.2,1.1,4c2.3-4,2.2-7.1-1.5-9.7c2.9-2.1,5.1-1,4.7,1.4c-0.9,5,3.1,8.8,2.6,13.6c-0.5,4.5-0.2,9.1-0.8,13.6
			c-0.5,3.7,2.1,5.5,3.6,7.9c0.5,9.1,1.2,18.1,1.5,27.2C519,352.7,518.6,357.2,518.5,361.8z"/>
		<path class="st125" d="M288.7,344.9c0,0.4,0,0.8,0,1.1c-0.1,2.3-0.3,4.5-0.2,6.8c0,1,0.3,2.3,0.9,3c2.1,2.4,1.6,5,1.5,8
			c-0.3,4.2-3,8.9,1.3,12.8c0.5,0.5,0.2,2.2-0.1,3.2c-1.6,3.9-0.4,7.7,0.2,11.9c1.8-0.4,3.2-0.8,4.6-1.1c0,1.5-0.3,3.1,0.1,4.5
			c0.3,1.3,1.4,2.4,2.1,3.6c-6.7,0.8-9.5,4.2-8.5,11.3c0.5,3.2-1.1,6.6-1.6,10c-0.3,2-0.2,4.1-0.3,6.1c-0.8,0.7-1.6,1.3-2.4,2
			c-0.4,0.1-0.7,0.2-1,0.3c-0.4-0.8-1.3-2-1-2.4c2.9-4.2,0.1-9.6,2.8-13.8c0.3-0.4-0.4-1.4-0.6-2.1c0.5-2.8,1.1-5.5,1.4-8.3
			c0.3-2.5,1.6-5.2-0.4-7.6c-0.6-10.1,0.4-20.3-1-30.5c-0.7-4.7-0.4-9.7,0-14.6c0.5-6-0.7-12.1-0.9-18.1c-0.6-14-1-28-1.5-42
			c0.4,0,0.8,0,1.2,0.1c0.4,8,0.8,16,1.2,24c0,2.3,0,4.5,0,6.8c0.3,1.2,0.7,2.3,1,3.5c-0.1,1.8-0.4,3.7-0.3,5.5
			C287.6,334.1,288.2,339.5,288.7,344.9z"/>
		<path class="st122" d="M516.1,419.2c-2.2,0.5-4.4,1-7.2,1.6c0.3-1.4,0.5-2.5,0.8-4.2c-2.7,0-5.3,0-9.3,0
			c7.6-5.1,8.7-12.9,12.6-19.1c-1-2-2.2-3.9-2.9-6c-0.2-0.6,0.7-1.6,1.2-2.7c1.4,0.9,2.5,2.1,3.8,2.4c4,0.8,4.5,3.5,4.4,6.8
			c-0.1,3.4,0.1,6.8,0.1,10.2c0,0.6,0,1.2,0,1.8C518.5,413,517.3,416.1,516.1,419.2z"/>
		<path class="st2" d="M285.2,289c-0.4,0-0.8,0-1.2-0.1c-0.4-5.3-1-10.5-1.1-15.8c-0.1-14.9,0-29.8,0.2-44.8
			c0.1-5.4,0.6-10.9,0.9-16.3c0,9.3,0,18.5,0.2,27.8c0.1,3,0.7,6,0.9,9c0.1,1.5,0,3,0,4.4c-0.1,5.1-0.4,10.1-0.4,15.2
			C284.8,275.3,285,282.2,285.2,289z"/>
		<path class="st57" d="M516.1,419.2c1.2-3.1,2.4-6.2,3.6-9.3c0.2,1,0.8,2.1,0.6,3.1c-0.9,4.7-2.1,9.4-3.1,14.1
			c-0.7,2.1-1.4,4.2-2,6.3c-0.5,1.8-4.3,10.1-5.8,12.2c0.6-2.4,0.9-4.8,1.7-7.1c0.7-2.1,0.9-3.8-0.1-5.9c-2.2-4.5-2.1-4.8,2.2-7.8
			c1.7-1.2,2.8-2.4,2.7-4.5C516,420,516,419.6,516.1,419.2z"/>
		<path class="st126" d="M509.4,445.6c1.5-2.1,5.3-10.4,5.8-12.2c0.6-2.1,1.3-4.2,2-6.3c0.1,10.6-2.1,20.3-10.4,27.8
			c-1.4-0.9-2.9-1.7-4.3-2.6c-0.4-0.8-0.9-1.5-1.3-2.3l0,0c2.1-0.6,4.2-0.9,6.2-1.8C508.2,447.8,508.7,446.5,509.4,445.6
			L509.4,445.6z"/>
		<path class="st127" d="M502.4,452.3c1.4,0.9,2.9,1.7,4.3,2.6c-3.3,3.7-8,3.5-12.3,4.5c1.5-1,3-2,4.5-3c-0.1-4-3.5-3.3-6-4.3
			c0.5-1.1,0.9-2,1.4-3c1.2-0.4,2.3-0.9,3.5-1.3c0.7,0.1,1.4,0.2,2.2,0.3c0.4,0.6,0.8,1.3,1.2,1.9l0,0c-0.6,0.4-1.3,0.9-1.9,1.3
			C500.3,451.6,501.3,451.9,502.4,452.3z"/>
		<path class="st128" d="M292.3,444.2c6.4,3.3,13.1,5.3,20.3,5.9c0.1,0.8,0.2,1.6,0.2,2.4c-2.9,0.7-5.9,2.7-7.9-1.7
			c-0.3-0.7-2.8-0.6-4.2-0.5c-1.6,0.1-3.2,0.6-4.9,1C294.5,448.8,293.4,446.5,292.3,444.2z"/>
		<path class="st129" d="M312.8,452.6c-0.1-0.8-0.2-1.6-0.2-2.4c0.9,0.1,1.9,0.2,2.7,0.4c1.8-0.9-2.6-3.3,0.9-3.7
			c1.3,2.5,3.6,2.4,5.8,2.4c4.9-0.1,9.7-0.1,14.6-0.1c0.4,0.8,0.7,1.5,1.1,2.3C329.5,451.7,321.1,452.1,312.8,452.6z"/>
		<path class="st21" d="M287.4,394.2c2,2.4,0.7,5.1,0.4,7.6c-0.3,2.8-0.9,5.6-1.4,8.3c-2.8-4.5-3.1-8.9,0-13.4
			C286.8,395.9,287,395,287.4,394.2z"/>
		<path class="st117" d="M285.2,428.4c0.3-0.2,0.7-0.3,1-0.3c0.7,0.4,1.4,0.8,2.1,1.2c0.2,1.9,0.3,3.9,0.5,5.8
			c-0.9,0.7-1.8,1.4-2.6,2.1C287.6,434.1,285.9,431.3,285.2,428.4z"/>
		<path class="st114" d="M286.2,437.2c0.9-0.7,1.8-1.4,2.6-2.1c0.3,0.8,0.6,1.6,0.8,2.5c0,1.6,0,3.1-0.1,4.7
			C287.9,440.9,285.8,439.9,286.2,437.2z"/>
		<path class="st130" d="M492,429.6c-3.6,3.6-4.6,8.7-7.4,13c1.2,0.4,2.2,0.7,3.7,1.2c-2.5,3.4-5.4,5.6-9,7c-5,1.9-10,3.1-15.4,3.2
			c-9.5,0.2-18.9,1.2-28.3,1.9c-3.3,0.2-6.5-0.1-8-2.7c-4.1,0.6-7.5,1-11,1.5c-2.2-3.5-5.2-1.7-8-1.1c-0.8,0-1.5,0-2.3,0
			c-3.1-3.3-6.6-3.3-10.3-1.1c-0.4,0-0.8,0-1.1,0c-2.5-1.2-5.1-2.6-8-1.1c-1.9,0-3.8,0-5.7,0c-1.1-1.4-2.3-2.4-3.4,0
			c-1.9,0-3.8,0-5.7,0c0.4-1.7,0.9-3.4,1.3-5c-4.7-2.6-6.8,0.6-9.3,2.8c-0.4,0-0.8,0-1.1,0c-2.7-4-5.9-6.5-11.2-3.8
			c-1.9-4.2-4.9-4.5-8.6-3.1c-2,0.8-3.8,1.1-5.7-0.9c-3.7-3.9-3.8-3.8-8.9-1.7c-2.9-1.2-5.7-2.3-8.6-3.5c-0.4,1.8-0.7,3.1-1,4.7
			c-3.8-2.9-3.8-3-7.4-0.7c-2.4,1.5-4.7,2.5-7.5,1.3c-0.5-0.2-1.1-0.3-1.7-0.4c-1.9-0.4-4.5,1.9-5.8-0.5c-1.5-3-2.8-6.4-2.9-9.6
			c-0.2-4.1,1.4-8.2,0-12.4c-0.2-0.6,0.2-1.5,0.4-2.2c1.5-4.3,3-8.6,4.6-12.9c0.4-1,1.3-1.7,2.6-3.5c0,2.5,0,3.8,0,5.1
			c3.3,0.3,3.3-2.5,4.7-4c3.4,0.2,6.9,0.4,10.8,0.7c-0.6,1.8-1,3-1.4,4c3.7,0,7.1,0,11.4,0c6.6-4.9,11.9-7.7,18.7-2.1
			c1-0.5,2.2-1.1,3.9-1.9c-0.2,2-0.4,3.3-0.6,5.3c3.9-2.2,7.6-4.1,11.1,0.8c1-2.4,1.7-4,2.5-6c0.8,0,2-0.4,2.6,0.1
			c3.3,2.6,7.2,1.6,10.2,0.7c2.9-0.9,4.2-0.3,5.5,1.7c7.4-4.6,14.4-2.5,21.9,0.2c2.9-3.2,7.5-2,11.6-2.1c4.1-0.1,8.2,1.5,12.3,2
			c3.5,0.4,7.2,0.3,10.7,0.4c-0.7,1-1.3,2.1-2,3.1c1.1,1.3,2.1,2.5,3.2,3.7c0.4,0.4,0.8,0.8,1.1,1.1c0.4,3.6,0.2,7.4,1.5,10.6
			c1.4,3.3,4.2,6.1,6.6,8.9c0.5,0.5,2.2,0.8,2.6,0.5c2.6-2.6,4.8-0.3,7.2,0.4c1.5,0.5,3.4,1,3.9-0.8c0.9-3.3,1.8-6.4,4.7-8.5
			c0.4-0.3,0-1.6-0.1-2.9c4.6,1.5,5,6.3,8.2,8.8c-1.9,0.3-3.5-0.2-5.1-0.1c-0.9,0-1.8,0.9-2.7,1.4c0.7,1,1.4,2.8,2,2.8
			c2,0,4.3-0.3,5.8-1.4c3.4-2.5,6.9-3.4,11-2.6c1.9,1.4,3.8,0.8,5.7,0C491.3,429.5,491.7,429.5,492,429.6z M449.4,437.2
			c0.3-0.1,0.6-0.2,0.9-0.3c-0.2-0.3-0.4-0.8-0.5-0.7c-0.4,0-0.7,0.3-1.1,0.5C448.9,436.8,449.2,437,449.4,437.2z"/>
		<path class="st122" d="M485.2,429.5c-4.1-0.9-7.6,0.1-11,2.6c-1.5,1.1-3.8,1.4-5.8,1.4c-0.7,0-1.4-1.8-2-2.8
			c0.9-0.5,1.8-1.3,2.7-1.4c1.6-0.1,3.2,0.4,5.1,0.1c-3.2-2.4-3.6-7.3-8.2-8.8c0.1,1.2,0.5,2.6,0.1,2.9c-2.9,2.2-3.8,5.3-4.7,8.5
			c-0.5,1.8-2.4,1.3-3.9,0.8c-2.3-0.7-4.5-3-7.2-0.4c-0.4,0.4-2.1,0.1-2.6-0.5c-2.4-2.8-5.3-5.6-6.6-8.9c-1.3-3.2-1.1-7.1-1.5-10.6
			c2.6-1.1,4.8-3.3,8-2.2c0.6,0.2,1.8,0.3,1.9,0.7c0.8,3.7,4.1,2.4,5.6,2c5.9-1.6,11.6-1,17.5,0c1.7,0.3,3.4,0.2,5.3,0.3
			c0.2,2.6,0.4,5.2,0.6,8.1c1.1,0.2,2.3,0.3,3.5,0.5C482.9,424.4,484.1,426.9,485.2,429.5z"/>
		<path class="st131" d="M492,429.6c-0.4,0-0.7-0.1-1.1-0.1c0.6-2.3,2.3-3.2,4.5-3.4c1.6-0.1,3.1-0.5,5.1-0.8
			c-1.1-4-3.9-3.5-6.3-3.8c1.2-0.4,2.3-0.9,3.5-1.3c2.3,0,4.5,0.1,6.8,0.1c-0.6,0.9-1.3,1.8-1.9,2.8c5.2,1.6,9.6,1.2,13.3-2.6
			c0.1,2.1-1,3.3-2.7,4.5c-4.3,3-4.3,3.3-2.2,7.8c1,2.1,0.8,3.8,0.1,5.9c-0.8,2.3-1.2,4.7-1.7,7.1l0,0c-2.8,0.3-3.2-1.7-3.8-3.7
			c-1.9-2.1-3.6,0.3-5.4,0.1c-1.2,0-2.4,0-3.6-0.1c1.7-1.1,4.4-1.6,3.4-4.7c1.1-0.8,2.1-1.5,4.1-2.9c-3.3,0-4.6,0.9-5.1,2.9
			c-1.3,0-2.7,0.2-3.9-0.2c-0.9-0.3-2-1.3-2.1-2.1c-0.1-0.7,1-1.8,1.8-2.3c0.7-0.5,1.7-0.5,3.3-1c-1.7-1-2.8-1.6-3.9-2.1
			c2.9-0.3,6.1,0.7,8.6-1.5c-0.1-0.4-0.2-0.8-0.3-1.3c-3.1,0.9-6.2,1.7-9.3,2.6C492.9,429.5,492.5,429.5,492,429.6z"/>
		<path class="st122" d="M505.8,206.7c1.1,0.6,2.5,0.9,3.4,1.8c1.5,1.4,3,1.3,4.6,0.5c-1.2,4.1-2.4,8.2-3.7,12.7
			c-3.6-1.1-4-3.5-4.2-5.9C505.7,212.7,505.8,209.7,505.8,206.7z"/>
		<path class="st122" d="M508.8,226c5.4,2.9,5.4,2.9,3.1,7.3c-1,1.8-1.9,3.7-0.5,5.9c1.2,1.9,0,2.7-2.1,3c-0.8-3.9-1.9-7.7-2.3-11.6
			C506.7,229.2,508.1,227.6,508.8,226z"/>
		<path class="st122" d="M509.8,258.6c-2.5-5.1-2.3-6.6,1.5-11.5C512.6,251.2,512.5,251.5,509.8,258.6z"/>
		<path class="st122" d="M503.3,201c-4.9-1.2-9.7-2.4-14.6-3.6c-1.6-0.4-3.3-0.6-4.9-0.9c0.8-0.4,1.7-0.8,2.5-1.3c0.4,0,0.8,0,1.1,0
			c2.7,0.4,5.3,0.8,8,1.1c2.5,0.7,5.1,1.3,7.5,2.2c0.7,0.3,1.1,1.5,1.6,2.4C504.2,201,503.8,201,503.3,201z"/>
		<path class="st59" d="M336.7,449c-4.9,0-9.7,0.1-14.6,0.1c-2.3,0-4.6,0.1-5.8-2.4c3.7,0,7.4,0,11.2-0.1c1.7,0.2,3.5,0.3,5.2,0.7
			C334,447.7,335.3,448.4,336.7,449z"/>
		<path class="st122" d="M438.4,411.2c-1-1.2-2.1-2.5-3.2-3.7c0.6-1,1.3-2,2-3.1c2.5,0.5,5,0.9,7.8,1.4c-1.3,3.4-3.8,2-6.1,2.4
			C438.7,409.1,438.5,410.2,438.4,411.2z"/>
		<path class="st122" d="M511.9,261c0.8,1.8,1.3,2.9,2.1,4.5c-2,0.2-3.5,0.4-5.1,0.6C508,263.3,510.1,262.7,511.9,261z"/>
		<path class="st122" d="M510.3,373.5c2.3,0.8,3.3,1.8,2.3,3.5c-0.3,0.5-1.4,1-1.8,0.8C508.8,376.8,509.4,375.3,510.3,373.5z"/>
		<path class="st39" d="M504.6,420.3c-2.3,0-4.5-0.1-6.8-0.1c0-0.3,0-0.5,0-0.8c2.4-0.6,4.9-1.2,7.3-1.7c0.2,0.3,0.4,0.7,0.5,1
			C505.3,419.2,505,419.7,504.6,420.3z"/>
		<path class="st122" d="M513.2,276.9c-0.1,1-0.2,2-0.5,3c0,0.1-0.9,0-1.4,0c0.1-1,0.3-2.1,0.4-3.1
			C512.3,276.8,512.8,276.8,513.2,276.9z"/>
		<path class="st122" d="M513.8,203.2c-3.1-2.5-3-2.9,1-4.6C514.5,200.2,514.1,201.7,513.8,203.2z"/>
		<path class="st125" d="M289.7,437.5c-0.3-0.8-0.6-1.6-0.8-2.5c-0.2-1.9-0.3-3.9-0.5-5.8c0.4,0,0.9,0.1,1.3,0.1l0.3,0.3
			C289.9,432.3,289.8,434.9,289.7,437.5z"/>
		<path class="st122" d="M516.5,382.5c0.3,0.7,0.7,1.3,1,2c0,0-0.5,0.3-0.8,0.5c-0.3-0.7-0.7-1.3-1-2
			C515.9,382.8,516.2,382.6,516.5,382.5z"/>
		<path class="st33" d="M497.8,419.4c0,0.3,0,0.5,0,0.8c-1.2,0.4-2.3,0.9-3.5,1.3c-0.7-0.1-1.4-0.2-2.3-0.3
			C494,419.2,494,419.2,497.8,419.4z"/>
		<path class="st125" d="M289.8,425.9c2.5,0.6,2.5,1,0.2,3.8c0,0-0.3-0.3-0.3-0.3C289.7,428.2,289.7,427,289.8,425.9z"/>
		<path class="st33" d="M289.8,425.9c0,1.2,0,2.3-0.1,3.5c-0.4,0-0.9-0.1-1.3-0.1c-0.7-0.4-1.4-0.8-2.1-1.2c0.8-0.7,1.6-1.3,2.4-2
			C289,426,289.4,426,289.8,425.9z"/>
		<path class="st132" d="M432.6,185c-2.3,0-4.6,0-6.9,0c-0.5,2.1-1,4.2-1.3,5.9c-1.8-0.3-3.7-0.9-5.4-0.7c-2.5,0.2-3.9-0.7-4.9-2.9
			c-1.6-3.4-4.6-3.8-8.3-3.7c0.3,2.2,0.6,3.9,0.9,6.1c-5.4-0.6-10.7-4.4-15.4,1.9c4.6,0.3,8.5,0.6,12.5,0.9
			c-5.6,2.2-11.1,2.2-16.8,1.8c-3.7-0.2-8.1-1.2-11.1,0.2c-5.6,2.8-10,2.4-14.3-1.4c-5.4,3.1-19.8,4.2-26.2,2.2
			c2-0.4,3.9-0.9,6.2-1.4c-0.6-4-0.2-7.7,1.9-11.4c1.2-2,0.4-4.8-2-6.9c-2.8,4.1-4.7,9-10.3,9.3c-3.1-2.6-0.8-8.6-5.6-9.8
			c0,2.5,0.6,5-0.1,7.1c-1.1,3.5-3.7,3.7-6.4,1.1c-2.9-2.8-5.7-5.5-6.7-9.6c-0.2-0.9-0.8-2.2-1.3-2.3c-5.5-1-4.7-4.8-4.2-8.6
			c0.2-1.5,0.3-3.1-0.1-4.4c-1-2.9-2.5-5.6-4-8.9c-1,1.3-1.8,2.4-2.7,3.6c-0.3-0.9-0.9-1.8-0.8-2.6c0.3-2.3,0.1-5.7,3.1-6
			c2.3-0.2,4.7,1.4,7.1,2.3c0.4,0.2,0.4,1.1,0.8,1.4c2.1,1.4,4.3,2.4,6.8,1.2c2.7-1.2,1.6-3.4,1.3-5.4c3.9,2.6,8.2,2.7,12.6,2.3
			c0,0.4,0,0.8,0,1.1c0.4,3,0.7,6,1.1,9.1c0.9-0.7,1.7-1.3,2.6-2c0.4,1.7,0.7,3,1.2,5.4c1.4-2.2,2.3-3.5,3-4.5
			c2.7-0.2,5.1-0.8,7.5-0.6c2.4,0.2,4.7,1.2,6.5,1.8c1.9,3.7,0.7,7.9,5,11c-0.5-4.7-0.3-8.4,4-11.5c-0.6,2-1,3.2-1.3,4.4
			c-1.6,5.7,1.4,9.3,7.2,8.9c3.2-0.2,6.4-0.7,9.5-0.5c9,0.7,18,1,26.2,5.8c2.9,1.7,4,1.1,6.4-2c1.5,0,3.1-0.1,4.6-0.1l0,0
			c2.3,0.8,4.6,1.6,6.9,2.3c1.9,0,3.8,0,5.7,0.1c-0.9,2.7,0,4.5,2.3,6.1C430.6,181.9,431.5,183.6,432.6,185z"/>
		<path class="st1" d="M409.8,172.4c-2.3,3.2-3.4,3.8-6.4,2c-8.1-4.8-17.2-5.2-26.2-5.8c-3.1-0.2-6.3,0.3-9.5,0.5
			c-5.8,0.4-8.8-3.2-7.2-8.9c0.3-1.2,0.7-2.4,1.3-4.4c-4.3,3.1-4.5,6.8-4,11.5c-4.3-3-3.1-7.3-5-11c-1.9-0.5-4.2-1.5-6.5-1.8
			c-2.4-0.2-4.8,0.3-7.5,0.6c-0.7,1-1.5,2.4-3,4.5c-0.5-2.4-0.8-3.7-1.2-5.4c-0.9,0.7-1.7,1.3-2.6,2c-0.4-3.1-0.7-6.1-1.1-9.1
			c1.5-0.1,3-0.5,4.4-0.3c4.5,0.7,8-0.4,11.1-3.9c1.6-1.7,4.8-1.9,7.3-0.1c1.3,1,2.3,2.5,3.5,3.9c1.6-0.9,2.8-1.7,4-2.4
			c7.3,3.7,8.7,3.6,13.4-0.8c3.1,3.2,7,3.8,11.3,3.1c3.3-0.5,6.3,0.2,9,2.5c0.9,0.8,3.3,1.4,4.1,0.8c6.2-4.2,12.7-4.5,19.5-2.1
			c5,1.8,10.7-0.3,15.5,2.8c0.6,0.4,2.2-0.2,3.1-0.7c4.2-2.4,8.5-2.5,12.5-0.2c3,1.8,5.5-0.9,8.3-0.1c2.6,0.8,5.2,1.9,7.9,2.5
			c1.1,0.2,2.5-0.5,3.7-1.1c5.3-2.3,5.8-2.2,10,1.8c-2.4,0.9-4.8,1.7-7.3,2.6c-0.6,1.7,0.3,2.3,1.9,2.3c2.6-0.1,5.2-0.5,7.7-0.3
			c1.2,0.1,2.3,1.4,3.4,2.1c-1.1,0.1-2.3,0.1-3.4,0.2c-1.2,0.4-2.3,0.8-3.5,1.1c-2.6-1.8-3.9-0.2-4.6,2.7c-3-1.4-5.5-2.6-8-3.8
			c-0.5-0.9-0.9-2.2-1.6-2.5c-3.1-1.4-6.1-1-8.7,1.3c-0.4,0-0.8,0-1.1,0c-0.8-0.7-1.6-1.5-2.3-2.2c-0.4,0-0.7,0-1.1,0
			c-4.8-0.3-9.6-1-14.3-0.7c-4.8,0.3-9.4-3.4-14.2-0.8c1.9,6.4,0,8.4-6.5,7.1c-1.4-0.3-2.6-1.4-0.6-5c1.1-2.9-0.5-3.3-1.7-2.8
			c-1.1,0.5-2.1,1.9-2.6,3.2c-0.2,0.6,0.9,2.1,1.7,2.4c1.3,0.4,2.4-0.2,2.9-1.8c0.4-1.3,1.7-2.3-0.3-1c-4.4,4.5-5.6,6-6.7,7.5l0,0
			c-1.4-2.2-3.2-2-6-0.8c1.6,1.2,2.8,2,3.9,2.9c0.3,0,0.6,0.1,1,0.2c-0.4,1.7-0.9,3.5-1.4,5.6C407.4,172.3,408.6,172.4,409.8,172.4z
			 M397.9,156.3c-5.8-1.6-10.8-2.8-16.4-2.3c-3.1,0.3-5.8,0.1-7.8,3.3c-1-1.3-1.6-2.3-2.4-3c-0.6-0.4-1.7-0.5-2.5-0.3
			c-0.4,0.1-0.7,1.2-0.7,1.9c-0.1,2.7,0,5.4,0,8.1c6.3,3,8,3.1,25.5,1.5C394.9,162.7,396.2,159.8,397.9,156.3z M363.8,161.9
			c-0.7,1.3-1.5,2.2-1.3,2.7c0.2,0.6,1.3,1.1,2,1.3c0.3,0.1,1.2-1.1,1.1-1.6C365.5,163.6,364.7,163.1,363.8,161.9z M383.6,151.3
			c-0.3-0.2-0.5-0.4-0.8-0.6c-0.2,0.3-0.4,0.7-0.5,1c0.3,0.1,0.6,0.3,0.9,0.3C383.3,152,383.4,151.6,383.6,151.3z"/>
		<path class="st133" d="M300.1,153c0.9-1.1,1.7-2.3,2.7-3.6c1.5,3.3,2.9,6,4,8.9c0.5,1.3,0.3,3,0.1,4.4c-0.5,3.8-1.2,7.6,4.2,8.6
			c0.6,0.1,1.1,1.5,1.3,2.3c1,4.1,3.8,6.9,6.7,9.6c2.7,2.6,5.3,2.4,6.4-1.1c0.7-2.1,0.1-4.6,0.1-7.1c4.8,1.2,2.5,7.2,5.6,9.8
			c5.6-0.3,7.6-5.2,10.3-9.3c2.4,2.1,3.2,4.9,2,6.9c-2.1,3.7-2.5,7.4-1.9,11.4c-2.3,0.5-4.3,1-6.2,1.4c-3.4-0.4-6.9-0.8-10.3-1.1
			c-0.7-0.6-1.4-1.2-2.1-1.7c-2.1-1.5-3.3-0.8-3.6,1.7c-1.5,0-3,0-4.6-0.1c-5.9-6-6.8-6.2-13.7-3.4c-3.9-0.2-7.8-0.4-12.1-0.7
			c-1.8-5.3-3.8-11-6-17.5c0.9-1,3.2-3,1.4-5.8c-2.6-4.2-0.7-7.9,0.5-12.1c0.8,0.4,1.4,0.7,2.4,1.1c1.7-4.2,3.8-8.2,8.6-10.2
			c3,3.3,0.7,8,3.4,11.5C299.7,155.7,299.9,154.3,300.1,153z M300.1,161.6c-3.1,6.6-2.8,16.5,0,21.2
			C303.4,176.1,299.9,169.5,300.1,161.6z"/>
		<path class="st2" d="M296.7,355.1c0.1,9.2,0.2,18.4,0.3,27.6c0,2.6-0.2,5.3-0.3,7.9c-1.4,0.3-2.9,0.7-4.6,1.1
			c-0.6-4.2-1.8-8-0.2-11.9c0.4-1,0.7-2.7,0.1-3.2c-4.3-3.9-1.5-8.6-1.3-12.8c0.2-2.9,0.7-5.5-1.5-8c-0.6-0.7-0.9-2-0.9-3
			c0-2.3,0.1-4.5,0.2-6.8c5.4,3.9,5.8,9.8,6.2,15.7C295.5,359.6,296.1,357.4,296.7,355.1z"/>
		<path class="st1" d="M505.8,161c-3.7-4.5-8.3-6.6-14.3-6.3c-1.7,0.1-3.4-1.1-5.2-1.7c1.2-0.8,2.5-2.5,3.5-2.3
			c5.6,0.9,11.2,2.2,17.4,3.5C505.9,156.8,508.4,159.2,505.8,161z"/>
		<path class="st2" d="M294.5,303.2c0.5,5.6,1.1,11.3,1.3,16.9c0.4,11.7,0.7,23.4,1,35.1c-0.4-1.4-1.1-2.9-1.2-4.3
			C295.2,335,294.8,319.1,294.5,303.2z"/>
		<path class="st2" d="M288.7,344.9c-0.5-5.4-1.1-10.8-1.5-16.3c-0.1-1.8,0.2-3.7,0.3-5.5c0.6,1.8,1,3.7,2,5.2
			C292.9,334,293.1,339.7,288.7,344.9z"/>
		<path class="st1" d="M330.9,146.1c-4.4,0.4-8.7,0.3-12.6-2.3c-0.4-0.4-0.8-0.8-1.1-1.1c0-0.4,0-0.8,0-1.1c1.9,0,3.8,0,5.7,0
			c0.4,0.6,0.8,1.2,1.3,1.6c0.3,0.2,1,0.1,1.5,0.1c-0.2-0.6-0.4-1.2-0.5-1.7c1.5-2.6,3.4-2.5,4.8-0.3
			C330.9,142.5,330.7,144.5,330.9,146.1z"/>
		<path class="st132" d="M301.2,190.7c6.9-2.8,7.8-2.6,13.7,3.4c-1,0.1-1.9,0.1-2.9,0.2c-2.9-0.4-5.7-0.7-8.6-1.1
			C302.7,192.3,302,191.5,301.2,190.7z"/>
		<path class="st1" d="M509.2,171.2c-3.7-1.8-4.9-3.5-4.6-6.8c0.4,0,0.8,0,1.2-0.1c1.1,0.5,2.3,0.9,3.4,1.4c0.2,0.3,0.4,0.6,0.7,0.9
			C513.2,169.3,513.2,169.4,509.2,171.2z"/>
		<path class="st132" d="M317.2,141.5c0,0.4,0,0.8,0,1.1c-2.3,2.9-3.7-0.6-5.6-1.1C313.5,141.5,315.3,141.5,317.2,141.5z"/>
		<path class="st105" d="M509.2,165.7c-1.1-0.5-2.3-0.9-3.4-1.4c0.8-0.4,1.5-1.1,2.3-1.2C510.5,163,510.5,164.2,509.2,165.7z"/>
		<path class="st132" d="M325.2,141.5c0.2,0.6,0.4,1.2,0.5,1.7c-0.5,0-1.2,0.2-1.5-0.1c-0.5-0.4-0.9-1.1-1.3-1.6
			C323.7,141.5,324.5,141.5,325.2,141.5z"/>
		<path class="st1" d="M486.4,153c-2.2,0.9-2.4-1.4-3.4-2.3C485.2,149.8,485.3,152.1,486.4,153z"/>
		<path class="st2" d="M286.5,319.7c0-2.3,0-4.5,0-6.8C287.7,315.2,287.7,317.5,286.5,319.7z"/>
		<path class="st1" d="M312.1,194.2c1-0.1,1.9-0.1,2.9-0.2c1.5,0,3,0,4.6,0.1c1.9,0,3.8,0,5.7,0c3.4,0.4,6.9,0.8,10.3,1.1
			c6.4,2,20.7,0.9,26.2-2.2c4.3,3.9,8.8,4.2,14.3,1.4c3-1.5,7.4-0.5,11.1-0.2c5.6,0.3,11.2,0.4,16.8-1.8c-4-0.3-7.9-0.6-12.5-0.9
			c4.7-6.3,10.1-2.5,15.4-1.9c-0.3-2.1-0.6-3.9-0.9-6.1c3.7-0.1,6.7,0.4,8.3,3.7c1,2.2,2.4,3.1,4.9,2.9c1.7-0.2,3.5,0.5,5.4,0.7
			c0.4-1.7,0.9-3.8,1.3-5.9c0.9,2,1.8,4.1,3,6.7c2.9-2.6,6.9-1.1,9.2-4.2c3.1,1.6,7.6,0.1,9.3,4c-0.5,1.4-1.1,2.7-0.7,3.6
			c0.3,0.6,1.9,0.5,3.8,1c-1.5-2.1-2.2-3.1-3.2-4.6c3.6,0.2,7,0.1,10.4,0.1c0.8,0,1.5-0.2,2.2-0.1c6.4,0.7,6.6,0.5,8.8-6.3
			c3.7,1.1,7.4,2.2,11.1,3.2c1.2,0.3,2.5,0.1,3.8,0.2c3,0.1,5.9,0,7.6,3.5c0.9,1.7,2.8,3,4.3,4.4c-2.7-0.4-5.3-0.8-8-1.1
			c-0.3-2.2-1.7-3.3-3.9-3.3c-4.1,0-8.3,0-12.4,0.2c-0.7,0-1.3,0.8-2.7,1.7c6.6,0.5,12.2,1,17.8,1.4c-0.8,0.4-1.7,0.8-2.5,1.3
			c-7.3,0.4-14.7,1.3-22,1.2c-13.7-0.2-27.3-1.1-40.9-1.3c-9.7-0.2-19.3,0.2-29,0.3c-14.4,0.2-28.8,0.7-43.2,0.6
			c-10.2-0.1-20.4-0.9-30.6-1.6C316,195.6,314.1,194.7,312.1,194.2z"/>
		<path class="st1" d="M482.9,166.7c-0.2,5.7-1.1,6.3-6.7,4.9c-0.8-0.2-1.9,0.3-3.9,0.7c3.4,2.4,6.4,4.3,2.6,8.5
			c-2-0.3-4.5-0.6-7-0.9c-7.2-0.9-14.4-2.7-21.7-0.8c-3.4,0.9-5.4-1.7-7.9-3.2c2.3-0.7,4.6-1.4,6.9-2c2.6-0.1,5.2-0.2,7.8-0.3
			c0.4,0,0.9,0,1.3,0.1c6.5,0.8,12.5,0.6,16.4-5.8c0.5-0.8,1.3-1.4,1.9-2.1c2.7,0,5.3-0.1,8-0.1
			C481.4,165.9,482.2,166.3,482.9,166.7L482.9,166.7z"/>
		<path class="st1" d="M486.4,159.6c0.5-0.6,1-1.1,1.7-2.1c2.9,1.7,5.7,3.3,8.6,5c-2.8,4.1-8.5,5.7-13.8,4.1l0,0
			c1.1-1.5,2.3-3.1,3.4-4.6C486.3,161.2,486.3,160.4,486.4,159.6z"/>
		<path class="st1" d="M432.6,185c-1.1-1.4-2.1-3.1-3.5-4.1c-2.3-1.6-3.2-3.5-2.3-6.1c1.9,0,3.8,0,5.7-0.1c1.2,0.4,2.3,0.8,3.5,1.2
			c-1.7,1-3.3,2-4.7,2.8c0.5,3.7,5.8,0.6,4.8,4.6C436,184,433.9,184.4,432.6,185z"/>
		<path class="st2" d="M436.1,175.8c-1.2-0.4-2.3-0.8-3.5-1.2c3.1-0.4,6.2-0.8,9.2-1.2c1.1,0.1,2.3,0.2,3.4,0.3
			c-2.3,0.7-4.6,1.4-6.9,2C437.6,175.8,436.8,175.8,436.1,175.8z"/>
		<path class="st134" d="M486.4,159.6c0,0.8,0,1.6,0,2.4c-1.9,0-3.7-0.1-4.5-2.2c1.1-0.1,2.3-0.1,3.4-0.2
			C485.6,159.7,486,159.7,486.4,159.6z"/>
		<path class="st122" d="M364.1,448.9c2.5-2.1,4.6-5.3,9.3-2.8c-0.4,1.6-0.9,3.3-1.3,5C369.4,450.4,366.7,449.7,364.1,448.9z"/>
		<path class="st127" d="M496.6,442.1c1.2,0,2.4,0,3.6,0.1c-0.1,0.3-0.3,0.7-0.4,1c-0.7,1.1-1.5,2.2-2.2,3.3c-0.7,0-1.4,0-2.2,0
			c-1.1-0.6-2.2-1.2-3.6-1.9C492.9,442.3,494.9,442.3,496.6,442.1z"/>
		<path class="st122" d="M396.1,452.3c3.7-2.1,7.2-2.2,10.3,1.1C402.9,453.1,399.5,452.7,396.1,452.3z"/>
		<path class="st107" d="M493.3,429.5c3.1-0.9,6.2-1.7,9.3-2.6c0.1,0.4,0.2,0.8,0.3,1.3c-2.5,2.1-5.7,1.2-8.6,1.5
			C494,429.5,493.7,429.5,493.3,429.5z"/>
		<path class="st122" d="M408.6,453.5c2.8-0.6,5.8-2.4,8,1.1C414,454.2,411.3,453.9,408.6,453.5z"/>
		<path class="st122" d="M386.9,451.2c2.9-1.5,5.5-0.1,8,1.1C392.3,452,389.6,451.6,386.9,451.2z"/>
		<path class="st82" d="M499.1,437.4c0.5-2.1,1.8-2.9,5.1-2.9c-2,1.4-3.1,2.2-4.1,2.9l-0.5,0L499.1,437.4z"/>
		<path class="st49" d="M495.4,446.5c0.7,0,1.4,0,2.2,0l0.3,0.4c-0.1,0.3-0.1,0.7-0.1,1c-1.2,0.4-2.3,0.9-3.5,1.3
			C491.9,447,494.5,447.1,495.4,446.5z"/>
		<path class="st122" d="M377.8,451.2c1.1-2.4,2.3-1.4,3.4,0C380.1,451.2,378.9,451.2,377.8,451.2z"/>
		<path class="st49" d="M497.6,446.4c0.7-1.1,1.5-2.2,2.2-3.3c2.4,1.9,4.2,0.7,5.8-1.2c0.6,1.9,1,4,3.8,3.7
			c-0.7,0.9-1.2,2.2-2.1,2.6c-1.9,0.8-4.1,1.2-6.2,1.8c-0.4-0.6-0.8-1.3-1.2-1.9c1.3-0.5,2.7-1.1,4-1.6c-0.1-0.3-0.2-0.7-0.3-1
			c-1.9,0.4-3.8,0.9-5.8,1.3L497.6,446.4z"/>
		<path class="st49" d="M502.4,452.3c-1.1-0.3-2.1-0.7-3.2-1c0.6-0.4,1.3-0.9,1.9-1.3C501.5,450.7,501.9,451.5,502.4,452.3z"/>
		<path class="st135" d="M497.9,446.8c1.9-0.4,3.8-0.9,5.8-1.3c0.1,0.3,0.2,0.7,0.3,1c-1.3,0.5-2.7,1.1-4,1.6
			c-0.7-0.1-1.4-0.2-2.2-0.3C497.8,447.4,497.9,447.1,497.9,446.8z"/>
		<path class="st122" d="M449.4,437.2c-0.2-0.2-0.5-0.4-0.7-0.6c0.4-0.2,0.7-0.4,1.1-0.5c0.1,0,0.3,0.5,0.5,0.7
			C450,437,449.7,437.1,449.4,437.2z"/>
		<path class="st136" d="M505.6,442c-1.6,1.9-3.4,3.1-5.8,1.2c0.2-0.3,0.3-0.7,0.4-1C502,442.3,503.8,439.9,505.6,442z"/>
		<path class="st123" d="M486.4,195.2c-5.6-0.4-11.2-0.9-17.8-1.4c1.4-0.9,2-1.7,2.7-1.7c4.1-0.2,8.3-0.2,12.4-0.2
			c2.2,0,3.5,1.1,3.9,3.3C487.1,195.2,486.7,195.2,486.4,195.2z"/>
		<path class="st2" d="M408.6,164.4c1.2-1.5,2.3-3.1,3.5-4.6c1.3,0.7,2.5,1.8,3.8,2.1c6.5,1.4,8.4-0.6,6.5-7.1
			c4.9-2.6,9.5,1,14.2,0.8c4.7-0.2,9.5,0.5,14.3,0.7c-1.4,1.1-3.2,1.9-1.4,5.5c1.1-2.4,1.8-3.9,2.5-5.4c0.8,0.7,1.6,1.5,2.3,2.2
			c-1,3.3,1.5,3.1,3.4,3.5l0,0c-1.2,0.8-2.4,1.6-3.5,2.4c-0.3,0-0.6,0.1-1,0.2c-2.5,0.7-5,1.4-7.5,2c-1.4,0.4-2.8,0.7-4.3,1.1
			c-3.7,2.8-8.1,2.3-12.4,2.4c-0.3,0-0.7,0-1,0c-2.3,0.2-4,1.3-6.9,4.5c-2.3-0.8-4.6-1.6-6.9-2.3c-0.7-2.3-0.7-2.3-4.7-1.5
			c1.6,0.5,3.1,1,4.7,1.5c-1.5,0-3.1,0.1-4.6,0.1c-1.2-0.1-2.4-0.1-3.7-0.2c0.5-2.1,1-3.9,1.4-5.6c5.3,0,10.6,0,15.9,0
			c1.6,0.4,3.1,0.8,4.7,1.1c6.3,0.1,6.3,0.1,8.3-2.3c-1.7,0-3.3,0-4.9,0c-0.3-2.4-0.6-4.9-0.9-8.1c-1.9,2.2-4.5,4-4.2,5
			c0.9,3.4-1.4,2.7-3,3.2C418.4,165.2,413.5,164.8,408.6,164.4z M446.6,164.7c0-0.4,0.1-0.8,0.1-1.2c-1,0-2,0.1-3,0.1
			c0,0.3,0,0.5,0,0.8C444.7,164.5,445.7,164.6,446.6,164.7z"/>
		<path class="st6" d="M429.1,170.1c4.3-0.1,8.6,0.4,12.4-2.4c0.4,0.4,0.8,1.1,1.1,1.1c3.5,0,7.1-0.1,10.6-0.1c3.6-1.8,3.6-2,1-4.3
			c1.2-0.8,2.4-1.6,3.5-2.4c3.1,3.1,3.2,4,0.6,6.8c-1.4,1.5-2.7,3.1-4,4.6c-0.4,0-0.9,0-1.3-0.1c-3.5-0.7-7-1.7-10.6-2.1
			c-1.6-0.2-1.6,1-0.6,2.1c-3.1,0.4-6.2,0.8-9.2,1.2c-1.9,0-3.8,0-5.7,0.1c-1.9,0-3.8,0-5.7-0.1c3-3.2,4.6-4.2,6.9-4.5
			c0,3.7,0,3.7,5.2,1.6C431.8,171.2,430.5,170.7,429.1,170.1z"/>
		<path class="st132" d="M397.9,156.3c-1.7,3.5-3,6.4-4.3,9.2c-17.5,1.6-19.2,1.5-25.5-1.5c0-2.7,0-5.4,0-8.1c0-0.7,0.3-1.8,0.7-1.9
			c0.8-0.2,1.9-0.1,2.5,0.3c0.9,0.6,1.4,1.7,2.4,3c2-3.1,4.7-3,7.8-3.3C387,153.5,392.1,154.7,397.9,156.3z"/>
		<path class="st2" d="M454.3,173.5c1.3-1.5,2.7-3.1,4-4.6c2.6-2.8,2.5-3.7-0.6-6.8c0,0,0,0,0,0c-0.8-1.1-1.5-2.3-2.3-3.4
			c2.6-2.4,5.6-2.7,8.7-1.3c0.8,0.3,1.1,1.6,1.6,2.5c-0.5,0.6-0.9,1.1-1.4,1.7c1-0.9,1.9-1.8,2.9-2.7c0.9,2,1.8,4,2.8,6
			c-0.4,0.5-0.8,0.9-1.2,1.4c1.3-0.2,2.5-0.4,3.8-0.6c-0.7,0.7-1.5,1.3-1.9,2.1C466.8,174.1,460.8,174.4,454.3,173.5z"/>
		<path class="st112" d="M472.7,165.6c-1.3,0.2-2.5,0.4-3.8,0.6c0.4-0.5,0.8-0.9,1.2-1.4c-0.9-2-1.8-4-2.8-6c-1,0.9-1.9,1.8-2.9,2.7
			c0.5-0.6,0.9-1.1,1.4-1.7c2.5,1.2,5,2.4,8,3.8c0.7-2.9,1.9-4.5,4.6-2.7c0.8,1.5,1.5,3,2.3,4.5C478,165.5,475.3,165.6,472.7,165.6z
			"/>
		<path class="st2" d="M418.6,154c-1.3,1.6-2.6,2.6-3,3.9c-0.5,1.7-1.6,2.3-2.9,1.8c-0.8-0.3-1.9-1.8-1.7-2.4
			c0.5-1.2,1.4-2.7,2.6-3.2C414.8,153.6,416.5,154,418.6,154z"/>
		<path class="st76" d="M480.6,165.5c-0.8-1.5-1.5-3-2.3-4.5c1.2-0.4,2.3-0.8,3.5-1.1c0.8,2.1,2.6,2.2,4.5,2.2
			c-1.1,1.5-2.3,3.1-3.4,4.6C482.2,166.3,481.4,165.9,480.6,165.5z"/>
		<path class="st95" d="M408.6,164.4c4.9,0.4,9.8,0.8,14.8,1.2c0,0.3,0.1,0.7,0.1,1c-5.3,0-10.6,0-15.9,0c-0.3-0.1-0.6-0.1-1-0.2
			C407.2,165.8,407.9,165.1,408.6,164.4L408.6,164.4z"/>
		<path class="st132" d="M363.8,161.9c0.9,1.1,1.7,1.7,1.8,2.4c0.1,0.4-0.8,1.6-1.1,1.6c-0.8-0.1-1.9-0.6-2-1.3
			C362.3,164.1,363.1,163.2,363.8,161.9z"/>
		<path class="st2" d="M408.6,164.5c-0.7,0.7-1.4,1.4-2.1,2c-1.1-0.8-2.3-1.7-3.9-2.9C405.4,162.4,407.2,162.2,408.6,164.5z"/>
		<path class="st36" d="M452,156.4c-0.7,1.5-1.4,3-2.5,5.4c-1.8-3.5,0-4.4,1.4-5.5C451.3,156.4,451.7,156.4,452,156.4z"/>
		<path class="st36" d="M455.5,158.7c0.8,1.1,1.5,2.3,2.3,3.4c-2-0.3-4.4-0.2-3.4-3.5C454.7,158.7,455.1,158.7,455.5,158.7z"/>
		<path class="st132" d="M383.6,151.3c-0.1,0.3-0.2,0.7-0.4,0.7c-0.3,0-0.6-0.2-0.9-0.3c0.2-0.3,0.4-0.7,0.5-1
			C383.1,150.9,383.3,151.1,383.6,151.3z"/>
		<path class="st122" d="M300.1,161.6c-0.2,8,3.3,14.5,0,21.2C297.3,178.1,297,168.1,300.1,161.6z"/>
		<path class="st132" d="M325.2,194.1c-1.9,0-3.8,0-5.7,0c0.3-2.5,1.5-3.2,3.6-1.7C323.9,192.9,324.5,193.5,325.2,194.1z"/>
		<path class="st123" d="M446.9,191.2c1.2,1.7,2,2.8,3.5,4.9c-1.9-0.5-3.6-0.4-3.8-1C446.2,194.2,446.7,192.9,446.9,191.2z"/>
		<path class="st137" d="M441.8,173.5c-1-1.1-1-2.3,0.6-2.1c3.6,0.5,7,1.4,10.6,2.1c-2.6,0.1-5.2,0.2-7.8,0.3
			C444.1,173.7,443,173.6,441.8,173.5z"/>
		<path class="st20" d="M423.4,166.6c0-0.3,0-0.7-0.1-1c1.6-0.5,3.9,0.2,3-3.2c-0.3-1,2.3-2.8,4.2-5c0.4,3.2,0.7,5.6,0.9,8.1
			c-1.1,0.8-2.3,1.5-3.4,2.3C426.6,167.4,425,167,423.4,166.6z"/>
		<path class="st24" d="M453.3,168.7c-3.5,0.1-7.1,0.1-10.6,0.1c-0.4,0-0.8-0.7-1.1-1.1c1.4-0.4,2.8-0.7,4.3-1.1
			c2.5-0.7,5-1.3,7.5-2C453.3,166,453.3,167.4,453.3,168.7z"/>
		<path class="st138" d="M428.1,167.8c1.1-0.8,2.3-1.5,3.4-2.3c1.6,0,3.2,0,4.9,0C434.4,167.8,434.4,167.8,428.1,167.8z"/>
		<path class="st75" d="M429.1,170.1c1.3,0.5,2.7,1.1,4.2,1.7c-5.2,2.1-5.2,2.1-5.2-1.6C428.5,170.2,428.8,170.2,429.1,170.1z"/>
		<path class="st139" d="M453.3,168.7c0-1.4,0-2.7,0-4.1c0.3-0.1,0.6-0.1,1-0.2C456.9,166.8,456.8,166.9,453.3,168.7z"/>
		<path class="st140" d="M414.4,172.3c-1.5-0.5-3.1-1-4.7-1.5C413.6,170,413.6,170,414.4,172.3L414.4,172.3z"/>
		<path class="st141" d="M446.6,164.7c-1-0.1-1.9-0.2-2.9-0.3c0-0.3,0-0.5,0-0.8c1,0,2-0.1,3-0.1
			C446.7,163.9,446.7,164.3,446.6,164.7z"/>
	</g>
</g>
</svg>
