<?xml version="1.0" encoding="utf-8"?>
<!-- Generator: Adobe Illustrator 26.3.1, SVG Export Plug-In . SVG Version: 6.00 Build 0)  -->
<svg version="1.1" id="Layer" xmlns:v="https://vecta.io/nano"
	 xmlns="http://www.w3.org/2000/svg" xmlns:xlink="http://www.w3.org/1999/xlink" x="0px" y="0px" viewBox="0 0 140 40"
	 style="enable-background:new 0 0 140 40;" xml:space="preserve">
<style type="text/css">
	.st0{fill:url(#SVGID_1_);}
	.st1{fill:url(#SVGID_00000067234928729901962930000013974033725754817193_);}
	.st2{fill:url(#SVGID_00000162344758789234091250000015092531892912454071_);}
	.st3{fill:#666666;}
	.st4{fill:url(#SVGID_00000116219746773610689440000010769167942921291446_);}
	.st5{fill:url(#SVGID_00000116925929304255405810000004969110221077127314_);}
	.st6{fill:url(#SVGID_00000037651238693942424220000006006820158964069260_);}
	.st7{fill:url(#SVGID_00000103976057002929188690000018207602905677004970_);}
	.st8{fill:url(#SVGID_00000051344898082346751540000006019627979390474156_);}
	.st9{fill:url(#SVGID_00000039843385113185231480000001065864839962330532_);}
</style>
<g>
	
		<linearGradient id="SVGID_1_" gradientUnits="userSpaceOnUse" x1="98.3594" y1="-77.7782" x2="115.0791" y2="-77.7782" gradientTransform="matrix(-4.489659e-11 1 -1 -4.489659e-11 73.7794 -30.8049)">
		<stop  offset="0" style="stop-color:#FFFFFF"/>
		<stop  offset="1" style="stop-color:#FFE799"/>
	</linearGradient>
	<ellipse class="st0" cx="151.6" cy="75.9" rx="30.1" ry="8.4"/>
	<g>
		
			<linearGradient id="SVGID_00000131358859156489217060000013234267564862703541_" gradientUnits="userSpaceOnUse" x1="97.8662" y1="-47.6891" x2="114.5859" y2="-47.6891" gradientTransform="matrix(-4.489659e-11 1 -1 -4.489659e-11 73.7794 -30.8049)">
			<stop  offset="0" style="stop-color:#B7EEFF;stop-opacity:0"/>
			<stop  offset="1" style="stop-color:#B7EEFF"/>
		</linearGradient>
		
			<ellipse style="fill:url(#SVGID_00000131358859156489217060000013234267564862703541_);" cx="121.5" cy="75.4" rx="30.1" ry="8.4"/>
	</g>
	<g>
		
			<linearGradient id="SVGID_00000133502449058639615860000003371185845163542165_" gradientUnits="userSpaceOnUse" x1="98.3594" y1="-17.6001" x2="115.0791" y2="-17.6001" gradientTransform="matrix(-4.489659e-11 1 -1 -4.489659e-11 73.7794 -30.8049)">
			<stop  offset="0" style="stop-color:#FBCEC8;stop-opacity:0"/>
			<stop  offset="1" style="stop-color:#FBCEC8"/>
		</linearGradient>
		
			<ellipse style="fill:url(#SVGID_00000133502449058639615860000003371185845163542165_);" cx="91.4" cy="75.9" rx="30.1" ry="8.4"/>
	</g>
</g>
<g>
	<path class="st3" d="M9-51.7h5.8c2.5,0,4.5,0.5,6.1,1.4s2.8,2.2,3.5,3.7c0.7,1.5,1.1,3.2,1.1,4.9c0,1.9-0.4,3.5-1.3,4.9
		c-0.9,1.4-2.1,2.5-3.6,3.3c-1.5,0.8-3.1,1.2-4.9,1.2H9V-51.7z M15.1-36c2,0,3.6-0.5,4.7-1.5c1.2-1,1.7-2.5,1.7-4.4
		c0-1.6-0.3-2.8-1-3.7c-0.6-0.9-1.4-1.6-2.2-1.9c-0.9-0.4-1.7-0.5-2.4-0.5h-3.1V-36H15.1z"/>
	<path class="st3" d="M95.9-51.7v20.3h-0.1L82.2-43.8l0.1,11.5h-3.9v-20.2h0.2L92.1-40L92-51.7H95.9z"/>
	<path class="st3" d="M128.4-33.2c-0.8,0.3-1.6,0.6-2.5,0.8c-0.9,0.2-1.8,0.3-2.5,0.3c-2.1,0-3.9-0.4-5.4-1.2
		c-1.6-0.8-2.8-1.9-3.6-3.3c-0.8-1.4-1.3-3-1.3-4.9c0-2.3,0.4-4.2,1.3-5.8c0.9-1.6,2.1-2.8,3.6-3.5c1.5-0.8,3.2-1.2,5-1.2
		c1.2,0,2.3,0.1,3.3,0.4c1,0.3,2,0.6,2.8,1l-1.2,3.6c-0.5-0.3-1.2-0.5-2.1-0.8c-0.9-0.2-1.6-0.4-2.2-0.4c-2.1,0-3.7,0.5-4.9,1.6
		c-1.1,1.1-1.7,2.6-1.7,4.7c0,1.2,0.3,2.2,0.8,3.1c0.5,0.9,1.3,1.6,2.3,2.1c1,0.5,2.1,0.7,3.3,0.7c1.2,0,2.1-0.2,2.7-0.5v-2.4h-3.4
		v-3.7h7.3v8.2C129.7-33.9,129.1-33.6,128.4-33.2z"/>
</g>
<g>
	<g>
		
			<linearGradient id="SVGID_00000168118321452937878710000000471891976432978061_" gradientUnits="userSpaceOnUse" x1="13.8058" y1="56.2466" x2="13.8058" y2="71.6618" gradientTransform="matrix(1 0 0 -1 7.8722 80.087)">
			<stop  offset="0" style="stop-color:#FBBDB8;stop-opacity:0"/>
			<stop  offset="1" style="stop-color:#FBBDB8"/>
		</linearGradient>
		<path style="fill:url(#SVGID_00000168118321452937878710000000471891976432978061_);" d="M37.1,23.9H6.2c0-0.8,0.3-1.5,0.9-2.1
			L19.5,9.3c1.2-1.2,3.1-1.2,4.2,0l12.5,12.5C36.8,22.4,37.1,23.1,37.1,23.9z"/>
	</g>
	<g>
		
			<linearGradient id="SVGID_00000106140210878444551070000017388256706264964284_" gradientUnits="userSpaceOnUse" x1="30.0672" y1="56.2466" x2="30.0672" y2="71.6618" gradientTransform="matrix(1 0 0 -1 7.8722 80.087)">
			<stop  offset="0" style="stop-color:#A7F4FF;stop-opacity:0"/>
			<stop  offset="1" style="stop-color:#A7F4FF"/>
		</linearGradient>
		<path style="fill:url(#SVGID_00000106140210878444551070000017388256706264964284_);" d="M53.4,23.9H22.5c0-0.8,0.3-1.5,0.9-2.1
			L35.8,9.3c1.2-1.2,3.1-1.2,4.2,0l12.5,12.5C53.1,22.4,53.4,23.1,53.4,23.9z"/>
	</g>
</g>
<linearGradient id="SVGID_00000145042815607356062220000016563260346244869797_" gradientUnits="userSpaceOnUse" x1="21.9365" y1="48.4966" x2="21.9365" y2="63.9118" gradientTransform="matrix(1 0 0 -1 7.8722 80.087)">
	<stop  offset="0" style="stop-color:#FFE089;stop-opacity:0"/>
	<stop  offset="1" style="stop-color:#FFE089"/>
</linearGradient>
<path style="fill:url(#SVGID_00000145042815607356062220000016563260346244869797_);" d="M45.3,31.6H14.4c0-0.8,0.3-1.5,0.9-2.1
	L27.7,17c1.2-1.2,3.1-1.2,4.2,0l12.5,12.5C45,30.1,45.3,30.8,45.3,31.6z"/>
<g>
	
		<linearGradient id="SVGID_00000085230612812012371410000002623700298083453859_" gradientUnits="userSpaceOnUse" x1="-63.1589" y1="29.7671" x2="-43.6248" y2="10.2329">
		<stop  offset="0" style="stop-color:#FBBDB8;stop-opacity:0"/>
		<stop  offset="1" style="stop-color:#FBBDB8"/>
	</linearGradient>
	<circle style="fill:url(#SVGID_00000085230612812012371410000002623700298083453859_);" cx="-53.4" cy="20" r="13.8"/>
</g>
<g>
	
		<linearGradient id="SVGID_00000093162014622867899140000009614503675115133337_" gradientUnits="userSpaceOnUse" x1="-54.2736" y1="29.7671" x2="-34.7395" y2="10.2329">
		<stop  offset="0" style="stop-color:#A7F4FF;stop-opacity:0"/>
		<stop  offset="1" style="stop-color:#A7F4FF"/>
	</linearGradient>
	<circle style="fill:url(#SVGID_00000093162014622867899140000009614503675115133337_);" cx="-44.5" cy="20" r="13.8"/>
</g>
<linearGradient id="SVGID_00000182522465253316971990000001875325903572977842_" gradientUnits="userSpaceOnUse" x1="-45.3883" y1="29.7671" x2="-25.8541" y2="10.2329">
	<stop  offset="0" style="stop-color:#FFE089;stop-opacity:0"/>
	<stop  offset="1" style="stop-color:#FFE089"/>
</linearGradient>
<circle style="fill:url(#SVGID_00000182522465253316971990000001875325903572977842_);" cx="-35.6" cy="20" r="13.8"/>
<g>
	<path class="st3" d="M63.4,14.7h3.5c1.5,0,2.7,0.3,3.7,0.9c1,0.6,1.7,1.3,2.1,2.2s0.7,1.9,0.7,3c0,1.1-0.3,2.1-0.8,3
		c-0.5,0.9-1.2,1.5-2.1,2c-0.9,0.5-1.9,0.7-3,0.7h-4.1V14.7z M67.1,24.2c1.2,0,2.1-0.3,2.8-0.9c0.7-0.6,1-1.5,1-2.7
		c0-0.9-0.2-1.7-0.6-2.2c-0.4-0.6-0.8-0.9-1.4-1.1c-0.5-0.2-1-0.3-1.5-0.3h-1.9v7.3H67.1z"/>
	<path class="st3" d="M83.7,17.6c0.5-0.9,1.3-1.7,2.2-2.2c0.9-0.5,1.9-0.8,3-0.8c1.1,0,2.1,0.3,3,0.8c0.9,0.5,1.6,1.3,2.2,2.2
		c0.5,0.9,0.8,1.9,0.8,3c0,1.1-0.3,2.1-0.8,3c-0.5,0.9-1.3,1.6-2.2,2.2c-0.9,0.5-1.9,0.8-3,0.8c-1.1,0-2.1-0.3-3-0.8
		c-0.9-0.5-1.6-1.3-2.2-2.2c-0.5-0.9-0.8-1.9-0.8-3C82.9,19.5,83.2,18.5,83.7,17.6z M85.8,22.5c0.3,0.6,0.8,1,1.3,1.4
		s1.2,0.5,1.9,0.5c0.7,0,1.3-0.2,1.8-0.5c0.5-0.3,1-0.8,1.3-1.4c0.3-0.6,0.5-1.2,0.5-1.9c0-0.7-0.2-1.3-0.5-1.9
		c-0.3-0.6-0.8-1-1.3-1.4c-0.5-0.3-1.2-0.5-1.8-0.5c-0.7,0-1.3,0.2-1.8,0.5c-0.5,0.3-1,0.8-1.3,1.4c-0.3,0.6-0.5,1.2-0.5,1.9
		C85.3,21.3,85.5,21.9,85.8,22.5z"/>
	<path class="st3" d="M115.7,14.7v12.2h-0.1l-8.2-7.4l0,6.9h-2.3V14.3h0.1l8.2,7.5l0-7H115.7z"/>
	<path class="st3" d="M135.2,25.8c-0.5,0.2-1,0.4-1.5,0.5c-0.6,0.1-1.1,0.2-1.5,0.2c-1.2,0-2.3-0.2-3.3-0.7c-0.9-0.5-1.7-1.2-2.2-2
		c-0.5-0.9-0.8-1.8-0.8-2.9c0-1.4,0.3-2.5,0.8-3.5c0.5-0.9,1.3-1.7,2.2-2.1c0.9-0.5,1.9-0.7,3-0.7c0.7,0,1.4,0.1,2,0.2
		c0.6,0.2,1.2,0.4,1.7,0.6l-0.7,2.1c-0.3-0.2-0.7-0.3-1.3-0.5c-0.5-0.1-1-0.2-1.3-0.2c-1.3,0-2.2,0.3-2.9,1c-0.7,0.6-1,1.6-1,2.8
		c0,0.7,0.2,1.4,0.5,1.9c0.3,0.5,0.8,0.9,1.4,1.2c0.6,0.3,1.3,0.4,2,0.4c0.7,0,1.3-0.1,1.6-0.3v-1.4h-2v-2.2h4.4v4.9
		C136,25.4,135.7,25.6,135.2,25.8z"/>
</g>
</svg>
