<?xml version="1.0" encoding="utf-8"?>
<!-- Generator: Adobe Illustrator 26.3.1, SVG Export Plug-In . SVG Version: 6.00 Build 0)  -->
<svg version="1.1" id="圖層_1" xmlns="http://www.w3.org/2000/svg" xmlns:xlink="http://www.w3.org/1999/xlink" x="0px" y="0px"
	 viewBox="0 0 1920 1080" style="enable-background:new 0 0 1920 1080;" xml:space="preserve">
<style type="text/css">
	.st0{fill:url(#SVGID_1_);}
	.st1{fill:url(#SVGID_00000165232351638328676520000015920962395386180764_);}
	.st2{fill:url(#SVGID_00000160155534071792031150000001493007029340035984_);}
	.st3{fill:url(#SVGID_00000161601774572740112570000011349990143782107039_);}
	.st4{fill:url(#SVGID_00000178904514657208696270000017384259975707317637_);}
	.st5{fill:url(#SVGID_00000080903390803809384070000014044817419299394694_);}
	.st6{fill:url(#SVGID_00000055708742981843644220000004821721859880154804_);}
	.st7{fill:#929FF0;}
</style>
<linearGradient id="SVGID_1_" gradientUnits="userSpaceOnUse" x1="1374.55" y1="696.35" x2="2222.8501" y2="-151.95" gradientTransform="matrix(1 0 0 -1 0 1080)">
	<stop  offset="0" style="stop-color:#000000;stop-opacity:0"/>
	<stop  offset="1" style="stop-color:#562237"/>
</linearGradient>
<path class="st0" d="M2100.5,261.3c-166.7-166.7-436.9-166.7-603.6,0l0,0c-92.5,92.5-144.5,218-144.5,348.8v599.7H2245V610.1
	C2245,479.3,2193,353.8,2100.5,261.3L2100.5,261.3z"/>
<linearGradient id="SVGID_00000155138941101951957500000016131207595596235162_" gradientUnits="userSpaceOnUse" x1="726.25" y1="265.95" x2="1336.6001" y2="-344.4" gradientTransform="matrix(1 0 0 -1 0 1080)">
	<stop  offset="0" style="stop-color:#000000;stop-opacity:0"/>
	<stop  offset="1" style="stop-color:#481100"/>
</linearGradient>
<path style="fill:url(#SVGID_00000155138941101951957500000016131207595596235162_);" d="M1248.5,726
	c-119.9-119.9-314.3-119.9-434.2,0l0,0c-66.6,66.6-103.9,156.8-103.9,251v431.5h642.1V976.9C1352.5,882.8,1315.1,792.5,1248.5,726
	L1248.5,726z"/>
<linearGradient id="SVGID_00000060732253590813685710000008901801810880350908_" gradientUnits="userSpaceOnUse" x1="201.65" y1="128.75" x2="718.9499" y2="-388.55" gradientTransform="matrix(1 0 0 -1 0 1080)">
	<stop  offset="0" style="stop-color:#000000;stop-opacity:0"/>
	<stop  offset="1" style="stop-color:#562237"/>
</linearGradient>
<path style="fill:url(#SVGID_00000060732253590813685710000008901801810880350908_);" d="M-57,1209.9l342.8-342.8
	c96.4-96.4,252.6-96.4,349,0l342.8,342.8"/>
<linearGradient id="SVGID_00000003802922447781042570000009027481451567099788_" gradientUnits="userSpaceOnUse" x1="512.375" y1="52.9751" x2="1189.525" y2="-624.175" gradientTransform="matrix(1 0 0 -1 0 1080)">
	<stop  offset="0" style="stop-color:#000000;stop-opacity:0"/>
	<stop  offset="1" style="stop-color:#043137"/>
</linearGradient>
<path style="fill:url(#SVGID_00000003802922447781042570000009027481451567099788_);" d="M173.8,1365.6l448.7-448.7
	c126.2-126.2,330.7-126.2,456.9,0l448.7,448.7"/>
<linearGradient id="SVGID_00000177460600981868976530000011263746189612388492_" gradientUnits="userSpaceOnUse" x1="1427.4751" y1="60.3751" x2="2104.6252" y2="-616.775" gradientTransform="matrix(1 0 0 -1 0 1080)">
	<stop  offset="0" style="stop-color:#000000;stop-opacity:0"/>
	<stop  offset="1" style="stop-color:#481100"/>
</linearGradient>
<path style="fill:url(#SVGID_00000177460600981868976530000011263746189612388492_);" d="M1088.9,1358.2l448.7-448.7
	c126.2-126.2,330.7-126.2,456.9,0l448.7,448.7"/>
<linearGradient id="SVGID_00000126292372784951245350000001086799552845149063_" gradientUnits="userSpaceOnUse" x1="1052.15" y1="-56.5499" x2="1569.4501" y2="-573.85" gradientTransform="matrix(1 0 0 -1 0 1080)">
	<stop  offset="0" style="stop-color:#000000;stop-opacity:0"/>
	<stop  offset="1" style="stop-color:#481100"/>
</linearGradient>
<path style="fill:url(#SVGID_00000126292372784951245350000001086799552845149063_);" d="M793.5,1395.2l342.8-342.8
	c96.4-96.4,252.6-96.4,349,0l342.8,342.8"/>
<g>
	
		<linearGradient id="SVGID_00000103259078777704104060000002425465822025304450_" gradientUnits="userSpaceOnUse" x1="-123.6954" y1="-739.978" x2="284.2383" y2="-1147.9119" gradientTransform="matrix(0.7071 0.7071 0.7071 -0.7071 642.0535 392.0265)">
		<stop  offset="0" style="stop-color:#000000;stop-opacity:0"/>
		<stop  offset="1" style="stop-color:#043137"/>
	</linearGradient>
	<path style="fill:url(#SVGID_00000103259078777704104060000002425465822025304450_);" d="M-257.1,827.8h382.3
		c107.5,0,194.6,87.1,194.6,194.6v382.3"/>
	<g>
		<g>
			<g>
				<circle class="st7" cx="169.9" cy="932.6" r="4.9"/>
			</g>
			<g>
				<circle class="st7" cx="215" cy="977.7" r="4.9"/>
			</g>
		</g>
		<g>
			<path class="st7" d="M186.6,983.1c-12.2,0-22-9.9-22-22c0-2.3,1.9-4.3,4.3-4.3s4.3,1.9,4.3,4.3c0,7.5,6.1,13.5,13.5,13.5
				c2.3,0,4.3,1.9,4.3,4.3S188.9,983.1,186.6,983.1z"/>
		</g>
	</g>
</g>
</svg>
